<svg xmlns="http://www.w3.org/2000/svg" xmlns:xlink="http://www.w3.org/1999/xlink" viewBox="0 0 1000 990" xmlns:v="https://vecta.io/nano"><style><![CDATA[.B{fill:#592d3d}.C{stroke:#592d3d}.D{stroke-miterlimit:10}.E{fill:none}.F{stroke-width:12}.G{fill:#8d5638}.H{fill:#a56941}.I{stroke-width:8}.J{fill:#85c5e5}]]></style><g class="B"><path d="M225.35 498c183.42 77.95 371.14 79.06 555.94 0 17.53-7.5 17.43-139.87 0-133.81-180.47 62.83-371.33 63.5-555.94 0-21.96-7.59-19.82 125.34 0 133.81z" transform="scale(1.12)" transform-origin="center center" class="C D F"/><use xlink:href="#B"/><path d="M242.87 699.45l4 1.52 13.33-39.77 14.46 48.46c45.22 12 104.55 19.15 167.28 21.63l27.28-26.22-233.41-175.64s-6.14 101.45 7.06 170.02zM617.2 552.78l25.31 170.76c34.8-4.34 66.62-10.27 93.11-17.73h0s33.09-36.89 29.52-176.38-147.94 23.35-147.94 23.35z"/></g><use xlink:href="#B" class="C D E F"/><path d="M610,758.72c90.76,0,72,114.24,72.87,241.28H610Z" class="H"/><path d="M632.74 831.87L610 870l11.38 130h31.76c.77-180.27-20.4-168.13-20.4-168.13z" class="G"/><use xlink:href="#C" class="H"/><path d="M269.61 634.48l2.11 3.58 1.33 2.14 2 3.19 1.46 2.24 2 3 1.56 2.28 2 2.88 1.65 2.3 2 2.77 1.73 2.29 2.07 2.7 1.79 2.26 2.12 2.63 1.85 2.23 2.17 2.57 1.91 2.2 2.22 2.5 2 2.16 2.6 2.79 1.21 1.28 3.91 4 .26.27 3.91 3.81 1.58 1.5 2.86 2.66 1.16 1.06 3.14 2.78q4.9 4.27 10 8.19 8.19 6.24 16.93 11.62c23.55 13 49 22 75.37 27.8 6.59 1.45 13.23 2.7 19.89 3.71 42.1 3.75 87 5.18 129.28-3.08C508.45 729 185.59 612.74 388.8 257.48h0a249.02 249.02 0 0 0-8.06 3.88l-.59.29-3.65 1.88-1 .53a280.52 280.52 0 0 0-11.13 6.23l-.9.53-3.46 2.1-.87.54q-5.36 3.35-10.55 6.93l-1.08.75-3.23 2.29-.66.47q-3.27 2.39-6.46 4.84l-.62.48-3 2.39-1.17.94-3 2.45h0c-2.11 1.75-4.19 3.55-6.24 5.37l-1.14 1-2.69 2.45L318 305q-4.28 4-8.37 8.17l-1.38 1.41-2.36 2.47-1.37 1.48q-2.06 2.2-4.06 4.46c-.45.51-.91 1-1.36 1.54l-2.11 2.45-1.51 1.79-2 2.44-1.61 2-3.16 4-1.61 2.11-1.79 2.4-1.59 2.18-1.68 2.33q-1.42 2-2.8 4.05l-1.49 2.22-1.64 2.5-1.49 2.31-1.68 2.71-1.28 2.07-2.61 4.4-1.22 2.16-1.61 2.87-1.19 2.19-1.9 3.59-1.2 2.34-1.91 3.84-1 2.09-1.53 3.29-.91 2q-1.11 2.47-2.17 5l-.65 1.57-1.56 3.82-.79 2-1.45 3.8-.62 1.65q-.94 2.63-1.85 5.26l-.56 1.7q-.66 2-1.29 4l-.6 1.91-1.37 4.63-.29 1q-.78 2.76-1.5 5.54c-.16.59-.3 1.19-.45 1.78l-1 4.18-.42 1.75-1.24 5.71-.15.77q-.51 2.55-1 5.1l-.32 1.82-.74 4.5-.24 1.52-.83 5.88-.15 1.3-.55 4.79-.19 1.81-.45 5.06c0 .35-.06.69-.08 1q-.22 3-.39 6.05c0 .53 0 1.07-.07 1.6q-.1 2.36-.18 4.71v1.77l-.08 6.17v.1l.08 6.62c0 .76.06 1.52.08 2.28l.17 4.41c0 .89.11 1.77.16 2.66l.25 4 .24 2.83.34 3.77c.09 1 .21 1.94.31 2.91l.42 3.64.39 2.95.5 3.55.47 3 .57 3.49.55 3 .65 3.44.62 3 .74 3.4.68 2.93.82 3.36.74 2.91.91 3.34c.26 1 .53 1.92.81 2.87l1 3.31.88 2.84 1.06 3.28.94 2.8 1.15 3.27 1 2.74 1.24 3.27c.35.89.69 1.79 1 2.68l1.34 3.28 1.08 2.59 1.45 3.33 1.1 2.47 1.6 3.44 1.08 2.3 1.87 3.75.95 1.9q2.88 5.61 6 11.07l1.02 1.69z" class="G"/><use xlink:href="#C" class="C D E F"/><path d="M386.12,758.72c-90.77,0-72,114.24-72.87,241.28h72.87Z" class="H"/><path d="M367.23 831.87L390 870l-11.39 130h-31.73c-.81-180.27 20.35-168.13 20.35-168.13z" class="G"/><path d="M619.47,1070H380.53a13.28,13.28,0,0,1-13.27-13.28V772a13.28,13.28,0,0,1,13.27-13.28H613.76c13.09,0,19,7.66,19,19.88v278.08A13.28,13.28,0,0,1,619.47,1070Z" class="H"/><path d="M629.05 766.62a19.33 19.33 0 0 1-2.51-4 17.25 17.25 0 0 0-8.28-3.51 28.88 28.88 0 0 0-4.5-.34H380.53A13.28 13.28 0 0 0 367.26 772c29 10.42 83.29 16.24 132.74 16.24 63.06 0 104.38-9.35 129.05-21.62z" class="G"/><g class="C D E F"><path d="M610 758.72c90.76 0 72 114.24 72.87 241.28h-50.13M386.12 758.72c-90.77 0-72 114.24-72.87 241.28h50.07" stroke-linecap="square"/><path d="M380.53,758.82l233.23-.1"/></g><path d="M380.53,1070H497.15C388,1070,396.24,838.82,367.26,838.82v217.86A13.28,13.28,0,0,0,380.53,1070Z" class="G"/><path d="M361.26 860.85c-.19-3.67-.11-7.34.05-11s.47-7.35.86-11l.65-5.51c.25-1.84.49-3.67.85-5.51a44.18 44.18 0 0 1 3.59-11 44.18 44.18 0 0 1 3.59 11c.36 1.84.62 3.67.85 5.51l.65 5.51c.38 3.67.68 7.34.85 11s.25 7.34.06 11z" class="B"/><path d="M632.74 870v8 102.75 8.53 67.41a13.28 13.28 0 0 1-13.27 13.31H380.53a13.28 13.28 0 0 1-13.27-13.28v-58.2-137.67" class="C D E F"/><path d="M626.74 870c-.19-4.17-.1-8.35.06-12.53s.47-8.35.85-12.53l.65-6.27c.24-2.09.49-4.17.85-6.26a55.09 55.09 0 0 1 3.59-12.53 55.09 55.09 0 0 1 3.59 12.53c.36 2.09.62 4.18.85 6.26l.65 6.27c.38 4.18.69 8.35.85 12.53s.25 8.36.06 12.53zm-56.06-27.55C570.9 833 582.9 829 588.9 835a10.611 10.611 0 1 1-15.16 14.85 10.4 10.4 0 0 1-3.06-7.4zm-162.57-.3C407.9 834 416.9 830 422.9 833c8 3 8 14 0 19-4 2-8 0-11.75-2.48a10.39 10.39 0 0 1-3.04-7.37z" class="B"/><g class="G"><path d="M500 831.77a27.13 27.13 0 0 1 1.5 5.84 42.47 42.47 0 0 1 .49 5.84l.3 11.69.25 11.69.17 11.67.28 46.74v46.74l-.53 23.37c-.1 3.89-.29 7.79-.67 11.68a92.5 92.5 0 0 1-1.77 11.69 92.5 92.5 0 0 1-1.77-11.69c-.38-3.89-.57-7.79-.67-11.68l-.53-23.37v-46.74l.18-46.73.17-11.7.33-11.68.33-11.68a44.11 44.11 0 0 1 .5-5.84 27.13 27.13 0 0 1 1.44-5.84z"/><path d="M425.22 883a18.51 18.51 0 0 1 4.67-1.5 29.75 29.75 0 0 1 4.68-.5l9.35-.33 18.7-.41 37.38-.27h37.39l18.7.53 9.34.67a61.34 61.34 0 0 1 9.35 1.78 59.17 59.17 0 0 1-9.35 1.77l-9.34.67-18.7.52c-12.46.19-24.92 0-37.39 0s-24.93 0-37.4-.15c-6.23-.06-12.46-.26-18.68-.5l-9.35-.34a29.5 29.5 0 0 1-4.67-.5 18.45 18.45 0 0 1-4.68-1.44zm17.19 31.38a12.51 12.51 0 0 1 3.74-1.11 18.35 18.35 0 0 1 3.62-.15l7.17.21 14.34.17 28.76-.21c9.67-.29 19.26-.43 28.88-.39 4.81 0 9.62.13 14.42.24a70.37 70.37 0 0 1 7.23.47 38.17 38.17 0 0 1 7.27 1.53 36.56 36.56 0 0 1-7.16 2 61.08 61.08 0 0 1-7.21.86c-4.82.35-9.64.65-14.45.82-9.64.36-19.27.32-28.88.45-4.81 0-9.61.22-14.48.1l-14.52-.31c-4.83-.18-9.68-.58-14.5-1.08l-7.23-.9a16.82 16.82 0 0 1-3.57-.84 11.51 11.51 0 0 1-3.43-1.86zm-3.48 35.49a13.07 13.07 0 0 1 3.82-1.5 19.13 19.13 0 0 1 3.82-.49l7.63-.32 15.28-.41L500 947h30.54c5.09.09 10.18.3 15.27.53a72.73 72.73 0 0 1 7.63.66 41.2 41.2 0 0 1 7.66 1.81 41.25 41.25 0 0 1-7.63 1.77 70.34 70.34 0 0 1-7.64.67l-15.27.53c-10.18.2-20.37.06-30.55 0l-30.54-.25-15.28-.49-7.63-.37a19.33 19.33 0 0 1-3.82-.5 12.85 12.85 0 0 1-3.81-1.49z"/></g><g class="C D F"><path d="M703.51 506.11V519a49.59 49.59 0 0 1-1.94 25.32 45.67 45.67 0 0 1-3.51 7.65c-3.35 8.71-12.35 15.71-21.35 18.71-14 4-31 2-42-9-14-15-12-37-12.45-55.62m-245.57-.36c2.34 26.61-1.66 63.61-36.13 67.17a45.89 45.89 0 0 1-8.12 0 43.6 43.6 0 0 1-22.44-8.56c-18-15-14-39-13.95-58.62" stroke-linecap="round" class="E"/><path d="M538.71 665.74c-15.55 0-25.12-12.76-36.48-12.76s-25.92 12.76-41.23 12.76-23.73-11.11-23.73-26.51c0-16.65 16.75-46.06 62.61-46.06s65.39 27.74 65.39 45.46c-.04 16.37-11 27.11-26.56 27.11z" class="B"/></g><path d="M511.14 655.25C506.58 643 491 635 473.29 636.57c-14.79 1.34-26.93 9.09-31.84 19.1 3.92 6.26 10.51 10.07 19.51 10.07 15.35 0 29.9-12.76 41.27-12.76a21.5 21.5 0 0 1 8.91 2.27z" fill="#f28195"/><path d="M455.06 628.66l.87-.35.73-.25c.47-.16.94-.28 1.41-.4a21.33 21.33 0 0 1 2.85-.53 24.24 24.24 0 0 1 5.84-.07 21.24 21.24 0 0 1 11.15 4.48 20.07 20.07 0 0 1 6.55 9.27 17.31 17.31 0 0 1 .2 10.44l-6.43-6.88a27.89 27.89 0 0 0-2.88-2.58 13.78 13.78 0 0 0-3-1.72 15.18 15.18 0 0 0-6.35-1.15 29.08 29.08 0 0 0-3.43.3l-1.72.31-.84.19-.39.08c-.09 0-.29.08-.22 0z" class="B"/><path d="M290.23 414.02h439.24v64.15H290.23z" class="G"/><use xlink:href="#D" class="B"/><use xlink:href="#D" class="C D E F"/><path d="M584.15 228l-6.47-1.74c-25.21-7-50.93-7.55-75.13-7.55-30.59 0-57.07 3.49-80.91 10.64l-4.26 1.27-.49.15a299.89 299.89 0 0 0-93.42 52c-3 2.46-6 5-8.84 7.55-29.63 24.82-52.93 56.11-69.24 93-1.56 3.49-3 7.05-4.42 10.57-4.18 10.69-21.29 59.77-23.75 70.65l72.53 1c7.73-.29 20.24-.51 36.19-.67l15.5-50.61 17.44 50.38 93.88-.12 12.32-52.36L479 464.6l195.28.77 13.2-52.17 15 52.33 8.21.05L783.8 500c0-86.19-41.3-149-46.48-156.6C706 288 651.63 247 584.15 228zm166.16 319.25c-3.17-25.92-11.17-55.26-26.51-87.84l-3.89-8.27h-6.49l-26.78-93.63-23.64 93.3-172.86-.69-25.95-97.57-22.94 97.5-72.09.09-28.56-82.61-25.42 83-26 .56-9.83.38-3.29 9.26C261.72 501.22 257.92 545 264.76 591c-15.9-40-22.46-91.39-5.65-157.63l.09-.38a197.7 197.7 0 0 1 8.8-28.52c1.2-3.09 2.51-6.22 3.91-9.35 14.54-32.86 35.24-60.67 61.51-82.63l.33-.29c2.65-2.35 5.39-4.69 8.14-6.95a270.41 270.41 0 0 1 84-46.87l4.05-1.2c21.12-6.34 44.87-9.43 72.6-9.43 22.22 0 45.73.51 67.45 6.52l6.38 1.71c60.24 17 108.53 53.27 136 102.23l.37.66.44.63c.42.59 41.61 59.63 41.61 140.5a252.08 252.08 0 0 1-4.48 47.25z" class="B"/><path d="M710 667.66q-4.71 5.82-9.71 11.37c-2.5 2.77 2.58-1.12 9.71-11.37zM307.17 681.6c4.37 4.7-57.93-101.85-17.42-216 7.73-.29 20.24-.51 36.19-.67l15.5-50.61 17.44 50.38 93.88-.12 12.32-52.36L479 464.6l195.28.77 13.2-52.17 15 52.33 8.21.05C760.78 572 728.5 641.13 710 667.66" class="C D E F"/><path d="M284.48 462.85l.53-1.94.62-1.78 1.51-3.42a48.48 48.48 0 0 1 3.85-6.42 37.51 37.51 0 0 1 4.88-5.75 17 17 0 0 1 7-4 31 31 0 0 1-.87 7.68l-.93 3.32-1 3.25q-1 3.23-2 6.39l-1 3.13-.56 1.53-.56 1.4zm426.2-3.27a35 35 0 0 1 6.23.06 60.73 60.73 0 0 1 6.24.86l3.12.64a25.74 25.74 0 0 1 3.11.86 18.53 18.53 0 0 1 6.24 3.58 18.74 18.74 0 0 1-6.24 3.59 25.68 25.68 0 0 1-3.11.85l-3.12.65q-3.12.58-6.24.86a35 35 0 0 1-6.23.05z" class="B"/><path d="M444.84 452.07a134.88 134.88 0 0 1 1.49-14.25c.72-4.7 1.6-9.37 2.61-14s2.15-9.25 3.44-13.83A132.09 132.09 0 0 1 457 396.4a131.77 131.77 0 0 1-1.5 14.25q-1.08 7.05-2.61 14-1.53 6.95-3.44 13.83a137 137 0 0 1-4.61 13.59zm223.16 0a134.88 134.88 0 0 1 1.49-14.25q1.09-7.05 2.61-14 1.52-6.95 3.39-13.82a132.09 132.09 0 0 1 4.57-13.58 131.76 131.76 0 0 1-1.49 14.25q-1.1 7.05-2.61 14a228.93 228.93 0 0 1-3.45 13.83 134.48 134.48 0 0 1-4.51 13.57z" fill="#fff"/><g class="B"><path d="M237.55,468.26a143,143,0,0,1,11.42-38"/><path d="M231.6 467.51l.32-2.73.46-2.58 1.23-5a78.48 78.48 0 0 1 3.47-9.75 66.09 66.09 0 0 1 4.7-9.22 29.18 29.18 0 0 1 7.19-7.91 50.46 50.46 0 0 1-.48 10.43l-.83 4.84-.83 4.78-1.63 9.49-.83 4.68-.42 2.32-.44 2.19zM769.33 496s-.46-20.78-8.37-47.63"/><path d="M763.33 496.12l-.24-2.76-.22-2.89-.45-5.84-.91-11.8-1-11.93-.1-6.14a47.58 47.58 0 0 1 .5-6.4 42.78 42.78 0 0 1 6.58 10.89 62.13 62.13 0 0 1 2.17 5.84l1.81 6a111.89 111.89 0 0 1 2.69 12.17l.81 6.21q.16 1.56.24 3.15a49.13 49.13 0 0 1 .07 3.28z"/></g><path d="M506.7 235.5a369.62 369.62 0 0 0-42.48 4.93l-10.44 2.06c-3.44.64-6.9 1.61-10.35 2.41l-10.26 2.72-10.15 3.12a314.87 314.87 0 0 0-39.44 15.73 348.17 348.17 0 0 0-37.24 21 183.41 183.41 0 0 1 35.08-25.14A219.23 219.23 0 0 1 421.18 245l10.42-3.05c3.48-.96 7-1.82 10.55-2.6s7.1-1.4 10.65-2 7.16-1.07 10.74-1.52a190 190 0 0 1 43.16-.33z" fill="#fff"/><path d="M603.1 452.29a320.74 320.74 0 0 1 33.51-6.66L634 446a150.31 150.31 0 0 1 39.75-.48l-2.66-.36 9.82 1.41-2.66-.35a222.52 222.52 0 0 1 29.48 6.1c5 1.4 11.11-1.72 12.3-7a10.19 10.19 0 0 0-7-12.3 239.34 239.34 0 0 0-34.58-6.78l2.65.36a142.93 142.93 0 0 0-33.43-1.95 236.67 236.67 0 0 0-33.1 4.54c-5.61 1.14-11.19 2.44-16.76 3.81-5.08 1.25-8.61 7.26-7 12.3a10.21 10.21 0 0 0 12.3 7zm-341.84 49.93l14.13-1.48 33.67-3.52 40.94-4.29 35.18-3.69 17.16-1.79h.24c2.73-.28 5.07-.92 7.07-2.93a10 10 0 0 0 0-14.14c-1.83-1.69-4.48-3.2-7.07-2.93l-14.13 1.48-33.67 3.53-41 4.29-35.18 3.68-17.16 1.8h-.24c-2.73.29-5.07.93-7.07 2.93a10 10 0 0 0 0 14.15c1.83 1.68 4.48 3.2 7.07 2.92z" class="B"/><g transform="scale(1.12)" transform-origin="center center"><circle cx="491.44" cy="157.14" r="47.48" class="J"/><path d="M491.44 204.62a47.47 47.47 0 0 0 46.46-57.31c-30.78-4.77-62.7-2-93.77 6-.1 1.26-.17 2.53-.17 3.82a47.48 47.48 0 0 0 47.48 47.49z" fill="#67b7d6"/><circle cx="491.44" cy="157.14" r="47.48" class="C E F"/><use xlink:href="#E" class="J"/><g fill="#67b7d6"><path d="M246.8 365.63a254.67 254.67 0 0 0-6.54 57.5h83C321.7 342.47 301 275.11 406 193c-75.32 28.59-143.95 91.38-159.2 172.63z"/><path d="M258.18,321.12a109.41,109.41,0,0,0-8.57,33.51q-1.52,5.44-2.81,11a254.67,254.67,0,0,0-6.54,57.5H440.31a827.17,827.17,0,0,1,127.59,0H763.81a254.67,254.67,0,0,0-6.54-57.5q-1.29-5.55-2.81-11c-3.46-11.37-6.15-23.44-9.86-35C582.71,259.73,419,261,258.18,321.12Z"/></g><use xlink:href="#E" class="C D E F"/><use xlink:href="#F" class="J"/><path d="M751.33 443.71a43.58 43.58 0 0 1 1.35 9.9c.09 3.27-.11 6.52-.26 9.78l-.36 4.87-.52 4.85-1.59 9.61-7.87-1.41 1.64-9.45 1-4.71 1-4.7 2.22-9.4a53.94 53.94 0 0 1 3.39-9.34zm-1.42-101.24a175.32 175.32 0 0 1 3.63 19l1.09 9.59.66 9.63c.26 6.42.37 12.84.06 19.25a114.35 114.35 0 0 1-2.45 19.11c-1-6.39-1.67-12.7-2.32-19l-2.05-18.78-1.3-9.32-1.52-9.27c-1.07-6.17-2.3-12.29-3.59-18.41z" class="B"/><path d="M668.78 322c7.56 42.87 6.71 89.49 0 138.73m-70.59-153.12c5.15 42.9 4.57 89.55 0 138.83" class="C D E I"/><path d="M533.85 356.47a172.75 172.75 0 0 1 2.37 20.68c.4 6.9.52 13.8.65 20.71v10.36l-.12 10.35c-.15 6.9-.4 13.8-.87 20.69l-8-.4.94-20.59 1.21-20.57 1.35-20.6c.53-6.87 1.31-13.74 2.47-20.63zm2.08-56.59a58.54 58.54 0 0 1 .28 6.35l-.08 3.18-.13 3.19-.68 6.38a22.42 22.42 0 0 1-2.08 6.41 23.29 23.29 0 0 1-2.7-6.21c-.57-2.08-.93-4.16-1.31-6.25l-.49-3.12-.39-3.13a55 55 0 0 1-.35-6.29z" class="B"/><path d="M467.76 299.65v139m-64.38-132.47c-2.06 43-1.83 89.73 0 139.11" class="C D E I"/><path d="M333.37 391.65a161.31 161.31 0 0 1 2.71 16.78l1.65 16.75 1.51 16.73 1.25 16.74-8 .64c-.58-5.61-.93-11.24-1.18-16.87l-.28-8.46-.1-8.46c0-5.64.05-11.29.35-16.93a117.52 117.52 0 0 1 2.09-16.92zm7.11-71.47c-.25 3.65-.64 7.28-1.05 10.91l-.66 5.45-.72 5.45-1.6 10.93a67.39 67.39 0 0 1-2.8 10.92 55.71 55.71 0 0 1-2-11.14c-.3-3.72-.32-7.42-.38-11.14V336l.2-5.56c.2-3.71.49-7.41 1-11.09z" class="B"/><path d="M264.86,340.45c-6.86,43-6.09,89.85,0,139.3" class="C D E I"/><path d="M753.07,434.58a3.75,3.75,0,1,0-3.75-3.75,3.8,3.8,0,0,0,3.75,3.75Z" class="B"/><g class="D E"><path d="M758.28 341.38c10 42.84 8.85 89.43 0 138.64M681 320c7.56 42.87 6.71 89.49 0 138.74m-70.62-153.29c5.15 42.9 4.57 89.55 0 138.83m-66.32-146.46c2.74 42.92 2.44 89.61 0 138.92M479.8 297.16v139m-64.46-132.63c-2.06 43-1.83 89.73 0 139.11M348.41 317c-4.46 43-4 89.79 0 139.21m-71.67-118.57c-6.86 43-6.09 89.85 0 139.3" stroke="#67b7d6" class="I"/><use xlink:href="#F" class="C F"/></g><path d="M426.76 283.72a328.8 328.8 0 0 1 38.61-5.72l9.74-.78 9.75-.56 9.77-.3 9.77-.13c13 0 26.05.63 39 1.84a324.4 324.4 0 0 1 38.6 5.8l-38.88-1.13-38.75-.52h-9.68l-9.69.11-9.68.14-9.7.2-38.86 1.05z" class="B"/><path d="M347.31 233.83a183.71 183.71 0 0 1 22.38-15.33c7.78-4.62 15.81-8.84 24-12.66 2-1 4.13-1.86 6.2-2.78s4.13-1.86 6.24-2.67c4.22-1.65 8.4-3.38 12.7-4.8a217 217 0 0 1 26.06-7.5c-2.07.91-4.16 1.78-6.25 2.63s-4.19 1.64-6.25 2.56l-12.43 5.22-3.09 1.33c-1 .43-2.08.85-3.1 1.32l-6.15 2.73c-2.06.88-4.09 1.83-6.14 2.75l-6.1 2.83-6.1 2.83-6.05 3-12.05 6c-7.99 4.02-15.95 8.19-23.87 12.54z" fill="#fff"/></g><path d="M725 631.82a265.34 265.34 0 0 0 26.3-59.43c-17.24 35.74-49.84 65.46-92.11 65.46a106.75 106.75 0 0 1-106.61-106.63 105.67 105.67 0 0 1 7.83-40.22H758a105.33 105.33 0 0 1 7.62 33.39c.73-8 1.12-16.19 1.12-24.42a269.16 269.16 0 0 0-1.58-29H575h0-151.86 0-188.31a269.16 269.16 0 0 0-1.58 29c0 4.73.14 9.42.38 14.09A104.92 104.92 0 0 1 240.1 491h197.6a106.7 106.7 0 0 1-98.8 146.82c-38.8 0-68.82-25.83-87.48-56.89a266.14 266.14 0 0 0 24.76 52.84c19.39 12.07 38.25 24.05 62.72 24.05a126.78 126.78 0 0 0 126.63-126.6c0-1.81 0-3.61-.12-5.4 23.38-8.23 45.52-8.35 67.31-.36-.08 1.91-.14 3.83-.14 5.76a126.78 126.78 0 0 0 126.63 126.63c25.79 0 45.79-12.75 65.79-26.03zM535.26 505.18c-23.4-7.55-47.64-7.42-72.33.39A124.62 124.62 0 0 0 459 491h80.1a122.6 122.6 0 0 0-3.84 14.18z" opacity=".15"/><path d="M233.59 469.82l.41 50.2c0 64.41 40.48 116.63 104.9 116.63a116.68 116.68 0 0 0 105.3-166.83zm320.32 0a116.68 116.68 0 0 0 105.3 166.83c64.42 0 107.54-52.22 107.54-116.63 0-18-2.23-50.2-2.23-50.2z" opacity=".95" class="B"/><path d="M320,626.86,443.07,503.78a93.05,93.05,0,0,0-10-17.27L302.72,616.88A93.62,93.62,0,0,0,320,626.86Z" fill="#fff" opacity=".25"/><path d="M455.86,507.53c29.52-12,58.53-12.42,87,0" stroke-width="20" class="C D E"/><g fill="#fff"><path d="M274.28 504.75c2.06 6.51-5.94 11.51-11.94 12.51-6 0-10-4-12-9-1-5 0-10 4-13 5-2 12-4 16.44 1.12a11.7 11.7 0 0 1 3.5 8.37zm10.72-3.82c-.61 4.33-6.61 4.33-7.61.33 0-3 1-4 3.84-4.1a3.77 3.77 0 0 1 3.77 3.77z"/><path d="M645.19 618.92l106.28-106.28a93.89 93.89 0 0 0-2.41-11.22L634 616.51a94.31 94.31 0 0 0 11.19 2.41z" opacity=".25"/><path d="M590.68 505.73c2.06 6.51-5.94 11.51-11.94 12.51-6 0-10-4-12-9-1-5 0-10 4-13 5-2 12-4 16.45 1.12a11.69 11.69 0 0 1 3.49 8.37zm10.67-3.82c-.61 4.33-6.61 4.33-7.61.33 0-3 1-4 3.85-4.1a3.76 3.76 0 0 1 3.76 3.77z"/></g><g stroke-width="20" class="C D E"><path d="M233.59 469.82s-.34 31.69.41 50.2c2.6 64.36 40.48 116.63 104.9 116.63a116.68 116.68 0 0 0 105.3-166.83zm320.32 0a116.68 116.68 0 0 0 105.3 166.83c64.42 0 107.54-51.53 107.54-115.94 0-18-2.23-50.89-2.23-50.89z"/><path d="M423.14 469.81h151.83"/></g><defs ><path id="B" d="M501.71 209.52c-166.14 0-300.83 134.68-300.83 300.83v163.43c9.48 10.52 25.37 19.57 46 27.19l13.32-39.77 14.46 48.46c152.76 40.64 466.71 25.28 527.88-35.88V510.35c0-166.15-134.69-300.83-300.83-300.83z"/><path id="C" d="M233.25,500c0-147.32,119.43-266.75,266.75-266.75S766.75,352.68,766.75,500A266.22,266.22,0,0,1,668.1,707.12q-8.21,6.68-16.94,12.69C591,758,515,758,446.39,751.89c-6.66-1-13.3-2.26-19.89-3.71-26.33-5.8-51.82-14.75-75.37-27.8Q342.4,715,334.2,708.76a199.59,199.59,0,0,1-15.8-13.38q-7.14-6.63-13.79-13.78A265.86,265.86,0,0,1,233.25,500Z"/><path id="D" d="M710 667.66q-4.71 5.82-9.71 11.37c-2.5 2.77 2.58-1.12 9.71-11.37zm15-316.55C694.5 296.7 641.5 259.24 580.22 242l-6.35-1.71c-22.7-6.28-46.62-7-71.32-7-26.69 0-52.46 2.74-76.77 10l-4.26 1.27A283.11 283.11 0 0 0 332.67 294q-4.37 3.58-8.57 7.32c-28.34 23.69-50.34 53.69-65.47 87.9q-2.2 4.92-4.16 9.93a212.31 212.31 0 0 0-9.41 30.61C213 556.34 262.89 634 307.17 681.6c4.37 4.7-57.93-101.85-17.42-216 7.73-.29 20.24-.51 36.19-.67l15.5-50.61 17.44 50.38 93.88-.12 12.32-52.36L479 464.6l195.28.77 13.2-52.17 15 52.33 8.21.05C760.78 572 728.5 641.13 710 667.66A265.62 265.62 0 0 0 769.3 500c0-86.42-44.3-148.89-44.3-148.89z"/><path id="E" d="M240.26,423.13a254.67,254.67,0,0,1,6.54-57.5q1.29-5.55,2.81-11c2.9-32.3,20-58.94,42.86-82.73,4.76-3.81,5.71-12.37,10.47-17.13,16.18-14.27,30.45-28.55,48.53-40,74.22-47.58,172.23-73.27,251.21-29.5,16.17,8.56,34.25,13.32,47.57,24.74,25.7,21.88,43.77,47.58,69.47,68.51,22.83,19,26.64,49.48,34.74,76.07q1.53,5.44,2.81,11a254.67,254.67,0,0,1,6.54,57.5Z"/><path id="F" d="M225.35 356.43c183.42-78 371.14-79.06 555.94 0 17.53 7.5 17.43 139.87 0 133.81-180.47-62.83-371.33-63.5-555.94 0-21.96 7.55-19.82-125.38 0-133.81z"/></defs></svg>