<svg xmlns="http://www.w3.org/2000/svg" xmlns:xlink="http://www.w3.org/1999/xlink" viewBox="0 0 1000 990" xmlns:v="https://vecta.io/nano"><style><![CDATA[.B{stroke:#592d3d}.C{stroke-miterlimit:10}.D{fill:none}.E{fill:#592d3d}.F{fill:#edd494}.G{stroke-width:12}.H{fill:#fff}.I{fill:#fbe8b3}.J{stroke-linecap:round}]]></style><path d="M610,758.72c90.76,0,72,114.24,72.87,241.28H610Z" class="I"/><path d="M632.74 831.87L610 870l11.38 130h31.76c.77-180.27-20.4-168.13-20.4-168.13z" class="F"/><use xlink:href="#B" class="I"/><path d="M269.61 634.48l2.11 3.58 1.33 2.14 2 3.19 1.46 2.24 2 3 1.56 2.28 2 2.88 1.65 2.3 2 2.77 1.73 2.29 2.07 2.7 1.79 2.26 2.12 2.63 1.85 2.23 2.17 2.57 1.91 2.2 2.22 2.5 2 2.16 2.6 2.79 1.21 1.28 3.91 4 .26.27 3.91 3.81 1.58 1.5 2.86 2.66 1.16 1.06 3.14 2.78q4.9 4.27 10 8.19 8.19 6.24 16.93 11.62c23.55 13 49 22 75.37 27.8 6.59 1.45 13.23 2.7 19.89 3.71 42.1 3.75 87 5.18 129.28-3.08C508.45 729 185.59 612.74 388.8 257.48h0a249.02 249.02 0 0 0-8.06 3.88l-.59.29-3.65 1.88-1 .53a280.52 280.52 0 0 0-11.13 6.23l-.9.53-3.46 2.1-.87.54q-5.36 3.35-10.55 6.93l-1.08.75-3.23 2.29-.66.47q-3.27 2.39-6.46 4.84l-.62.48-3 2.39-1.17.94-3 2.45h0c-2.11 1.75-4.19 3.55-6.24 5.37l-1.14 1-2.69 2.45L318 305q-4.28 4-8.37 8.17l-1.38 1.41-2.36 2.47-1.37 1.48q-2.06 2.2-4.06 4.46c-.45.51-.91 1-1.36 1.54l-2.11 2.45-1.51 1.79-2 2.44-1.61 2-3.16 4-1.61 2.11-1.79 2.4-1.59 2.18-1.68 2.33q-1.42 2-2.8 4.05l-1.49 2.22-1.64 2.5-1.49 2.31-1.68 2.71-1.28 2.07-2.61 4.4-1.22 2.16-1.61 2.87-1.19 2.19-1.9 3.59-1.2 2.34-1.91 3.84-1 2.09-1.53 3.29-.91 2q-1.11 2.47-2.17 5l-.65 1.57-1.56 3.82-.79 2-1.45 3.8-.62 1.65q-.94 2.63-1.85 5.26l-.56 1.7q-.66 2-1.29 4l-.6 1.91-1.37 4.63-.29 1q-.78 2.76-1.5 5.54c-.16.59-.3 1.19-.45 1.78l-1 4.18-.42 1.75-1.24 5.71-.15.77q-.51 2.55-1 5.1l-.32 1.82-.74 4.5-.24 1.52-.83 5.88-.15 1.3-.55 4.79-.19 1.81-.45 5.06c0 .35-.06.69-.08 1q-.22 3-.39 6.05c0 .53 0 1.07-.07 1.6q-.1 2.36-.18 4.71v1.77l-.08 6.17v.1l.08 6.62c0 .76.06 1.52.08 2.28l.17 4.41c0 .89.11 1.77.16 2.66l.25 4 .24 2.83.34 3.77c.09 1 .21 1.94.31 2.91l.42 3.64.39 2.95.5 3.55.47 3 .57 3.49.55 3 .65 3.44.62 3 .74 3.4.68 2.93.82 3.36.74 2.91.91 3.34c.26 1 .53 1.92.81 2.87l1 3.31.88 2.84 1.06 3.28.94 2.8 1.15 3.27 1 2.74 1.24 3.27c.35.89.69 1.79 1 2.68l1.34 3.28 1.08 2.59 1.45 3.33 1.1 2.47 1.6 3.44 1.08 2.3 1.87 3.75.95 1.9q2.88 5.61 6 11.07l1.02 1.69z" class="F"/><use xlink:href="#B" class="B C D G"/><path d="M386.12,758.72c-90.77,0-72,114.24-72.87,241.28h72.87Z" class="I"/><path d="M367.23 831.87L390 870l-11.39 130h-31.73c-.81-180.27 20.35-168.13 20.35-168.13z" class="F"/><path d="M619.47,1070H380.53a13.28,13.28,0,0,1-13.27-13.28V772a13.28,13.28,0,0,1,13.27-13.28H613.76c13.09,0,19,7.66,19,19.88v278.08A13.28,13.28,0,0,1,619.47,1070Z" class="I"/><path d="M629.05 766.62a19.33 19.33 0 0 1-2.51-4 17.25 17.25 0 0 0-8.28-3.51 28.88 28.88 0 0 0-4.5-.34H380.53A13.28 13.28 0 0 0 367.26 772c29 10.42 83.29 16.24 132.74 16.24 63.06 0 104.38-9.35 129.05-21.62z" class="F"/><g class="B C D G"><path d="M610 758.72c90.76 0 72 114.24 72.87 241.28h-50.13M386.12 758.72c-90.77 0-72 114.24-72.87 241.28h50.07" stroke-linecap="square"/><path d="M380.53,758.82l233.23-.1"/></g><path d="M380.53,1070H497.15C388,1070,396.24,838.82,367.26,838.82v217.86A13.28,13.28,0,0,0,380.53,1070Z" class="F"/><path d="M361.26 860.85c-.19-3.67-.11-7.34.05-11s.47-7.35.86-11l.65-5.51c.25-1.84.49-3.67.85-5.51a44.18 44.18 0 0 1 3.59-11 44.18 44.18 0 0 1 3.59 11c.36 1.84.62 3.67.85 5.51l.65 5.51c.38 3.67.68 7.34.85 11s.25 7.34.06 11z" class="E"/><path d="M632.74 870v8 102.75 8.53 67.41a13.28 13.28 0 0 1-13.27 13.31H380.53a13.28 13.28 0 0 1-13.27-13.28v-58.2-137.67" class="B C D G"/><path d="M626.74 870c-.19-4.17-.1-8.35.06-12.53s.47-8.35.85-12.53l.65-6.27c.24-2.09.49-4.17.85-6.26a55.09 55.09 0 0 1 3.59-12.53 55.09 55.09 0 0 1 3.59 12.53c.36 2.09.62 4.18.85 6.26l.65 6.27c.38 4.18.69 8.35.85 12.53s.25 8.36.06 12.53zm-56.06-27.55C570.9 833 582.9 829 588.9 835a10.611 10.611 0 1 1-15.16 14.85 10.4 10.4 0 0 1-3.06-7.4zm-162.57-.3C407.9 834 416.9 830 422.9 833c8 3 8 14 0 19-4 2-8 0-11.75-2.48a10.39 10.39 0 0 1-3.04-7.37z" class="E"/><g class="F"><path d="M500 831.77a27.13 27.13 0 0 1 1.5 5.84 42.47 42.47 0 0 1 .49 5.84l.3 11.69.25 11.69.17 11.67.28 46.74v46.74l-.53 23.37c-.1 3.89-.29 7.79-.67 11.68a92.5 92.5 0 0 1-1.77 11.69 92.5 92.5 0 0 1-1.77-11.69c-.38-3.89-.57-7.79-.67-11.68l-.53-23.37v-46.74l.18-46.73.17-11.7.33-11.68.33-11.68a44.11 44.11 0 0 1 .5-5.84 27.13 27.13 0 0 1 1.44-5.84z"/><path d="M425.22 883a18.51 18.51 0 0 1 4.67-1.5 29.75 29.75 0 0 1 4.68-.5l9.35-.33 18.7-.41 37.38-.27h37.39l18.7.53 9.34.67a61.34 61.34 0 0 1 9.35 1.78 59.17 59.17 0 0 1-9.35 1.77l-9.34.67-18.7.52c-12.46.19-24.92 0-37.39 0s-24.93 0-37.4-.15c-6.23-.06-12.46-.26-18.68-.5l-9.35-.34a29.5 29.5 0 0 1-4.67-.5 18.45 18.45 0 0 1-4.68-1.44zm17.19 31.38a12.51 12.51 0 0 1 3.74-1.11 18.35 18.35 0 0 1 3.62-.15l7.17.21 14.34.17 28.76-.21c9.67-.29 19.26-.43 28.88-.39 4.81 0 9.62.13 14.42.24a70.37 70.37 0 0 1 7.23.47 38.17 38.17 0 0 1 7.27 1.53 36.56 36.56 0 0 1-7.16 2 61.08 61.08 0 0 1-7.21.86c-4.82.35-9.64.65-14.45.82-9.64.36-19.27.32-28.88.45-4.81 0-9.61.22-14.48.1l-14.52-.31c-4.83-.18-9.68-.58-14.5-1.08l-7.23-.9a16.82 16.82 0 0 1-3.57-.84 11.51 11.51 0 0 1-3.43-1.86zm-3.48 35.49a13.07 13.07 0 0 1 3.82-1.5 19.13 19.13 0 0 1 3.82-.49l7.63-.32 15.28-.41L500 947h30.54c5.09.09 10.18.3 15.27.53a72.73 72.73 0 0 1 7.63.66 41.2 41.2 0 0 1 7.66 1.81 41.25 41.25 0 0 1-7.63 1.77 70.34 70.34 0 0 1-7.64.67l-15.27.53c-10.18.2-20.37.06-30.55 0l-30.54-.25-15.28-.49-7.63-.37a19.33 19.33 0 0 1-3.82-.5 12.85 12.85 0 0 1-3.81-1.49z"/></g><path d="M613.76 758.16h-54.21v.1H589a175.21 175.21 0 0 1-2.12 27.22q-1 6.57-2.57 12.88a116.51 116.51 0 0 1-14.71 34.22 92 92 0 0 1-6.61 9c-37.06 37-95.95 39-131.74-1.19A98.26 98.26 0 0 1 420.8 825a124.07 124.07 0 0 1-13.4-39.48q-1-6.57-1.58-13.39c-.35-4.54-.54-9.15-.54-13.82h29.47v-.1h-54.22c.82 22.29-1.59 75.64-9.11 84.48l-4.16 213.48a13.27 13.27 0 0 0 13.27 13.27h238.94a13.27 13.27 0 0 0 13.27-13.27l-2.38-215.36c-9.75-.05-16.94-57.74-16.6-82.65z" class="H"/><path d="M632.74 831.31l-22.79 38.09 11.39 130.03h11.6V893.78l-.2-62.47zm-252.21 238.08h116.62c-109.2 0-100.91-231.14-129.89-231.14v217.87a13.27 13.27 0 0 0 13.27 13.27z" fill="#e2e2e2"/><path d="M361.26 860.4a63.71 63.71 0 0 1-.1-8.29q.19-4.15.71-8.31l.57-4.16.78-4.16a27.84 27.84 0 0 1 3.44-8.35 27.54 27.54 0 0 1 3.73 8.22c.39 1.38.68 2.76.93 4.13l.72 4.14 1 8.27a62 62 0 0 1 .21 8.29z" class="E"/><path d="M632.74 869.4v8 102.76 8.53 67.41a13.27 13.27 0 0 1-13.27 13.27H380.53a13.27 13.27 0 0 1-13.27-13.27V998q0-3.76 0-7.65V860.29" class="B C D G"/><path d="M626.76 869.38a65.79 65.79 0 0 1 .65-8.53q.57-4.25 1.46-8.47l.94-4.22 1.15-4.21a29.21 29.21 0 0 1 4.18-8.28 28.9 28.9 0 0 1 3 8.78c.26 1.45.42 2.89.55 4.33l.35 4.31.25 8.59a67.65 67.65 0 0 1-.54 8.54z" class="E"/><path d="M368.1 833c21.58-5.27 12.43-74.73 12.43-74.73l233.23-.1s3.93 76.62 19.18 82.92M589 758.26a175.22 175.22 0 0 1-2.11 27.22q-1 6.57-2.57 12.88a116.51 116.51 0 0 1-14.71 34.22 92 92 0 0 1-6.61 9c-37.06 37-95.95 39-131.74-1.19A98.26 98.26 0 0 1 420.8 825a124.07 124.07 0 0 1-13.4-39.48q-1-6.57-1.58-13.39c-.35-4.54-.54-9.15-.54-13.82" class="B C D G"/><g fill-rule="evenodd"><path d="M490.59 889c-4.7 2.37-14.62 7-20 10.65s-4.7 7.1-7.05 9.47-9.4 8.28-14.1 11.83-3.53 13-4.7 16.56-3.53 11.83-4.71 15.38 2.35 8.28 4.71 13 8.22 17.74 10.57 22.48 9.41 2.36 15.28 7.09a206.67 206.67 0 0 0 20 14.2c5.87 3.55 8.23 3.55 14.1 0a205.35 205.35 0 0 0 20-14.2c5.88-4.73 12.93-2.36 15.29-7.09s8.22-17.75 10.57-22.48 5.88-9.47 4.71-13-3.53-11.83-4.71-15.38 0-13-4.7-16.56a174 174 0 0 1-14.1-11.83c-4-3.77-2.35-5.92-7.06-9.47s-15.28-8.28-20-10.65a14.93 14.93 0 0 0-14.1 0z" class="H"/><path d="M474 909.46l22 15a3.14 3.14 0 0 0 1.68.52 3 3 0 0 0 1.67-.52l22-15.07a3 3 0 0 0-.41-5.13l-22-10.9a3.05 3.05 0 0 0-2.64 0l-21.94 10.9a3 3 0 0 0-.36 5.18zm31.14 19.73a3 3 0 0 0 1.3 2.49l17.64 12.06a3 3 0 0 0 3.66-.24l14.79-13.23a3 3 0 0 0-.13-4.6l-14.12-11.29a3 3 0 0 0-3.55-.14l-18.29 12.51a3 3 0 0 0-1.31 2.44zm-43.87 16.4a3 3 0 0 1-.49 4.83l-10.53 6.31a3 3 0 0 1-4.39-3.5l3.9-12.25a3 3 0 0 1 2.05-2 2.92 2.92 0 0 1 2.78.66zm57.13 1.28l-19.05-13a3 3 0 0 0-3.34 0l-19 13a3 3 0 0 0-1.3 2.29 3.13 3.13 0 0 0 1 2.46l19 17a2.94 2.94 0 0 0 2 .75 3 3 0 0 0 2-.75l19-17a3 3 0 0 0-.32-4.75zm-50.8-3.37l-14.78-13.23a3.07 3.07 0 0 1-1-2.37 3 3 0 0 1 1.12-2.28l14.12-11.36a3 3 0 0 1 3.57-.13l18.27 12.5a3.05 3.05 0 0 1 1.36 2.53 3 3 0 0 1-1.36 2.52l-17.62 12.06a3 3 0 0 1-3.68-.24zm75.88 19l-15.05-9a3 3 0 0 0-3.51.34l-18.39 16.41a3 3 0 0 0 .87 5l25.51 10.34a3 3 0 0 0 3.85-1.57l7.9-17.71a3 3 0 0 0-1.18-3.8zm2.09-21.5l3.89 12.25h0a3 3 0 0 1-2.86 3.93 2.91 2.91 0 0 1-1.52-.43l-10.55-6.31a2.93 2.93 0 0 1-1.44-2.29 3 3 0 0 1 1-2.54l6.69-6a3 3 0 0 1 2.77-.66 3 3 0 0 1 2.02 2.05zm-55.8 32a3 3 0 0 0-1-2.76l-18.39-16.41a3 3 0 0 0-3.51-.34l-15 9a3.05 3.05 0 0 0-1.2 3.84l7.92 17.71a3 3 0 0 0 3.84 1.56l25.5-10.33a3 3 0 0 0 1.84-2.27zm9 5l20.46 8.29a3 3 0 0 1 .54 5.27l-20.48 14.22a2.94 2.94 0 0 1-1.67.54 3 3 0 0 1-1.67-.54l-20.46-14.22a3 3 0 0 1 .58-5.27l20.46-8.29a3.09 3.09 0 0 1 2.26.06z" fill="#c04927"/></g><path d="M271.4 576.82c-1-28.36 18-52.36 43.28-63.56a62.37 62.37 0 0 1 8.16-2.7 70 70 0 0 1 42.21 2.68 71.67 71.67 0 0 1 8.95 4.16c29.53 15.88 42.79 53.25 31.36 83.46a61.68 61.68 0 0 1-4.18 8.82 54.68 54.68 0 0 1-17.51 20.83 69.25 69.25 0 0 1-7.85 5c-27.38 13-64.38 9-86.45-11.4a69.35 69.35 0 0 1-6.11-7.47 64.89 64.89 0 0 1-5.57-9.5 55.78 55.78 0 0 1-5.69-21.75 75.67 75.67 0 0 1-.6-8.57z" class="F"/><path d="M269.77 558.47c-1-28.36 18-52.36 43.28-63.56a62.23 62.23 0 0 1 8.15-2.7 70 70 0 0 1 42.22 2.68 71.54 71.54 0 0 1 8.92 4.16c29.53 15.89 42.79 53.25 31.36 83.46a59.6 59.6 0 0 1-4.18 8.82 63.85 63.85 0 0 1-4.71 7.8 64.78 64.78 0 0 1-5.68 7 63.08 63.08 0 0 1-7.12 6.07 68.37 68.37 0 0 1-7.85 5c-27.38 13-64.38 9-86.44-11.4a67.24 67.24 0 0 1-6.11-7.47 65 65 0 0 1-5.58-9.5 55.59 55.59 0 0 1-5.71-21.83 71.3 71.3 0 0 1-.55-8.53z" class="B C G H"/><circle cx="338.51" cy="559.08" r="12.24" class="E"/><path stroke-width="16" d="M715.03 559.08H603.4" class="B C D J"/><path d="M627,574.16a114.14,114.14,0,0,1,13.07-1.56c4.36-.3,8.72-.43,13.08-.44s8.71.14,13.07.43a114.34,114.34,0,0,1,13.08,1.57,112.18,112.18,0,0,1-13.08,1.58q-6.54.43-13.07.42t-13.08-.43A112,112,0,0,1,627,574.16Z" class="E"/><path d="M446.66 606.02h95.87" class="B C D G J"/><path d="M558.73,399.34c-12.86,24-60,37.44-63.83,31.42-4.29-6.73,37.85-55.32,13.9-106.14" class="F"/><use xlink:href="#C" fill="#85c5e5"/><path d="M726.85 348.62c-5.4.24-10.66.11-16-.14s-10.59-.67-15.87-1.26c-2.64-.29-5.28-.6-7.91-1s-5.27-.72-7.89-1.23a76.91 76.91 0 0 1-15.58-4.54 91.87 91.87 0 0 1 16-2.62c2.63-.22 5.26-.37 7.89-.48l7.88-.34 15.72-.45c5.23-.11 10.48-.12 15.62 0zM236.6 430v.39l-.12.53-.28 1.11-.66 2.29-1.54 4.75-1.77 5a20.6 20.6 0 0 1-1.38 2.6 17.91 17.91 0 0 1-2.07 2.77 13.14 13.14 0 0 1-3.72-5.47 16.11 16.11 0 0 1-.76-2.9c-.21-1-.31-2-.43-2.95a30 30 0 0 1 0-6 24.44 24.44 0 0 1 .48-3l.41-1.51a7.84 7.84 0 0 1 .27-.77l.36-.9z" class="E"/><path d="M260.74 460.82v-.06c17-.56 38.63-1.9 62.14-4.84 2.63-55.92 22-121.58 65.92-198.44h0l-6.8-3.25a282.15 282.15 0 0 0-150.84 173.08c-13.86 11.92-26.86 20.34-27 25.69-.27 9.92 39.31 9.36 56.58 7.82z" fill="#67b7d6"/><use xlink:href="#C" class="B C D G"/><path d="M505.93 244.31a367.42 367.42 0 0 0-42.48 4.94l-10.44 2.05c-3.49.64-6.9 1.61-10.35 2.41l-10.26 2.72-10.15 3.12a314.12 314.12 0 0 0-39.43 15.73 348.31 348.31 0 0 0-37.25 21 183.85 183.85 0 0 1 35.08-25.14 219.23 219.23 0 0 1 39.76-17.29l10.42-3.05c3.48-.96 7-1.82 10.55-2.6s7.1-1.4 10.66-2 7.15-1.07 10.73-1.52a190 190 0 0 1 43.16-.37z" class="H"/><path d="M600.89 460.57a318.14 318.14 0 0 1 33.51-6.65l-2.66.35c13.18-1.74 26.54-2.25 39.75-.48l-2.66-.36 9.82 1.42-2.66-.36a221 221 0 0 1 29.48 6.11c5 1.39 11.1-1.73 12.3-7a10.19 10.19 0 0 0-7-12.3 239.21 239.21 0 0 0-34.59-6.78l2.66.36a143 143 0 0 0-33.44-1.95 235.08 235.08 0 0 0-33.09 4.55c-5.62 1.13-11.2 2.43-16.76 3.8-5.08 1.25-8.62 7.26-7 12.3a10.19 10.19 0 0 0 12.3 7zm-314.75.03a202.56 202.56 0 0 1 29.25-6.19l-2.66.36a195.53 195.53 0 0 1 51.38.08l-2.66-.35a218.94 218.94 0 0 1 29.45 6.1c5 1.4 11.1-1.73 12.3-7a10.19 10.19 0 0 0-7-12.3 227.26 227.26 0 0 0-44.2-7.7 208.27 208.27 0 0 0-71.22 7.71 10.39 10.39 0 0 0-6 4.6 10.2 10.2 0 0 0-1 7.7c1.65 5.11 6.91 8.54 12.3 7z" class="E"/><path d="M725 631.82a265.34 265.34 0 0 0 26.3-59.43c-17.24 35.74-49.84 65.46-92.11 65.46a106.75 106.75 0 0 1-106.61-106.63 105.67 105.67 0 0 1 7.83-40.22H758a105.33 105.33 0 0 1 7.62 33.39c.73-8 1.12-16.19 1.12-24.42a269.16 269.16 0 0 0-1.58-29H575h0-151.86 0-188.31a269.16 269.16 0 0 0-1.58 29c0 4.73.14 9.42.38 14.09A104.92 104.92 0 0 1 240.1 491h197.6a106.7 106.7 0 0 1-98.8 146.82c-38.8 0-68.82-25.83-87.48-56.89a266.14 266.14 0 0 0 24.76 52.84c19.39 12.07 38.25 24.05 62.72 24.05a126.78 126.78 0 0 0 126.63-126.6c0-1.81 0-3.61-.12-5.4 23.38-8.23 45.52-8.35 67.31-.36-.08 1.91-.14 3.83-.14 5.76a126.78 126.78 0 0 0 126.63 126.63c25.79 0 45.79-12.75 65.79-26.03zM535.26 505.18c-23.4-7.55-47.64-7.42-72.33.39A124.62 124.62 0 0 0 459 491h80.1a122.6 122.6 0 0 0-3.84 14.18z" opacity=".15"/><path d="M233.59 469.82l.41 50.2c0 64.41 40.48 116.63 104.9 116.63a116.68 116.68 0 0 0 105.3-166.83zm320.32 0a116.68 116.68 0 0 0 105.3 166.83c64.42 0 107.54-52.22 107.54-116.63 0-18-2.23-50.2-2.23-50.2z" opacity=".95" class="E"/><path d="M320,626.86,443.07,503.78a93.05,93.05,0,0,0-10-17.27L302.72,616.88A93.62,93.62,0,0,0,320,626.86Z" opacity=".25" class="H"/><path d="M455.86,507.53c29.52-12,58.53-12.42,87,0" stroke-width="20" class="B C D"/><g class="H"><path d="M274.28 504.75c2.06 6.51-5.94 11.51-11.94 12.51-6 0-10-4-12-9-1-5 0-10 4-13 5-2 12-4 16.44 1.12a11.7 11.7 0 0 1 3.5 8.37zm10.72-3.82c-.61 4.33-6.61 4.33-7.61.33 0-3 1-4 3.84-4.1a3.77 3.77 0 0 1 3.77 3.77z"/><path d="M645.19 618.92l106.28-106.28a93.89 93.89 0 0 0-2.41-11.22L634 616.51a94.31 94.31 0 0 0 11.19 2.41z" opacity=".25"/><path d="M590.68 505.73c2.06 6.51-5.94 11.51-11.94 12.51-6 0-10-4-12-9-1-5 0-10 4-13 5-2 12-4 16.45 1.12a11.69 11.69 0 0 1 3.49 8.37zm10.67-3.82c-.61 4.33-6.61 4.33-7.61.33 0-3 1-4 3.85-4.1a3.76 3.76 0 0 1 3.76 3.77z"/></g><g stroke-width="20" class="B C D"><path d="M233.59 469.82s-.34 31.69.41 50.2c2.6 64.36 40.48 116.63 104.9 116.63a116.68 116.68 0 0 0 105.3-166.83zm320.32 0a116.68 116.68 0 0 0 105.3 166.83c64.42 0 107.54-51.53 107.54-115.94 0-18-2.23-50.89-2.23-50.89z"/><path d="M423.14 469.81h151.83"/></g><defs ><path id="B" d="M233.25,500c0-147.32,119.43-266.75,266.75-266.75S766.75,352.68,766.75,500A266.22,266.22,0,0,1,668.1,707.12q-8.21,6.68-16.94,12.69C591,758,515,758,446.39,751.89c-6.66-1-13.3-2.26-19.89-3.71-26.33-5.8-51.82-14.75-75.37-27.8Q342.4,715,334.2,708.76a199.59,199.59,0,0,1-15.8-13.38q-7.14-6.63-13.79-13.78A265.86,265.86,0,0,1,233.25,500Z"/><path id="C" d="M784 342.85c-5.1-5.1-31.06 1.83-57.19-.23a281 281 0 0 0-221.18-114.34c-2.44-20.48-.75-37.68-2.61-40.1-2.49-3.22-15.49 12.68-18.87 31-11.91-15-32.14-23-32.72-18.8-.38 2.68 7.44 14.09 14.81 29.9-111.6 13.47-203.08 92.26-235.08 197-13.86 11.92-26.86 20.34-27 25.69-.27 9.92 39.31 9.36 56.58 7.82v-.06c60.65-2 179-13.78 236.42-72.89-5.52 19.09-15.69 33.16-13.73 36.16 3 4.67 38.32-5.19 50.07-23.24 48 19.59 139.49 43.16 219-16.16l-.22-.43c14.49-12.11 38.07-34.92 31.72-41.32z"/></defs></svg>