<svg xmlns="http://www.w3.org/2000/svg" xmlns:xlink="http://www.w3.org/1999/xlink" viewBox="0 0 1000 990" xmlns:v="https://vecta.io/nano"><style><![CDATA[.B{stroke:#592d3d}.C{stroke-width:12}.D{stroke-miterlimit:10}.E{fill:none}.F{fill:#592d3d}.G{fill:#f3ab98}.H{fill:#fdd2b2}.I{fill:#fff}.J{fill:#fedc58}]]></style><path d="M501.71 209.52c-166.14 0-300.83 134.68-300.83 300.83v306.43c0 166.14 134.69 300.83 300.83 300.83s300.83-134.69 300.83-300.83V510.35c0-166.15-134.69-300.83-300.83-300.83z" class="B C D J"/><path d="M610,758.72c90.76,0,72,114.24,72.87,241.28H610Z" class="H"/><path d="M632.74 831.87L610 870l11.38 130h31.76c.77-180.27-20.4-168.13-20.4-168.13z" class="G"/><use xlink:href="#B" class="H"/><path d="M269.61 634.48l2.11 3.58 1.33 2.14 2 3.19 1.46 2.24 2 3 1.56 2.28 2 2.88 1.65 2.3 2 2.77 1.73 2.29 2.07 2.7 1.79 2.26 2.12 2.63 1.85 2.23 2.17 2.57 1.91 2.2 2.22 2.5 2 2.16 2.6 2.79 1.21 1.28 3.91 4 .26.27 3.91 3.81 1.58 1.5 2.86 2.66 1.16 1.06 3.14 2.78q4.9 4.27 10 8.19 8.19 6.24 16.93 11.62c23.55 13 49 22 75.37 27.8 6.59 1.45 13.23 2.7 19.89 3.71 42.1 3.75 87 5.18 129.28-3.08C508.45 729 185.59 612.74 388.8 257.48h0a249.02 249.02 0 0 0-8.06 3.88l-.59.29-3.65 1.88-1 .53a280.52 280.52 0 0 0-11.13 6.23l-.9.53-3.46 2.1-.87.54q-5.36 3.35-10.55 6.93l-1.08.75-3.23 2.29-.66.47q-3.27 2.39-6.46 4.84l-.62.48-3 2.39-1.17.94-3 2.45h0c-2.11 1.75-4.19 3.55-6.24 5.37l-1.14 1-2.69 2.45L318 305q-4.28 4-8.37 8.17l-1.38 1.41-2.36 2.47-1.37 1.48q-2.06 2.2-4.06 4.46c-.45.51-.91 1-1.36 1.54l-2.11 2.45-1.51 1.79-2 2.44-1.61 2-3.16 4-1.61 2.11-1.79 2.4-1.59 2.18-1.68 2.33q-1.42 2-2.8 4.05l-1.49 2.22-1.64 2.5-1.49 2.31-1.68 2.71-1.28 2.07-2.61 4.4-1.22 2.16-1.61 2.87-1.19 2.19-1.9 3.59-1.2 2.34-1.91 3.84-1 2.09-1.53 3.29-.91 2q-1.11 2.47-2.17 5l-.65 1.57-1.56 3.82-.79 2-1.45 3.8-.62 1.65q-.94 2.63-1.85 5.26l-.56 1.7q-.66 2-1.29 4l-.6 1.91-1.37 4.63-.29 1q-.78 2.76-1.5 5.54c-.16.59-.3 1.19-.45 1.78l-1 4.18-.42 1.75-1.24 5.71-.15.77q-.51 2.55-1 5.1l-.32 1.82-.74 4.5-.24 1.52-.83 5.88-.15 1.3-.55 4.79-.19 1.81-.45 5.06c0 .35-.06.69-.08 1q-.22 3-.39 6.05c0 .53 0 1.07-.07 1.6q-.1 2.36-.18 4.71v1.77l-.08 6.17v.1l.08 6.62c0 .76.06 1.52.08 2.28l.17 4.41c0 .89.11 1.77.16 2.66l.25 4 .24 2.83.34 3.77c.09 1 .21 1.94.31 2.91l.42 3.64.39 2.95.5 3.55.47 3 .57 3.49.55 3 .65 3.44.62 3 .74 3.4.68 2.93.82 3.36.74 2.91.91 3.34c.26 1 .53 1.92.81 2.87l1 3.31.88 2.84 1.06 3.28.94 2.8 1.15 3.27 1 2.74 1.24 3.27c.35.89.69 1.79 1 2.68l1.34 3.28 1.08 2.59 1.45 3.33 1.1 2.47 1.6 3.44 1.08 2.3 1.87 3.75.95 1.9q2.88 5.61 6 11.07l1.02 1.69z" class="G"/><use xlink:href="#B" class="B C D E"/><path d="M386.12,758.72c-90.77,0-72,114.24-72.87,241.28h72.87Z" class="H"/><path d="M367.23 831.87L390 870l-11.39 130h-31.73c-.81-180.27 20.35-168.13 20.35-168.13z" class="G"/><path d="M619.47,1070H380.53a13.28,13.28,0,0,1-13.27-13.28V772a13.28,13.28,0,0,1,13.27-13.28H613.76c13.09,0,19,7.66,19,19.88v278.08A13.28,13.28,0,0,1,619.47,1070Z" class="H"/><path d="M629.05 766.62a19.33 19.33 0 0 1-2.51-4 17.25 17.25 0 0 0-8.28-3.51 28.88 28.88 0 0 0-4.5-.34H380.53A13.28 13.28 0 0 0 367.26 772c29 10.42 83.29 16.24 132.74 16.24 63.06 0 104.38-9.35 129.05-21.62z" class="G"/><g class="B C D E"><path d="M610 758.72c90.76 0 72 114.24 72.87 241.28h-50.13M386.12 758.72c-90.77 0-72 114.24-72.87 241.28h50.07" stroke-linecap="square"/><path d="M380.53,758.82l233.23-.1"/></g><path d="M380.53,1070H497.15C388,1070,396.24,838.82,367.26,838.82v217.86A13.28,13.28,0,0,0,380.53,1070Z" class="G"/><path d="M361.26 860.85c-.19-3.67-.11-7.34.05-11s.47-7.35.86-11l.65-5.51c.25-1.84.49-3.67.85-5.51a44.18 44.18 0 0 1 3.59-11 44.18 44.18 0 0 1 3.59 11c.36 1.84.62 3.67.85 5.51l.65 5.51c.38 3.67.68 7.34.85 11s.25 7.34.06 11z" class="F"/><path d="M632.74 870v8 102.75 8.53 67.41a13.28 13.28 0 0 1-13.27 13.31H380.53a13.28 13.28 0 0 1-13.27-13.28v-58.2-137.67" class="B C D E"/><path d="M626.74 870c-.19-4.17-.1-8.35.06-12.53s.47-8.35.85-12.53l.65-6.27c.24-2.09.49-4.17.85-6.26a55.09 55.09 0 0 1 3.59-12.53 55.09 55.09 0 0 1 3.59 12.53c.36 2.09.62 4.18.85 6.26l.65 6.27c.38 4.18.69 8.35.85 12.53s.25 8.36.06 12.53zm-56.06-27.55C570.9 833 582.9 829 588.9 835a10.611 10.611 0 1 1-15.16 14.85 10.4 10.4 0 0 1-3.06-7.4zm-162.57-.3C407.9 834 416.9 830 422.9 833c8 3 8 14 0 19-4 2-8 0-11.75-2.48a10.39 10.39 0 0 1-3.04-7.37z" class="F"/><g class="G"><path d="M500 831.77a27.13 27.13 0 0 1 1.5 5.84 42.47 42.47 0 0 1 .49 5.84l.3 11.69.25 11.69.17 11.67.28 46.74v46.74l-.53 23.37c-.1 3.89-.29 7.79-.67 11.68a92.5 92.5 0 0 1-1.77 11.69 92.5 92.5 0 0 1-1.77-11.69c-.38-3.89-.57-7.79-.67-11.68l-.53-23.37v-46.74l.18-46.73.17-11.7.33-11.68.33-11.68a44.11 44.11 0 0 1 .5-5.84 27.13 27.13 0 0 1 1.44-5.84z"/><path d="M425.22 883a18.51 18.51 0 0 1 4.67-1.5 29.75 29.75 0 0 1 4.68-.5l9.35-.33 18.7-.41 37.38-.27h37.39l18.7.53 9.34.67a61.34 61.34 0 0 1 9.35 1.78 59.17 59.17 0 0 1-9.35 1.77l-9.34.67-18.7.52c-12.46.19-24.92 0-37.39 0s-24.93 0-37.4-.15c-6.23-.06-12.46-.26-18.68-.5l-9.35-.34a29.5 29.5 0 0 1-4.67-.5 18.45 18.45 0 0 1-4.68-1.44zm17.19 31.38a12.51 12.51 0 0 1 3.74-1.11 18.35 18.35 0 0 1 3.62-.15l7.17.21 14.34.17 28.76-.21c9.67-.29 19.26-.43 28.88-.39 4.81 0 9.62.13 14.42.24a70.37 70.37 0 0 1 7.23.47 38.17 38.17 0 0 1 7.27 1.53 36.56 36.56 0 0 1-7.16 2 61.08 61.08 0 0 1-7.21.86c-4.82.35-9.64.65-14.45.82-9.64.36-19.27.32-28.88.45-4.81 0-9.61.22-14.48.1l-14.52-.31c-4.83-.18-9.68-.58-14.5-1.08l-7.23-.9a16.82 16.82 0 0 1-3.57-.84 11.51 11.51 0 0 1-3.43-1.86zm-3.48 35.49a13.07 13.07 0 0 1 3.82-1.5 19.13 19.13 0 0 1 3.82-.49l7.63-.32 15.28-.41L500 947h30.54c5.09.09 10.18.3 15.27.53a72.73 72.73 0 0 1 7.63.66 41.2 41.2 0 0 1 7.66 1.81 41.25 41.25 0 0 1-7.63 1.77 70.34 70.34 0 0 1-7.64.67l-15.27.53c-10.18.2-20.37.06-30.55 0l-30.54-.25-15.28-.49-7.63-.37a19.33 19.33 0 0 1-3.82-.5 12.85 12.85 0 0 1-3.81-1.49zM271.4 568.53c-1-28.36 18-52.36 43.28-63.56a62.37 62.37 0 0 1 8.16-2.7 70 70 0 0 1 42.21 2.73 71.67 71.67 0 0 1 8.93 4.16c29.53 15.89 42.79 53.25 31.36 83.46a61.68 61.68 0 0 1-4.18 8.82 54.68 54.68 0 0 1-17.51 20.83 69.25 69.25 0 0 1-7.85 5c-27.38 13-64.38 9-86.45-11.4a68.39 68.39 0 0 1-6.11-7.47 64.89 64.89 0 0 1-5.57-9.5 55.78 55.78 0 0 1-5.67-21.8 75.67 75.67 0 0 1-.6-8.57z"/></g><use xlink:href="#C" class="I"/><circle cx="338.51" cy="541.79" r="12.24" class="F"/><g class="B D"><path d="M399.52 583a59.6 59.6 0 0 0 4.18-8.82 62.5 62.5 0 0 0 2.57-8.64c-68.32-7.75-127 20.81-127 20.81l1.1 1.75 1.25 1.84a68.28 68.28 0 0 0 6.11 7.48c22.06 20.36 59.06 24.36 86.44 11.39a68.37 68.37 0 0 0 7.85-5 63.08 63.08 0 0 0 7.12-6.07 64.78 64.78 0 0 0 5.68-7 63.85 63.85 0 0 0 4.7-7.74z" stroke-width="6" class="H"/><use xlink:href="#C" class="C E"/></g><path d="M583.89 560.47c.43-15.13 6.67-30.09 15.1-41.33a72.82 72.82 0 0 1 7.12-8.53 69.73 69.73 0 0 1 90.17-8.95 73.27 73.27 0 0 1 6.53 5.13c27 21.45 30.12 63.14 15.32 93.23a62.31 62.31 0 0 1-4.78 6.86 72.09 72.09 0 0 1-7.58 8.13c-20.27 17.83-51.81 22.13-77.41 12.42a71.34 71.34 0 0 1-10.55-5c-17.9-10.78-30.37-31.09-33.43-52.23a62.93 62.93 0 0 1-.49-9.73z" class="H"/><path d="M589.38 549c.42-14.15 6.42-28.15 14.52-38.66a70.56 70.56 0 0 1 6.86-8 68.55 68.55 0 0 1 86.77-8.34 69.81 69.81 0 0 1 6.28 4.79c26 20.07 29 59.07 14.74 87.22a56.5 56.5 0 0 1-4.6 6.42 68.91 68.91 0 0 1-7.29 7.6c-19.51 16.68-49.86 20.71-74.49 11.62A68.79 68.79 0 0 1 622 606.9c-17.22-10.08-29.22-29.08-32.17-48.85a56.34 56.34 0 0 1-.45-9.05z" class="B C D I"/><g class="F"><circle cx="659.21" cy="550.79" r="12.24"/><path d="M718.86 618.11c-10.23 5-20.32 9.55-31.34 12.69a97.34 97.34 0 0 1-16.46 3.3 141.1 141.1 0 0 1-17.69.3 144.2 144.2 0 0 1-20.37-1.92c-1.93-.31-4.13.51-4.62 2.62-.41 1.81.55 4.28 2.62 4.62a164.26 164.26 0 0 0 19.66 2.1c3.19.13 6.37.06 9.56.16a78.25 78.25 0 0 0 9.06-.21c12-1 23.62-4.28 34.76-8.76 6.32-2.55 12.52-5.4 18.63-8.42a3.77 3.77 0 0 0 1.34-5.13 3.83 3.83 0 0 0-5.13-1.35zm-353.55 9.31c-11.37 2.16-22.4 3.8-34.06 3.83a95.68 95.68 0 0 1-17-1.36 171.78 171.78 0 0 1-35.56-11.64 3.85 3.85 0 0 0-5.13 1.35c-.95 1.62-.5 4.27 1.34 5.13a164.42 164.42 0 0 0 17.87 7.1c2.91 1 5.87 1.7 8.78 2.6a91.22 91.22 0 0 0 8.91 2.35c11.95 2.42 24.22 2.37 36.31 1 6.88-.76 13.71-1.88 20.51-3.17 2-.37 3.12-2.77 2.62-4.61a3.83 3.83 0 0 0-4.62-2.62z"/></g><path d="M558.55,642.44c-3.63,0-5.35-1.31-15.58-10.79-7.49-6.93-12.63-10.36-18.91-11.46-7.83-1.37-15.83-.88-24.36,7.68-8.53-8.56-16.52-9-24.36-7.68-6.28,1.1-11.42,4.53-18.91,11.46-10.23,9.48-11.95,10.79-15.58,10.79a1.84,1.84,0,0,0-1.3,3.14q26.25,26.25,60.15,26.28t60.15-26.28A1.84,1.84,0,0,0,558.55,642.44Z" fill="#d69ac7"/><path d="M559.57 645.84l-.55-2.21c-70.56 16.12-118.17.53-118.17.53l-1.77-.31a1.82 1.82 0 0 0 .47 1.73q26.25 26.25 60.15 26.28 33.68 0 59.87-26.02z" fill="#c683b4"/><path d="M479.28 650.39c13.45-.94 26.69-1.44 39.89-3 6.59-.76 13.15-1.74 19.67-2.86s13-2.41 19.51-3.8l1.34 5.85q-9.87 2.34-19.92 3.81-10.05 1.47-20.16 2.06c-6.75.37-13.5.54-20.25.27a127.84 127.84 0 0 1-20.08-2.33zm-37.49-9.08l5.38 1.48 5.49 1.63 5.52 1.77a27.06 27.06 0 0 1 5.46 2.64 22.06 22.06 0 0 1-6.05.9c-2 0-3.95-.16-5.93-.32s-3.93-.47-5.88-.85a38.82 38.82 0 0 1-5.86-1.55z" class="F"/><path d="M558.55,642.44c-3.63,0-5.35-1.31-15.58-10.79-7.49-6.93-12.53-11.29-18.91-11.46-11.21-.3-19.15,6.12-24.76,6.12s-10.45-7.53-24-6.12c-6.34.66-11.42,4.53-18.91,11.46-10.23,9.48-11.95,10.79-15.58,10.79a1.84,1.84,0,0,0-1.3,3.14q26.25,26.25,60.15,26.28t60.15-26.28A1.84,1.84,0,0,0,558.55,642.44Z" stroke-width="8" class="B D E"/><path d="M524.06 626.48a41.49 41.49 0 0 0-12.19 2.94l-5.85 2.42a20.2 20.2 0 0 1-6.42 1.74 8.92 8.92 0 0 1-3.47-.64 24 24 0 0 1-3-1.4 59.7 59.7 0 0 0-5.58-2.83 27.56 27.56 0 0 0-5.94-1.73 38.5 38.5 0 0 0-6.29-.5 26.31 26.31 0 0 1 6.4-.48 24.54 24.54 0 0 1 6.38 1.25 46 46 0 0 1 5.9 2.6c1.87.94 3.71 1.83 5.52 1.74a19.76 19.76 0 0 0 5.8-1.51l6-2.13a30 30 0 0 1 12.74-1.47z" class="I"/><path d="M472.62,652.36c3.22,0,3.23-5,0-5s-3.22,5,0,5Z" class="F"/><path d="M289.63,652.2q6.38,8,13.32,15.47,6.76,7.26,14,14a204.78,204.78,0,0,0,16.07,13.62q8.34,6.34,17.24,11.82c24,13.28,49.91,22.39,76.71,28.3,6.7,1.47,13.46,2.74,20.24,3.77,69.83,6.22,147.18,6.22,208.41-32.65q8.88-6.12,17.25-12.91c15.56-12.65,28-26.65,40.9-44.33-83.93,0-138.94-94.73-207.41-94.73S367.92,652.2,289.63,652.2Z" class="G"/><use xlink:href="#D" fill="#633749" class="B C D"/><path d="M453.37 752.49l5.5.43 1.32.1 4.72.33 1.29.09 5.18.33 2 .12 5 .26 2.16.1 3.35.15 2.56.1 4.46.14 3 .08h2.41l5.19.08h1.91q5.58 0 11.16-.06h1.1l7.3-.2h.28q6-.23 12-.62h.31c10.79-.73 21.53-1.92 32.13-3.68h0q4-.66 7.95-1.43c-33.29-9.82-129.24-43.29-193-117.69-29.32 19.08-59.55 35.28-91.16 35.28l.35.44 2.44 3 .75.9c.8 1 1.62 1.93 2.44 2.88l1.57 1.82.53.6 2 2.22 2 2.16 2.6 2.79 1.21 1.28 3.91 4 .26.27 3.91 3.81 1.58 1.5 2.86 2.66 1.16 1.06c1 .94 2.09 1.86 3.14 2.78 1.54 1.35 3.1 2.66 4.68 3.95l.42.35q2.44 2 4.93 3.89c5.46 4.16 11.12 8 16.93 11.62a262 262 0 0 0 46.16 19.89l6.24 2q11.36 3.4 23 6 5.69 1.26 11.42 2.29l8.47 1.42 5.71.49z" fill="#5e3244"/><path d="M579.81 624.61a278.56 278.56 0 0 0-19.57-4.22c-6.57-1.17-13.09-2.18-19.63-3a342.79 342.79 0 0 0-19.68-1.89c-6.56-.44-13.14-.64-19.71-.65h-4.93l-4.93.13c-1.64 0-3.28.11-4.92.19l-4.92.26c-6.57.38-13.11 1.09-19.66 1.87a398 398 0 0 0-39.21 7.32 159.22 159.22 0 0 1 38.13-13.52c3.32-.66 6.64-1.41 10-1.88 1.68-.25 3.35-.56 5-.75l5.06-.6a192.24 192.24 0 0 1 20.36-1c6.79 0 13.59.39 20.34 1.11a193.91 193.91 0 0 1 20.08 3.25 180.43 180.43 0 0 1 19.57 5.41 118.4 118.4 0 0 1 18.62 7.97zm-214.99 62.26c11.06 3.46 22.25 6.26 33.51 8.69l8.45 1.76 8.48 1.58 17 2.77c11.38 1.57 22.76 2.94 34.2 3.74s22.88 1.26 34.33 1.29h8.59l8.58-.26c2.86 0 5.72-.22 8.58-.37s5.72-.26 8.57-.53c11.43-.76 22.81-2.16 34.18-3.69a531.12 531.12 0 0 0 67.44-15A312.64 312.64 0 0 1 570.36 708c-5.73 1-11.45 2.24-17.24 3l-8.67 1.19-8.7.94c-11.63 1-23.3 1.71-35 1.61s-23.35-.61-35-1.76-23.17-2.82-34.6-5.14a342.06 342.06 0 0 1-33.87-8.46 234 234 0 0 1-32.46-12.51zm220.06-24.18c-14.62 1.67-29.24 2.5-43.86 3.13s-29.25.86-43.87.87-29.25-.27-43.87-.86-29.24-1.47-43.86-3.14c14.62-1.68 29.24-2.51 43.86-3.15s29.25-.86 43.87-.85 29.24.28 43.87.86 29.24 1.45 43.86 3.14z" class="F"/><g class="B C D E"><use xlink:href="#D"/><path d="M673 659s48.64-10.61 84.3-88.54M330 659.06s-53.47-13.43-87-87.61"/></g><path d="M559.29,397.34c-12.87,24-60,37.44-63.83,31.42-4.3-6.73,37.84-55.32,13.9-106.14" class="G"/><path d="M746.9 365.72c-43.51-90.29-140.27-142-244.74-142-131.19 0-253.5 95-275.32 223.74 0 0 202.41 15.32 275.25-67.4 9.61 4.71 156.09 77.61 244.81-14.34z" class="J"/><path d="M502.16 233.15a361.93 361.93 0 0 0-51.86 7.33l-12.68 3.05-12.54 3.55-12.39 4-12.2 4.54a339.08 339.08 0 0 0-46.87 22.71 388.52 388.52 0 0 0-43.25 29.58 233 233 0 0 1 40.79-33.56 258.22 258.22 0 0 1 47.14-24.31l12.5-4.51 12.7-3.9c4.26-1.2 8.58-2.19 12.89-3.21s8.68-1.76 13-2.53a224.82 224.82 0 0 1 52.77-2.74z" class="F"/><path d="M537.23,398.81C526.9,418.12,489.07,428.88,486,424c-3.45-5.4,30.38-44.42,11.16-85.22" class="J"/><path d="M240.15,454.33s185.57,8.28,259.86-72c-5,19.52-15.75,34.09-13.79,37.16,2.89,4.53,38-5.42,48.16-23.35,45.56,19,131.48,41.33,206.15-16.09" class="B C D E"/><path d="M407.29 474.84H286.65c-5.56 0-11.12-.08-16.68 0h-.24c-5.23 0-10.24 4.6-10 10a10.17 10.17 0 0 0 10 10h120.64 16.68.24c5.23 0 10.24-4.6 10-10a10.18 10.18 0 0 0-10-10zm319.03 0H605.68c-5.56 0-11.12-.08-16.68 0h-.24c-5.23 0-10.24 4.6-10 10a10.17 10.17 0 0 0 10 10H709.4h16.68.24c5.23 0 10.24-4.6 10-10a10.18 10.18 0 0 0-10-10z" class="F"/><g class="I"><circle cx="382.91" cy="594.66" r="33.84" opacity=".2"/><path d="M375.87 631l43.31-41.74a147.47 147.47 0 0 0-7.57-12.9l-45.87 44.21c1.9 1.33 7.98 9.51 10.13 10.43z" opacity=".4"/></g><circle cx="382.91" cy="594.66" r="33.84" class="B C E"/><g class="I"><path d="M378 580.47c1.22 3.83-3.5 6.78-7 7.37-3.54 0-5.9-2.36-7.08-5.31-.59-2.95 0-5.9 2.36-7.67 2.95-1.18 7.08-2.36 9.7.67a6.85 6.85 0 0 1 2.02 4.94zm6.32-2.26a2.29 2.29 0 0 1-4.49.19c0-1.77.59-2.36 2.27-2.42a2.22 2.22 0 0 1 2.22 2.22z"/><circle cx="615.2" cy="594.66" r="33.84" opacity=".2"/><path d="M610.12 628.11l38.54-38.54c-.21-1.37-5.91-8.1-6.29-9.44l-41.72 41.74c1.35.37 8.1 6.04 9.47 6.24z" opacity=".4"/></g><circle cx="615.2" cy="594.66" r="33.84" class="B C E"/><path d="M607.36 579.91c1 3.25-3 5.75-6 6.25-3 0-5-2-6-4.5-.5-2.5 0-5 2-6.5 2.5-1 6-2 8.23.57a5.85 5.85 0 0 1 1.77 4.18zm5.34-1.91a1.94 1.94 0 0 1-3.8.16c0-1.5.5-2 1.92-2a1.88 1.88 0 0 1 1.88 1.84z" class="I"/><path d="M416.74,594.66q83.68-30,164.63,0" class="B C D E"/><path d="M615.2 634.5a39.9 39.9 0 0 1-39.6-35.5c-50-17.65-101.46-17.64-153.1 0a39.81 39.81 0 0 1-50.92 33.84 38 38 0 0 0 54.51-29.91c49.22-16.86 98.28-16.88 145.93 0a38 38 0 0 0 54.51 30 40 40 0 0 1-11.33 1.57z" opacity=".15"/><defs ><path id="B" d="M233.25,500c0-147.32,119.43-266.75,266.75-266.75S766.75,352.68,766.75,500A266.22,266.22,0,0,1,668.1,707.12q-8.21,6.68-16.94,12.69C591,758,515,758,446.39,751.89c-6.66-1-13.3-2.26-19.89-3.71-26.33-5.8-51.82-14.75-75.37-27.8Q342.4,715,334.2,708.76a199.59,199.59,0,0,1-15.8-13.38q-7.14-6.63-13.79-13.78A265.86,265.86,0,0,1,233.25,500Z"/><path id="C" d="M269.77 550.18c-1-28.36 18-52.36 43.28-63.56a62.23 62.23 0 0 1 8.15-2.7 70 70 0 0 1 42.22 2.68 71.54 71.54 0 0 1 8.92 4.16c29.53 15.89 42.79 53.26 31.36 83.46a59.6 59.6 0 0 1-4.18 8.82 63.85 63.85 0 0 1-4.71 7.8 64.78 64.78 0 0 1-5.68 7 63.08 63.08 0 0 1-7.12 6.07 68.37 68.37 0 0 1-7.85 5c-27.38 13-64.38 9-86.44-11.39a68.28 68.28 0 0 1-6.11-7.48 65 65 0 0 1-5.58-9.5 55.59 55.59 0 0 1-5.71-21.73 71.3 71.3 0 0 1-.55-8.63z"/><path id="D" d="M291.53,666.4q6.25,7.85,13.08,15.2,6.64,7.14,13.79,13.78a199.59,199.59,0,0,0,15.8,13.38c5.46,4.16,11.12,8,16.93,11.62,23.55,13,49,22,75.37,27.8,6.59,1.45,13.23,2.7,19.89,3.71C515,758,591,758,651.16,719.81q8.73-6,16.94-12.69a268.58,268.58,0,0,0,41.39-42c-82.46,0-137.71-94.64-205-94.64S368.44,666.4,291.53,666.4Z"/></defs></svg>