<svg xmlns="http://www.w3.org/2000/svg" xmlns:xlink="http://www.w3.org/1999/xlink" viewBox="0 0 1000 990" xmlns:v="https://vecta.io/nano"><style><![CDATA[.B{stroke:#592d3d}.C{stroke-miterlimit:10}.D{stroke-width:12}.E{fill:#592d3d}.F{fill:none}.G{fill:#fff}.H{fill:#f3ab98}.I{fill:#e2e2e2}.J{fill:#fdd2b2}.K{stroke-linecap:square}.L{fill:#fedc58}]]></style><path d="M610,758.72c90.76,0,72,114.24,72.87,241.28H610Z" class="J"/><path d="M632.74 831.87L610 870l11.38 130h31.76c.77-180.27-20.4-168.13-20.4-168.13z" class="H"/><use xlink:href="#B" class="J"/><path d="M269.61 634.48l2.11 3.58 1.33 2.14 2 3.19 1.46 2.24 2 3 1.56 2.28 2 2.88 1.65 2.3 2 2.77 1.73 2.29 2.07 2.7 1.79 2.26 2.12 2.63 1.85 2.23 2.17 2.57 1.91 2.2 2.22 2.5 2 2.16 2.6 2.79 1.21 1.28 3.91 4 .26.27 3.91 3.81 1.58 1.5 2.86 2.66 1.16 1.06 3.14 2.78q4.9 4.27 10 8.19 8.19 6.24 16.93 11.62c23.55 13 49 22 75.37 27.8 6.59 1.45 13.23 2.7 19.89 3.71 42.1 3.75 87 5.18 129.28-3.08C508.45 729 185.59 612.74 388.8 257.48h0a249.02 249.02 0 0 0-8.06 3.88l-.59.29-3.65 1.88-1 .53a280.52 280.52 0 0 0-11.13 6.23l-.9.53-3.46 2.1-.87.54q-5.36 3.35-10.55 6.93l-1.08.75-3.23 2.29-.66.47q-3.27 2.39-6.46 4.84l-.62.48-3 2.39-1.17.94-3 2.45h0c-2.11 1.75-4.19 3.55-6.24 5.37l-1.14 1-2.69 2.45L318 305q-4.28 4-8.37 8.17l-1.38 1.41-2.36 2.47-1.37 1.48q-2.06 2.2-4.06 4.46c-.45.51-.91 1-1.36 1.54l-2.11 2.45-1.51 1.79-2 2.44-1.61 2-3.16 4-1.61 2.11-1.79 2.4-1.59 2.18-1.68 2.33q-1.42 2-2.8 4.05l-1.49 2.22-1.64 2.5-1.49 2.31-1.68 2.71-1.28 2.07-2.61 4.4-1.22 2.16-1.61 2.87-1.19 2.19-1.9 3.59-1.2 2.34-1.91 3.84-1 2.09-1.53 3.29-.91 2q-1.11 2.47-2.17 5l-.65 1.57-1.56 3.82-.79 2-1.45 3.8-.62 1.65q-.94 2.63-1.85 5.26l-.56 1.7q-.66 2-1.29 4l-.6 1.91-1.37 4.63-.29 1q-.78 2.76-1.5 5.54c-.16.59-.3 1.19-.45 1.78l-1 4.18-.42 1.75-1.24 5.71-.15.77q-.51 2.55-1 5.1l-.32 1.82-.74 4.5-.24 1.52-.83 5.88-.15 1.3-.55 4.79-.19 1.81-.45 5.06c0 .35-.06.69-.08 1q-.22 3-.39 6.05c0 .53 0 1.07-.07 1.6q-.1 2.36-.18 4.71v1.77l-.08 6.17v.1l.08 6.62c0 .76.06 1.52.08 2.28l.17 4.41c0 .89.11 1.77.16 2.66l.25 4 .24 2.83.34 3.77c.09 1 .21 1.94.31 2.91l.42 3.64.39 2.95.5 3.55.47 3 .57 3.49.55 3 .65 3.44.62 3 .74 3.4.68 2.93.82 3.36.74 2.91.91 3.34c.26 1 .53 1.92.81 2.87l1 3.31.88 2.84 1.06 3.28.94 2.8 1.15 3.27 1 2.74 1.24 3.27c.35.89.69 1.79 1 2.68l1.34 3.28 1.08 2.59 1.45 3.33 1.1 2.47 1.6 3.44 1.08 2.3 1.87 3.75.95 1.9q2.88 5.61 6 11.07l1.02 1.69z" class="H"/><use xlink:href="#B" class="B C D F"/><path d="M386.12,758.72c-90.77,0-72,114.24-72.87,241.28h72.87Z" class="J"/><path d="M367.23 831.87L390 870l-11.39 130h-31.73c-.81-180.27 20.35-168.13 20.35-168.13z" class="H"/><path d="M619.47,1070H380.53a13.28,13.28,0,0,1-13.27-13.28V772a13.28,13.28,0,0,1,13.27-13.28H613.76c13.09,0,19,7.66,19,19.88v278.08A13.28,13.28,0,0,1,619.47,1070Z" class="J"/><path d="M629.05 766.62a19.33 19.33 0 0 1-2.51-4 17.25 17.25 0 0 0-8.28-3.51 28.88 28.88 0 0 0-4.5-.34H380.53A13.28 13.28 0 0 0 367.26 772c29 10.42 83.29 16.24 132.74 16.24 63.06 0 104.38-9.35 129.05-21.62z" class="H"/><g class="B C D F"><path d="M610 758.72c90.76 0 72 114.24 72.87 241.28h-50.13M386.12 758.72c-90.77 0-72 114.24-72.87 241.28h50.07" class="K"/><path d="M380.53,758.82l233.23-.1"/></g><path d="M380.53,1070H497.15C388,1070,396.24,838.82,367.26,838.82v217.86A13.28,13.28,0,0,0,380.53,1070Z" class="H"/><path d="M361.26 860.85c-.19-3.67-.11-7.34.05-11s.47-7.35.86-11l.65-5.51c.25-1.84.49-3.67.85-5.51a44.18 44.18 0 0 1 3.59-11 44.18 44.18 0 0 1 3.59 11c.36 1.84.62 3.67.85 5.51l.65 5.51c.38 3.67.68 7.34.85 11s.25 7.34.06 11z" class="E"/><path d="M632.74 870v8 102.75 8.53 67.41a13.28 13.28 0 0 1-13.27 13.31H380.53a13.28 13.28 0 0 1-13.27-13.28v-58.2-137.67" class="B C D F"/><path d="M626.74 870c-.19-4.17-.1-8.35.06-12.53s.47-8.35.85-12.53l.65-6.27c.24-2.09.49-4.17.85-6.26a55.09 55.09 0 0 1 3.59-12.53 55.09 55.09 0 0 1 3.59 12.53c.36 2.09.62 4.18.85 6.26l.65 6.27c.38 4.18.69 8.35.85 12.53s.25 8.36.06 12.53zm-56.06-27.55C570.9 833 582.9 829 588.9 835a10.611 10.611 0 1 1-15.16 14.85 10.4 10.4 0 0 1-3.06-7.4zm-162.57-.3C407.9 834 416.9 830 422.9 833c8 3 8 14 0 19-4 2-8 0-11.75-2.48a10.39 10.39 0 0 1-3.04-7.37z" class="E"/><g class="H"><path d="M500 831.77a27.13 27.13 0 0 1 1.5 5.84 42.47 42.47 0 0 1 .49 5.84l.3 11.69.25 11.69.17 11.67.28 46.74v46.74l-.53 23.37c-.1 3.89-.29 7.79-.67 11.68a92.5 92.5 0 0 1-1.77 11.69 92.5 92.5 0 0 1-1.77-11.69c-.38-3.89-.57-7.79-.67-11.68l-.53-23.37v-46.74l.18-46.73.17-11.7.33-11.68.33-11.68a44.11 44.11 0 0 1 .5-5.84 27.13 27.13 0 0 1 1.44-5.84z"/><path d="M425.22 883a18.51 18.51 0 0 1 4.67-1.5 29.75 29.75 0 0 1 4.68-.5l9.35-.33 18.7-.41 37.38-.27h37.39l18.7.53 9.34.67a61.34 61.34 0 0 1 9.35 1.78 59.17 59.17 0 0 1-9.35 1.77l-9.34.67-18.7.52c-12.46.19-24.92 0-37.39 0s-24.93 0-37.4-.15c-6.23-.06-12.46-.26-18.68-.5l-9.35-.34a29.5 29.5 0 0 1-4.67-.5 18.45 18.45 0 0 1-4.68-1.44zm17.19 31.38a12.51 12.51 0 0 1 3.74-1.11 18.35 18.35 0 0 1 3.62-.15l7.17.21 14.34.17 28.76-.21c9.67-.29 19.26-.43 28.88-.39 4.81 0 9.62.13 14.42.24a70.37 70.37 0 0 1 7.23.47 38.17 38.17 0 0 1 7.27 1.53 36.56 36.56 0 0 1-7.16 2 61.08 61.08 0 0 1-7.21.86c-4.82.35-9.64.65-14.45.82-9.64.36-19.27.32-28.88.45-4.81 0-9.61.22-14.48.1l-14.52-.31c-4.83-.18-9.68-.58-14.5-1.08l-7.23-.9a16.82 16.82 0 0 1-3.57-.84 11.51 11.51 0 0 1-3.43-1.86zm-3.48 35.49a13.07 13.07 0 0 1 3.82-1.5 19.13 19.13 0 0 1 3.82-.49l7.63-.32 15.28-.41L500 947h30.54c5.09.09 10.18.3 15.27.53a72.73 72.73 0 0 1 7.63.66 41.2 41.2 0 0 1 7.66 1.81 41.25 41.25 0 0 1-7.63 1.77 70.34 70.34 0 0 1-7.64.67l-15.27.53c-10.18.2-20.37.06-30.55 0l-30.54-.25-15.28-.49-7.63-.37a19.33 19.33 0 0 1-3.82-.5 12.85 12.85 0 0 1-3.81-1.49zm108.92-101.89l-42.13-34.37 74.63-54.79h-160.7l74.63 54.79-42.13 34.37-37.63-56.5v78.48h174.26v-83.44l-40.93 61.46z"/></g><g class="G"><path d="M616.66 758.16l-42.73.1a119.49 119.49 0 0 1-1.43 13.48 63.7 63.7 0 0 1-1.74 6.34c-2.34 6.49-17.26 12-21.49 16.73a48.22 48.22 0 0 1-4.5 4.43c-25.17 18.2-65.17 19.2-89.48-.58a51.36 51.36 0 0 1-7.11-7.61c-4.23-5.56-16.4-11.59-18.1-18.94a60 60 0 0 1-1.08-6.59 63.55 63.55 0 0 1-.36-6.8l-45.21-.56a13.28 13.28 0 0 0-13.28 13.27v284.69a13.28 13.28 0 0 0 13.28 13.27h238.93a13.27 13.27 0 0 0 13.27-13.27V778c0-12.18-5.88-19.84-18.97-19.84z"/><path d="M612.84,758.16c63.54,0,88.52,43.39,78.9,272-18.74,6.7-55.91,4.59-55.91,4.59Z"/></g><path d="M451.06 855.4l48.45-24.09 48.58 24.09-37.06-43.02-43.89.83-16.08 42.19zm184.57-24.09s-22.79 84.54-19.31 234l33.21-31 3.58-137.58c-5.62-72.23-17.48-65.42-17.48-65.42z" class="I"/><path d="M389,758.16c-61.78,0-88.88,56.45-80.75,245.48,22.42,9.91,56.19,5.58,56.19,5.58Z" class="G"/><g class="I"><path d="M306.94 957.49q.26 20.46 1.21 43.48c15.27.73 43.69.88 57.11 0l4.18-42.81c-10.77-1.26-45.78-1.67-62.5-.67z"/><path d="M370.12 831.31l-.5 177.69-13.35.9c-2.97-149.05 13.85-178.59 13.85-178.59z"/></g><path d="M612.84 758.16c67.42 0 78.45 56.28 78.9 133.78v138.22s-50 5.53-55.91 4.59l-.1-142.11M389 758.16c-25.73 0-43.52 8.12-55.71 22.44-19.45 22.87-24.63 61.54-25 108.27v123.77c12.06 3.32 61.36-3.64 61.36-3.64l.49-118.6" class="B C D F K"/><path d="M372.6 1011.24c-1.83 2.61-73.77 1.92-74.67 0s-2.19-37.5 0-41c1.8-2.88 72.11-2.27 74.67 0s1.83 38.39 0 41z" class="B C D G"/><path d="M383.43 1069.39H500c-109.19 0-100.91-231.14-129.89-231.14v217.87a13.28 13.28 0 0 0 13.32 13.27z" class="I"/><path d="M364.15 860.29c-.19-3.67-.11-7.35.06-11s.47-7.34.85-11l.65-5.51c.24-1.84.49-3.67.85-5.5a44.05 44.05 0 0 1 3.59-11 44.05 44.05 0 0 1 3.59 11c.36 1.83.62 3.67.85 5.5l.65 5.51q.58 5.52.86 11c.16 3.67.24 7.35 0 11z" class="E"/><g class="B C D"><path d="M635.63 869.4v8 102.76 8.53 67.41a13.27 13.27 0 0 1-13.27 13.27H383.43a13.28 13.28 0 0 1-13.28-13.27V860.29" class="F"/><path d="M697.42,970.24c2.22,2.26,1.59,38.39,0,41s-64,1.92-64.77,0-1.9-37.5,0-41c.27-.5,2.28-.89,5.45-1.18" class="G K"/></g><path d="M678.92,968.3c3.8.3,15-1.18,15.42-.76" class="G"/><path d="M678.92 968.3a23.67 23.67 0 0 1 1.88-2.16 12.13 12.13 0 0 1 1.78-1.47 12.74 12.74 0 0 1 1.81-1l1.83-.79a24.1 24.1 0 0 1 3.79-1.18 15.85 15.85 0 0 1 2-.31h1.17.82c.12 0 .44 0 .71.07h.35l.49.11.25.06.2.06.57.21a6.45 6.45 0 0 1 2 1.37l4.2 4.29-8.65 8.48-4.12-4.37a5.73 5.73 0 0 0 1.91 1.32c.18.08.36.14.54.2h.17l.19.05a2.34 2.34 0 0 0 .38.09h.19 0 .22-.15-.75-1.82a26.27 26.27 0 0 1-3.92-.53l-2-.49a12.56 12.56 0 0 1-2-.72 10 10 0 0 1-2.08-1.32 8.19 8.19 0 0 1-1.96-1.97z" class="E"/><path d="M592.51 763.64l-74.67 54.81 42.14 34.38 59.42-89.24-26.89.05z" class="I"/><path d="M629.63 869.4c-.19-4.18-.1-8.36.06-12.53s.47-8.36.86-12.53l.64-6.27c.24-2.09.49-4.18.86-6.27a54.83 54.83 0 0 1 3.58-12.53 54.37 54.37 0 0 1 3.59 12.53 96.22 96.22 0 0 1 .85 6.27l.65 6.27c.39 4.17.69 8.35.85 12.53s.26 8.35.06 12.53z" class="E"/><path d="M383.43,758.26l233.23-.1" class="B C D F"/><path d="M529.39 835.55l-22.35-22.34-22.34 22.34 10.98 10.98-9.72 106.63 20.74 16.17 21.42-16.17-9.71-106.63 10.98-10.98z" class="I"/><path stroke-width="6" d="M500.04 813.21v256.18" class="B C F K"/><path fill="#633749" d="M500.04 813.21l22.35 15.34-22.35 22.35-22.34-22.35 22.34-15.34z"/><path d="M419.62 758.8s43.27 39.34 74.66 54.81C479 838.82 452.15 848 452.15 848l-59.43-89.23zm160.76 0S541 800 505.72 813.61c10 20.28 42.13 34.37 42.13 34.37l59.43-89.23z" class="B C D G"/><path fill="#633749" d="M478.96 946.16l20.74 16.17 21.42-16.17-10-109.78h-22.16l-10 109.78z"/><path stroke-width="8" d="M477.7 828.55l10.98 10.98-9.72 106.63 20.74 16.17 21.42-16.17-9.71-106.63 10.98-10.98" class="B C F"/><path d="M638.1,969.06c7.51-.71,21.51-.89,34-.67" class="G"/><g class="E"><path d="M637.54 963.08a50.92 50.92 0 0 1 8.84-.47c2.9.07 5.78.3 8.66.65l4.3.61a43.36 43.36 0 0 1 4.29.85 27.53 27.53 0 0 1 8.5 3.67 30.13 30.13 0 0 1-8.52 3.5l-4.23.86-4.21.69-8.35 1-8.16.54-6 .1-1-11.13z"/><circle cx="515.77" cy="982.93" r="4.8"/><path d="M490.89 836.19c-.05-.06 0 0 0 0l.07.05a.88.88 0 0 1 .17.12l.38.29.78.65 1.7 1.39 2 1.42a27.37 27.37 0 0 1 2.71 2.33 5.61 5.61 0 0 1-3.13 2.43 9.41 9.41 0 0 1-3.7.27 11 11 0 0 1-3.63-1 9.72 9.72 0 0 1-1.65-1 8.85 8.85 0 0 1-.77-.63l-.37-.36-.2-.21-.25-.29z"/></g><path d="M271.4 576.82c-1-28.36 18-52.36 43.28-63.56a62.37 62.37 0 0 1 8.16-2.7 70 70 0 0 1 42.21 2.68 71.67 71.67 0 0 1 8.95 4.16c29.53 15.88 42.79 53.25 31.36 83.46a61.68 61.68 0 0 1-4.18 8.82 54.68 54.68 0 0 1-17.51 20.83 69.25 69.25 0 0 1-7.85 5c-27.38 13-64.38 9-86.45-11.4a69.35 69.35 0 0 1-6.11-7.47 64.89 64.89 0 0 1-5.57-9.5 55.78 55.78 0 0 1-5.69-21.75 75.67 75.67 0 0 1-.6-8.57z" class="H"/><path d="M269.77 558.47c-1-28.36 18-52.36 43.28-63.56a62.23 62.23 0 0 1 8.15-2.7 70 70 0 0 1 42.22 2.68 71.54 71.54 0 0 1 8.92 4.16c29.53 15.89 42.79 53.25 31.36 83.46a59.6 59.6 0 0 1-4.18 8.82 63.85 63.85 0 0 1-4.71 7.8 64.78 64.78 0 0 1-5.68 7 63.08 63.08 0 0 1-7.12 6.07 68.37 68.37 0 0 1-7.85 5c-27.38 13-64.38 9-86.44-11.4a67.24 67.24 0 0 1-6.11-7.47 65 65 0 0 1-5.58-9.5 55.59 55.59 0 0 1-5.71-21.83 71.3 71.3 0 0 1-.55-8.53z" class="B C D G"/><path d="M374 551.07v5.67a2 2 0 0 0-.13.39 21.27 21.27 0 0 1-1.92 6.53 44.36 44.36 0 0 1-8.59 12.09 120.43 120.43 0 0 1-24.25 18.93.87.87 0 0 1-1.06 0 128.66 128.66 0 0 1-19.86-14.63 61.62 61.62 0 0 1-11.37-13.31 24 24 0 0 1-3.08-18.5c3.22-14.32 21-20.17 32.15-10.57.95.81 1.79 1.76 2.74 2.7a2.75 2.75 0 0 1 .19-.28c5-5.56 11.1-8 18.44-6.81 8.05 1.35 13.32 6.16 15.89 13.9a36.94 36.94 0 0 1 .85 3.89z" fill="#e2495b"/><path d="M583.89 568.76c.43-15.13 6.67-30.09 15.1-41.33a72.82 72.82 0 0 1 7.12-8.53 69.73 69.73 0 0 1 90.17-8.9 73.27 73.27 0 0 1 6.53 5.13c27 21.45 30.12 63.14 15.32 93.23a62.31 62.31 0 0 1-4.78 6.86 72.09 72.09 0 0 1-7.58 8.13c-20.27 17.83-51.81 22.13-77.41 12.42a71.34 71.34 0 0 1-10.55-5c-17.9-10.78-30.37-31.09-33.43-52.23a62.93 62.93 0 0 1-.49-9.78z" class="H"/><path d="M589.38 557.26c.42-14.15 6.42-28.15 14.52-38.66a70.56 70.56 0 0 1 6.86-8 68.55 68.55 0 0 1 86.77-8.37 69.81 69.81 0 0 1 6.28 4.79c26 20.07 29 59.07 14.74 87.22a56.5 56.5 0 0 1-4.6 6.42 68.91 68.91 0 0 1-7.29 7.6C687.15 625 656.8 629 632.17 619.9a68.79 68.79 0 0 1-10.17-4.71c-17.22-10.08-29.22-29.08-32.17-48.85a56.34 56.34 0 0 1-.45-9.08z" class="B C D G"/><path d="M695.19 549.32v5.6a2.91 2.91 0 0 0-.12.39 21 21 0 0 1-1.89 6.44 43.87 43.87 0 0 1-8.49 11.94 118.43 118.43 0 0 1-24 18.69.87.87 0 0 1-1 0 127 127 0 0 1-19.61-14.44 61.31 61.31 0 0 1-11.22-13.14 23.82 23.82 0 0 1-3-18.27c3.18-14.14 20.79-19.91 31.75-10.44.94.8 1.77 1.74 2.7 2.67.06-.1.13-.19.19-.28 4.9-5.49 11-7.94 18.21-6.72 8 1.33 13.16 6.08 15.69 13.72a33.67 33.67 0 0 1 .79 3.84z" fill="#e2495b"/><path d="M243.89 489.13c5.64 15.83 20.9 24.06 33.4 26.94 13.06-20.24 56.65-28.92 89.37-17.44 27.8 5-10.81-25.57-72.47-9-2.31.85-14.56 2.95-30.28-9.19-2.19-1.69 4.68 13.71 12.5 20-11.35-.23-13.21-.22-32.52-11.31zm477.32 11.3c7.82-6.25 14.69-21.65 12.5-20-15.72 12.14-28 10-30.28 9.19-61.66-16.6-100.28 14-72.48 9 32.73-11.48 76.32-2.8 89.38 17.44 12.5-2.88 27.76-11.11 33.4-26.94-19.31 11.1-21.17 11.09-32.52 11.31z" fill-rule="evenodd" class="E"/><path d="M558.55,642.44c-3.63,0-5.35-1.31-15.58-10.79-7.49-6.93-12.63-10.36-18.91-11.46-7.83-1.37-15.83-.88-24.36,7.68-8.53-8.56-16.52-9-24.36-7.68-6.28,1.1-11.42,4.53-18.91,11.46-10.23,9.48-11.95,10.79-15.58,10.79a1.84,1.84,0,0,0-1.3,3.14q26.25,26.25,60.15,26.28t60.15-26.28A1.84,1.84,0,0,0,558.55,642.44Z" fill="#d69ac7"/><path d="M559.57 645.84l-.55-2.21c-70.56 16.12-118.17.53-118.17.53l-1.77-.31a1.82 1.82 0 0 0 .47 1.73q26.25 26.25 60.15 26.28 33.68 0 59.87-26.02z" fill="#c683b4"/><path d="M479.28 650.39c13.45-.94 26.69-1.44 39.89-3 6.59-.76 13.15-1.74 19.67-2.86s13-2.41 19.51-3.8l1.34 5.85q-9.87 2.34-19.92 3.81-10.05 1.47-20.16 2.06c-6.75.37-13.5.54-20.25.27a127.84 127.84 0 0 1-20.08-2.33zm-37.49-9.08l5.38 1.48 5.49 1.63 5.52 1.77a27.06 27.06 0 0 1 5.46 2.64 22.06 22.06 0 0 1-6.05.9c-2 0-3.95-.16-5.93-.32s-3.93-.47-5.88-.85a38.82 38.82 0 0 1-5.86-1.55z" class="E"/><path d="M558.55,642.44c-3.63,0-5.35-1.31-15.58-10.79-7.49-6.93-12.53-11.29-18.91-11.46-11.21-.3-19.15,6.12-24.76,6.12s-10.45-7.53-24-6.12c-6.34.66-11.42,4.53-18.91,11.46-10.23,9.48-11.95,10.79-15.58,10.79a1.84,1.84,0,0,0-1.3,3.14q26.25,26.25,60.15,26.28t60.15-26.28A1.84,1.84,0,0,0,558.55,642.44Z" stroke-width="8" class="B C F"/><path d="M524.06 626.48a41.49 41.49 0 0 0-12.19 2.94l-5.85 2.42a20.2 20.2 0 0 1-6.42 1.74 8.92 8.92 0 0 1-3.47-.64 24 24 0 0 1-3-1.4 59.7 59.7 0 0 0-5.58-2.83 27.56 27.56 0 0 0-5.94-1.73 38.5 38.5 0 0 0-6.29-.5 26.31 26.31 0 0 1 6.4-.48 24.54 24.54 0 0 1 6.38 1.25 46 46 0 0 1 5.9 2.6c1.87.94 3.71 1.83 5.52 1.74a19.76 19.76 0 0 0 5.8-1.51l6-2.13a30 30 0 0 1 12.74-1.47z" class="G"/><path d="M472.62,652.36c3.22,0,3.23-5,0-5s-3.22,5,0,5Z" class="E"/><path d="M289.63,652.2q6.38,8,13.32,15.47,6.76,7.26,14,14a204.78,204.78,0,0,0,16.07,13.62q8.34,6.34,17.24,11.82c24,13.28,49.91,22.39,76.71,28.3,6.7,1.47,13.46,2.74,20.24,3.77,69.83,6.22,147.18,6.22,208.41-32.65q8.88-6.12,17.25-12.91c15.56-12.65,28-26.65,40.9-44.33-83.93,0-138.94-94.73-207.41-94.73S367.92,652.2,289.63,652.2Z" class="H"/><use xlink:href="#C" fill="#89d86f" class="B C D"/><path d="M453.37 752.49l5.5.43 1.32.1 4.72.33 1.29.09 5.18.33 2 .12 5 .26 2.16.1 3.35.15 2.56.1 4.46.14 3 .08h2.41l5.19.08h1.91q5.58 0 11.16-.06h1.1l7.3-.2h.28q6-.23 12-.62h.31c10.79-.73 21.53-1.92 32.13-3.68h0q4-.66 7.95-1.43c-33.29-9.82-129.24-43.29-193-117.69-29.32 19.08-59.55 35.28-91.16 35.28l.35.44 2.44 3 .75.9c.8 1 1.62 1.93 2.44 2.88l1.57 1.82.53.6 2 2.22 2 2.16 2.6 2.79 1.21 1.28 3.91 4 .26.27 3.91 3.81 1.58 1.5 2.86 2.66 1.16 1.06c1 .94 2.09 1.86 3.14 2.78 1.54 1.35 3.1 2.66 4.68 3.95l.42.35q2.44 2 4.93 3.89c5.46 4.16 11.12 8 16.93 11.62a262 262 0 0 0 46.16 19.89l6.24 2q11.36 3.4 23 6 5.69 1.26 11.42 2.29l8.47 1.42 5.71.49z" fill="#7dc462"/><path d="M579.81 624.61a278.56 278.56 0 0 0-19.57-4.22c-6.57-1.17-13.09-2.18-19.63-3a342.79 342.79 0 0 0-19.68-1.89c-6.56-.44-13.14-.64-19.71-.65h-4.93l-4.93.13c-1.64 0-3.28.11-4.92.19l-4.92.26c-6.57.38-13.11 1.09-19.66 1.87a398 398 0 0 0-39.21 7.32 159.22 159.22 0 0 1 38.13-13.52c3.32-.66 6.64-1.41 10-1.88 1.68-.25 3.35-.56 5-.75l5.06-.6a192.24 192.24 0 0 1 20.36-1c6.79 0 13.59.39 20.34 1.11a193.91 193.91 0 0 1 20.08 3.25 180.43 180.43 0 0 1 19.57 5.41 118.4 118.4 0 0 1 18.62 7.97zm-214.99 62.26c11.06 3.46 22.25 6.26 33.51 8.69l8.45 1.76 8.48 1.58 17 2.77c11.38 1.57 22.76 2.94 34.2 3.74s22.88 1.26 34.33 1.29h8.59l8.58-.26c2.86 0 5.72-.22 8.58-.37s5.72-.26 8.57-.53c11.43-.76 22.81-2.16 34.18-3.69a531.12 531.12 0 0 0 67.44-15A312.64 312.64 0 0 1 570.36 708c-5.73 1-11.45 2.24-17.24 3l-8.67 1.19-8.7.94c-11.63 1-23.3 1.71-35 1.61s-23.35-.61-35-1.76-23.17-2.82-34.6-5.14a342.06 342.06 0 0 1-33.87-8.46 234 234 0 0 1-32.46-12.51zm220.06-24.18c-14.62 1.67-29.24 2.5-43.86 3.13s-29.25.86-43.87.87-29.25-.27-43.87-.86-29.24-1.47-43.86-3.14c14.62-1.68 29.24-2.51 43.86-3.15s29.25-.86 43.87-.85 29.24.28 43.87.86 29.24 1.45 43.86 3.14z" class="E"/><g class="B C D F"><use xlink:href="#C"/><path d="M673 659s48.64-10.61 84.3-88.54M330 659.06s-53.47-13.43-87-87.61"/></g><circle cx="499.7" cy="170.67" r="107.58" class="L"/><path d="M559.29,397.34c-12.87,24-60,37.44-63.83,31.42-4.3-6.73,37.84-55.32,13.9-106.14" class="H"/><path d="M420.82 134.59A71.58 71.58 0 0 1 433 112.84l4.16-4.74 4.53-4.41c1.53-1.41 3.21-2.73 4.88-4l5.17-3.65c1.76-1.15 3.6-2.21 5.47-3.19l2.82-1.43a31 31 0 0 1 2.86-1.35l5.89-2.29 6-1.81a72 72 0 0 1 24.86-2 112.32 112.32 0 0 0-24 5c-1 .26-1.9.7-2.85 1l-2.85 1-5.54 2.45c-1.85.8-3.58 1.85-5.38 2.77s-3.44 2.09-5.17 3.12-3.33 2.28-5 3.41-3.15 2.52-4.76 3.75-3 2.68-4.53 4l-4.28 4.31a110.47 110.47 0 0 0-14.46 19.81z" class="G"/><path d="M409.8 229.76c19.2 29.24 25.87 3.49 88.2 3.49 107.21 0 73.62 25 92.69-5.15-27.59-9.65-44-19.39-88.13-19.39-42.3 0-63.87 10.34-92.76 21.05z" fill="#edbf2e"/><circle cx="499.7" cy="170.67" r="107.58" class="B D F"/><use xlink:href="#D" class="L"/><path d="M326.66 439.38c5.38-52.22 25-112.5 64.7-181.9h0q-4.07 1.88-8.06 3.88l-.59.29-3.65 1.88-1 .53q-5.64 3-11.13 6.23l-.9.53-3.46 2.1-.86.54q-5.37 3.35-10.56 6.93l-1.08.75-3.23 2.29-.65.47q-3.27 2.39-6.47 4.84l-.62.48-3 2.39-1.18.94-3 2.45h0c-2.11 1.75-4.18 3.55-6.24 5.37l-1.14 1-2.69 2.45-1.32 1.18q-4.27 4-8.37 8.17l-1.37 1.41-2.37 2.47-1.37 1.48Q305 320.77 303 323c-.46.51-.92 1-1.37 1.54l-2.11 2.46-1.51 1.78-2 2.44-1.61 2-3.15 4-1.62 2.11-1.79 2.4-1.59 2.18-1.68 2.33-2.8 4.05-1.48 2.22-1.65 2.5-1.48 2.31-1.69 2.71-1.28 2.07q-1.32 2.19-2.6 4.4l-1.23 2.16-1.61 2.87-1.19 2.19-1.89 3.59-1.21 2.34-1.9 3.84-1 2.09-1.54 3.29-.91 2q-1.11 2.47-2.17 5l-.65 1.57-1.56 3.82-.79 2-1.45 3.8-.61 1.65q-1 2.63-1.86 5.26l-.56 1.7q-.66 2-1.29 4l-.59 1.91q-.72 2.31-1.38 4.63l-.29 1q-.78 2.76-1.5 5.54l-.45 1.78-.55 2.24a356.84 356.84 0 0 0-4 19.64l-.32 1.95-.24 1.51q-.45 2.94-.82 5.89c-.06.43-.11.87-.16 1.3l-.55 4.79-.18 1.81-.45 5.06-.09 1q-.23 3-.38 6.05c0 .53-.05 1.07-.08 1.6q-.11 2.36-.18 4.71c0 .59 0 1.18-.05 1.77l-.07 6.17v.1q0 3.31.08 6.62c0 .76.06 1.52.08 2.28l.17 4.41.16 2.66.25 4 .24 2.83.34 3.77c.09 1 .21 1.94.31 2.91l.42 3.64.39 2.95.5 3.55.47 3 .58 3.49.54 3 .66 3.44.61 3 .74 3.4.68 2.93.82 3.36.75 2.91.9 3.34.81 2.87 1 3.31.87 2.84 1.07 3.28.93 2.8 1.15 3.27 1 2.74 1.25 3.27 1 2.68 1.34 3.28 1.08 2.59 1.46 3.33 1.09 2.47c.52 1.16 1.07 2.3 1.61 3.44l1.08 2.3c.6 1.26 1.23 2.5 1.86 3.75l.95 1.9q2.88 5.61 6 11.07l1.09 1.84 2.11 3.58 1.33 2.14 2 3.19c.48.76 1 1.5 1.47 2.24l2 3c.51.76 1 1.52 1.56 2.28.66 1 1.32 1.92 2 2.88l1.65 2.3 2 2.77c.66.92 1.15 1.53 1.72 2.29l2.07 2.7 1.79 2.26 2.12 2.63 1.85 2.23 2.17 2.57 1.91 2.2 2.22 2.5a79.92 79.92 0 0 0 2 2.16l1.15 1.25c2.9 1.92-68.91-139.3-2.51-241.08l21.88-1.35zm331.28-60.45s-2.1 20.81-50.63 28.22c23.11 1.6 47.74-.46 71.38-9.51 3.22 3.61-20.75-18.71-20.75-18.71z" fill="#edbf2e"/><path d="M304.74,441s-11,1.14-30.77-1.89" class="L"/><path d="M305.35 447l-1.19.15-1.07.1-2.08.08c-1.37 0-2.73 0-4.08-.16a61 61 0 0 1-8-1.22l-3.9-1a31.69 31.69 0 0 1-3.83-1.25 22.55 22.55 0 0 1-7.25-4.59 23.84 23.84 0 0 1 4.11-1.63 31.51 31.51 0 0 1 3.95-.91c2.59-.42 5.12-.55 7.64-.79l7.45-.53 3.63-.17h1.78.86.73z" class="E"/><path d="M677,396.19s-10.71-14.3-40.38-31" class="L"/><path d="M672.14 399.78l-1.77-1.91-2-2.12-4.27-4.25c-2.92-2.82-5.95-5.62-9-8.4s-6.3-5.44-9.43-8.32c-1.56-1.44-3.13-2.91-4.63-4.52a48 48 0 0 1-4.39-5.1 43.5 43.5 0 0 1 6.65 1.34 60 60 0 0 1 6.24 2.24c2 .89 4 1.83 5.91 2.91s3.84 2.13 5.72 3.29a96.15 96.15 0 0 1 10.83 7.68c1.71 1.45 3.43 2.91 5 4.53.82.79 1.61 1.63 2.39 2.5.39.45.78.87 1.16 1.35s.72.89 1.22 1.59z" class="E"/><use xlink:href="#D" class="B C D F"/><path d="M520.11 249.17a367.15 367.15 0 0 0-42.48 4.93l-10.44 2.06c-3.44.64-6.9 1.61-10.35 2.41l-10.27 2.72-10.14 3.11A312.8 312.8 0 0 0 397 280.14a347.55 347.55 0 0 0-37.25 21A183.48 183.48 0 0 1 394.83 276a218.27 218.27 0 0 1 39.76-17.3l10.42-3.05c3.49-.97 7-1.82 10.54-2.59s7.1-1.41 10.66-2 7.15-1.08 10.74-1.52a189.39 189.39 0 0 1 43.16-.37z" class="G"/><g class="E"><path d="M529.83 233.83a70.16 70.16 0 0 1 15.44-1.92l7.67.13 7.68.52a138.69 138.69 0 0 1 15.35 2.2 95.37 95.37 0 0 1 15.08 4.24l-3.9 11.35-13.94-4.07-14.25-3.71-7.25-1.76-7.3-1.81a85.14 85.14 0 0 1-14.58-5.17zm-117.38 7.66a96.65 96.65 0 0 1 13.65-4.15 138.88 138.88 0 0 1 14-2.45l7-.71 7-.34a57.35 57.35 0 0 1 14.27 1.58 77.5 77.5 0 0 1-13.13 5.5l-6.59 2-6.55 1.93-12.94 4-12.79 4z"/><circle cx="514.26" cy="233.25" r="5.84"/><circle cx="497.99" cy="233.25" r="4.13"/><path d="M427.29 501.13l-13-4.39-31.2-10.54-37.6-12.71-32.49-11-15.81-5.34-.22-.08a10.005 10.005 0 0 0-5.32 19.29l13 4.39 31.2 10.54 37.6 12.7 32.49 11 15.81 5.34.22.08a10.005 10.005 0 0 0 5.32-19.29zm269.89-47.23l-12.72 5.1-30.54 12.31-36.81 14.84L585.3 499q-7.74 3.12-15.47 6.24l-.22.08c-2.51 1-4.56 2.17-6 4.6a10.18 10.18 0 0 0-1 7.71 10.06 10.06 0 0 0 4.6 6c2.22 1.18 5.26 2 7.7 1l12.73-5.13 30.54-12.31L655 492.33l31.81-12.82 15.47-6.24.22-.09c2.51-1 4.56-2.17 6-4.59a10 10 0 0 0-3.59-13.69c-2.22-1.17-5.27-2-7.71-1z"/></g><defs ><path id="B" d="M233.25,500c0-147.32,119.43-266.75,266.75-266.75S766.75,352.68,766.75,500A266.22,266.22,0,0,1,668.1,707.12q-8.21,6.68-16.94,12.69C591,758,515,758,446.39,751.89c-6.66-1-13.3-2.26-19.89-3.71-26.33-5.8-51.82-14.75-75.37-27.8Q342.4,715,334.2,708.76a199.59,199.59,0,0,1-15.8-13.38q-7.14-6.63-13.79-13.78A265.86,265.86,0,0,1,233.25,500Z"/><path id="C" d="M291.53,666.4q6.25,7.85,13.08,15.2,6.64,7.14,13.79,13.78a199.59,199.59,0,0,0,15.8,13.38c5.46,4.16,11.12,8,16.93,11.62,23.55,13,49,22,75.37,27.8,6.59,1.45,13.23,2.7,19.89,3.71C515,758,591,758,651.16,719.81q8.73-6,16.94-12.69a268.58,268.58,0,0,0,41.39-42c-82.46,0-137.71-94.64-205-94.64S368.44,666.4,291.53,666.4Z"/><path id="D" d="M421.52,244.56C335.16,273.62,263.78,346.74,245.06,429.8,213,556.34,262.89,634,307.17,681.6c4.37,4.7-69.46-138.26-2.43-241,61.1-2.32,152.42-14.38,195.78-62.86C496.18,398.87,484,415,486,418.18c2.88,4.51,38.19-5.53,47.84-23.54l.83-3.61c34.72,12.58,91.76,26.59,144,6.61C801.81,535.94,691.29,689,700.3,679a265.78,265.78,0,0,0,69-179c0-86.42-44.28-148.89-44.28-148.89C694.5,296.7,641.5,259.24,580.22,242"/></defs></svg>