<svg xmlns="http://www.w3.org/2000/svg" xmlns:xlink="http://www.w3.org/1999/xlink" viewBox="0 0 1000 990" xmlns:v="https://vecta.io/nano"><style><![CDATA[.B{stroke:#592d3d}.C{stroke-width:12}.D{fill:none}.E{stroke-miterlimit:10}.F{fill:#592d3d}.G{fill:#f3ab98}.H{fill:#fff}.I{fill:#fdd2b2}.J{fill:#8d5638}]]></style><path d="M610,758.72c90.76,0,72,114.24,72.87,241.28H610Z" class="I"/><path d="M632.74 831.87L610 870l11.38 130h31.76c.77-180.27-20.4-168.13-20.4-168.13z" class="G"/><use xlink:href="#B" class="I"/><path d="M269.61 634.48l2.11 3.58 1.33 2.14 2 3.19 1.46 2.24 2 3 1.56 2.28 2 2.88 1.65 2.3 2 2.77 1.73 2.29 2.07 2.7 1.79 2.26 2.12 2.63 1.85 2.23 2.17 2.57 1.91 2.2 2.22 2.5 2 2.16 2.6 2.79 1.21 1.28 3.91 4 .26.27 3.91 3.81 1.58 1.5 2.86 2.66 1.16 1.06 3.14 2.78q4.9 4.27 10 8.19 8.19 6.24 16.93 11.62c23.55 13 49 22 75.37 27.8 6.59 1.45 13.23 2.7 19.89 3.71 42.1 3.75 87 5.18 129.28-3.08C508.45 729 185.59 612.74 388.8 257.48h0a249.02 249.02 0 0 0-8.06 3.88l-.59.29-3.65 1.88-1 .53a280.52 280.52 0 0 0-11.13 6.23l-.9.53-3.46 2.1-.87.54q-5.36 3.35-10.55 6.93l-1.08.75-3.23 2.29-.66.47q-3.27 2.39-6.46 4.84l-.62.48-3 2.39-1.17.94-3 2.45h0c-2.11 1.75-4.19 3.55-6.24 5.37l-1.14 1-2.69 2.45L318 305q-4.28 4-8.37 8.17l-1.38 1.41-2.36 2.47-1.37 1.48q-2.06 2.2-4.06 4.46c-.45.51-.91 1-1.36 1.54l-2.11 2.45-1.51 1.79-2 2.44-1.61 2-3.16 4-1.61 2.11-1.79 2.4-1.59 2.18-1.68 2.33q-1.42 2-2.8 4.05l-1.49 2.22-1.64 2.5-1.49 2.31-1.68 2.71-1.28 2.07-2.61 4.4-1.22 2.16-1.61 2.87-1.19 2.19-1.9 3.59-1.2 2.34-1.91 3.84-1 2.09-1.53 3.29-.91 2q-1.11 2.47-2.17 5l-.65 1.57-1.56 3.82-.79 2-1.45 3.8-.62 1.65q-.94 2.63-1.85 5.26l-.56 1.7q-.66 2-1.29 4l-.6 1.91-1.37 4.63-.29 1q-.78 2.76-1.5 5.54c-.16.59-.3 1.19-.45 1.78l-1 4.18-.42 1.75-1.24 5.71-.15.77q-.51 2.55-1 5.1l-.32 1.82-.74 4.5-.24 1.52-.83 5.88-.15 1.3-.55 4.79-.19 1.81-.45 5.06c0 .35-.06.69-.08 1q-.22 3-.39 6.05c0 .53 0 1.07-.07 1.6q-.1 2.36-.18 4.71v1.77l-.08 6.17v.1l.08 6.62c0 .76.06 1.52.08 2.28l.17 4.41c0 .89.11 1.77.16 2.66l.25 4 .24 2.83.34 3.77c.09 1 .21 1.94.31 2.91l.42 3.64.39 2.95.5 3.55.47 3 .57 3.49.55 3 .65 3.44.62 3 .74 3.4.68 2.93.82 3.36.74 2.91.91 3.34c.26 1 .53 1.92.81 2.87l1 3.31.88 2.84 1.06 3.28.94 2.8 1.15 3.27 1 2.74 1.24 3.27c.35.89.69 1.79 1 2.68l1.34 3.28 1.08 2.59 1.45 3.33 1.1 2.47 1.6 3.44 1.08 2.3 1.87 3.75.95 1.9q2.88 5.61 6 11.07l1.02 1.69z" class="G"/><use xlink:href="#B" class="B C D E"/><path d="M386.12,758.72c-90.77,0-72,114.24-72.87,241.28h72.87Z" class="I"/><path d="M367.23 831.87L390 870l-11.39 130h-31.73c-.81-180.27 20.35-168.13 20.35-168.13z" class="G"/><path d="M619.47,1070H380.53a13.28,13.28,0,0,1-13.27-13.28V772a13.28,13.28,0,0,1,13.27-13.28H613.76c13.09,0,19,7.66,19,19.88v278.08A13.28,13.28,0,0,1,619.47,1070Z" class="I"/><path d="M629.05 766.62a19.33 19.33 0 0 1-2.51-4 17.25 17.25 0 0 0-8.28-3.51 28.88 28.88 0 0 0-4.5-.34H380.53A13.28 13.28 0 0 0 367.26 772c29 10.42 83.29 16.24 132.74 16.24 63.06 0 104.38-9.35 129.05-21.62z" class="G"/><g class="B C D E"><path d="M610 758.72c90.76 0 72 114.24 72.87 241.28h-50.13M386.12 758.72c-90.77 0-72 114.24-72.87 241.28h50.07" stroke-linecap="square"/><path d="M380.53,758.82l233.23-.1"/></g><path d="M380.53,1070H497.15C388,1070,396.24,838.82,367.26,838.82v217.86A13.28,13.28,0,0,0,380.53,1070Z" class="G"/><path d="M361.26 860.85c-.19-3.67-.11-7.34.05-11s.47-7.35.86-11l.65-5.51c.25-1.84.49-3.67.85-5.51a44.18 44.18 0 0 1 3.59-11 44.18 44.18 0 0 1 3.59 11c.36 1.84.62 3.67.85 5.51l.65 5.51c.38 3.67.68 7.34.85 11s.25 7.34.06 11z" class="F"/><path d="M632.74 870v8 102.75 8.53 67.41a13.28 13.28 0 0 1-13.27 13.31H380.53a13.28 13.28 0 0 1-13.27-13.28v-58.2-137.67" class="B C D E"/><path d="M626.74 870c-.19-4.17-.1-8.35.06-12.53s.47-8.35.85-12.53l.65-6.27c.24-2.09.49-4.17.85-6.26a55.09 55.09 0 0 1 3.59-12.53 55.09 55.09 0 0 1 3.59 12.53c.36 2.09.62 4.18.85 6.26l.65 6.27c.38 4.18.69 8.35.85 12.53s.25 8.36.06 12.53zm-56.06-27.55C570.9 833 582.9 829 588.9 835a10.611 10.611 0 1 1-15.16 14.85 10.4 10.4 0 0 1-3.06-7.4zm-162.57-.3C407.9 834 416.9 830 422.9 833c8 3 8 14 0 19-4 2-8 0-11.75-2.48a10.39 10.39 0 0 1-3.04-7.37z" class="F"/><g class="G"><path d="M500 831.77a27.13 27.13 0 0 1 1.5 5.84 42.47 42.47 0 0 1 .49 5.84l.3 11.69.25 11.69.17 11.67.28 46.74v46.74l-.53 23.37c-.1 3.89-.29 7.79-.67 11.68a92.5 92.5 0 0 1-1.77 11.69 92.5 92.5 0 0 1-1.77-11.69c-.38-3.89-.57-7.79-.67-11.68l-.53-23.37v-46.74l.18-46.73.17-11.7.33-11.68.33-11.68a44.11 44.11 0 0 1 .5-5.84 27.13 27.13 0 0 1 1.44-5.84z"/><path d="M425.22 883a18.51 18.51 0 0 1 4.67-1.5 29.75 29.75 0 0 1 4.68-.5l9.35-.33 18.7-.41 37.38-.27h37.39l18.7.53 9.34.67a61.34 61.34 0 0 1 9.35 1.78 59.17 59.17 0 0 1-9.35 1.77l-9.34.67-18.7.52c-12.46.19-24.92 0-37.39 0s-24.93 0-37.4-.15c-6.23-.06-12.46-.26-18.68-.5l-9.35-.34a29.5 29.5 0 0 1-4.67-.5 18.45 18.45 0 0 1-4.68-1.44zm17.19 31.38a12.51 12.51 0 0 1 3.74-1.11 18.35 18.35 0 0 1 3.62-.15l7.17.21 14.34.17 28.76-.21c9.67-.29 19.26-.43 28.88-.39 4.81 0 9.62.13 14.42.24a70.37 70.37 0 0 1 7.23.47 38.17 38.17 0 0 1 7.27 1.53 36.56 36.56 0 0 1-7.16 2 61.08 61.08 0 0 1-7.21.86c-4.82.35-9.64.65-14.45.82-9.64.36-19.27.32-28.88.45-4.81 0-9.61.22-14.48.1l-14.52-.31c-4.83-.18-9.68-.58-14.5-1.08l-7.23-.9a16.82 16.82 0 0 1-3.57-.84 11.51 11.51 0 0 1-3.43-1.86zm-3.48 35.49a13.07 13.07 0 0 1 3.82-1.5 19.13 19.13 0 0 1 3.82-.49l7.63-.32 15.28-.41L500 947h30.54c5.09.09 10.18.3 15.27.53a72.73 72.73 0 0 1 7.63.66 41.2 41.2 0 0 1 7.66 1.81 41.25 41.25 0 0 1-7.63 1.77 70.34 70.34 0 0 1-7.64.67l-15.27.53c-10.18.2-20.37.06-30.55 0l-30.54-.25-15.28-.49-7.63-.37a19.33 19.33 0 0 1-3.82-.5 12.85 12.85 0 0 1-3.81-1.49z"/></g><g fill="#a56941"><use xlink:href="#C"/><use xlink:href="#C"/><path d="M670.06 788.32q3.3-3.32 6.5-6.71c45.16-54.71 48.7-112.39 57.87-148.37V619l-2.44.84 2.44-4.56c-.06-.1-3.49 3.38-3.55 3.28a33.65 33.65 0 0 1-5.08 3.44l-32.55 11.28a220.36 220.36 0 0 1-43.89 3.82c-63-.26-78.3-19.69-113.2-20s-76.95-1.23-96.49 1.58-37.06 11.81-88 12.85c-44.15.9-83.62-10-83.62-10v12.68c14 36.84 4.58 64.43 29 110.49 0-.65 0-1.31-.05-2-4.39-21.71 0-41.57 2.12-49.19l.36-2.92v-.07-.2.1c0 .14.11.45.22.9l.36-1.11s.89 4.91 2.54 12.74c3.93 15.48 11.16 43 19.45 70.08.92 2.43 1.87 4.81 2.84 7.11a16.81 16.81 0 0 0 .23.65c27.94 29.88 62.13 55.36 93.14 74.5l9.48 5.61a86.4 86.4 0 0 1 2.41-43.06l.21 1.08c.24-.77.4-1.19.4-1.19s11.43 47.45 34.52 62.83c.57.24 1.15.47 1.73.66l-.44.16.1.06 1.77 1a208.45 208.45 0 0 0 21.34 8.53c5.41 1.57 9.84 2.39 12 2.39 4.75 0 32-10.61 48.69-49.07 1.1-3.27 1.63-5.32 1.63-5.32l.28.69.32-.8a56 56 0 0 1 8 30.14 526 526 0 0 0 72.06-47.55v-.11l.8-1.94.06-.13.81-2h0l.84-2.08h0c14.48-35.83 23.58-89 23.58-89 .06-.18.28.09.6.74v-.85s16.27 22.41 10.61 62.24z"/></g><g class="J"><path d="M343.5 706.91a23.12 23.12 0 0 0 13.79 5.8C343 701.34 337.78 690.32 336 685.36a271.66 271.66 0 0 1-10-54.55 329.37 329.37 0 0 1-57.87-9.33v12.68c14 36.84 4.58 64.43 29 110.49 0-.65 0-1.31-.05-2-4.39-21.71 0-41.57 2.12-49.19l.36-2.92v-.07-.2.1c0 .14.11.45.22.9l.36-1.11s.89 4.91 2.54 12.74c3.93 15.48 11.16 43 19.45 70.08.92 2.43 1.87 4.81 2.84 7.11a16.81 16.81 0 0 0 .23.65c27.94 29.88 62.13 55.36 93.14 74.5l9.48 5.61a86.4 86.4 0 0 1 2.41-43.06l.21 1.08c.24-.77.4-1.19.4-1.19s11.43 47.45 34.52 62.83c.57.24 1.15.47 1.73.66l-.44.16.1.06 1.77 1a208.45 208.45 0 0 0 21.34 8.53c5.41 1.57 9.84 2.39 12 2.39 3.53 0 19.51-5.88 34.33-24.72C466.94 846.06 380.78 800 343.5 706.91z"/><path d="M433.87,816.78s9.49,9,29.29,4.09c-1.47,3.55-5.93,5.4-5.93,5.4s6.17,8.13,19.06,7.75c0,0-7.73,4.8-15.53,1.65A169.67,169.67,0,0,0,442.41,834l-13.51-9.38Z"/></g><path d="M351.7 631.52q-2.64.48-5.28.84l-2.65.35-2.66.24-5.32.38-5.33.14c-3.56.07-7.11-.07-10.67-.2s-7.1-.37-10.64-.71l-10.61-1.1c-3.54-.4-7.05-1-10.56-1.56a196.89 196.89 0 0 1-21-4.57l-3.85-1.08 2.1-7.57 3.88.94c6.61 1.61 13.47 3.13 20.27 4.49s13.68 2.64 20.57 3.72c3.44.59 6.89 1 10.35 1.56a146.69 146.69 0 0 0 10.39 1.31c6.98.95 13.95 1.66 21.01 2.82z" class="F"/><path d="M669.31 789.07c10.26-10.26 9.29-9.63 17.79-20.94-1.5-34.48-30-53.71-30-53.71l1.9 11.66c.84.16 7.91 18.47 7.56 46.08zm-93.95 70.8c-5.72-24.9-22.42-29.15-22.42-29.15l3.21 19.45a96.48 96.48 0 0 1 3.9 19.14c5-2.72 10.16-5.66 15.45-8.78z" class="J"/><path d="M340.09 735.62a90.52 90.52 0 0 0 6.59 20.14A121.79 121.79 0 0 0 357 773.89l3.09 4.18 1.56 2.07 1.66 2 3.35 4 3.56 3.78 1.77 1.89 1.9 1.78 3.77 3.58c2.58 2.32 5.33 4.45 7.94 6.75l-6.28 3.32-.06-4c.05-1.32.07-2.64.2-4s.23-2.65.46-4c.11-.66.18-1.32.32-2l.43-2a43.84 43.84 0 0 1 2.52-7.67A35 35 0 0 1 385 780c.34-.6.73-1.18 1.13-1.77.21-.29.4-.57.64-.87s.42-.54.78-.95l4.46-5.06.56 6.55a39.9 39.9 0 0 0 .53 3.61 49.87 49.87 0 0 0 .84 3.68 48 48 0 0 0 2.51 7.14 36.29 36.29 0 0 0 3.9 6.55 29 29 0 0 0 5.62 5.42 23.79 23.79 0 0 1-7-4.07 31.32 31.32 0 0 1-5.54-6.17 43.85 43.85 0 0 1-4-7.32c-.54-1.28-1-2.58-1.46-3.91a34 34 0 0 1-1.11-4.16l5 1.49c0 .08-.22.35-.34.55s-.26.46-.39.69c-.25.48-.5 1-.73 1.48a33.23 33.23 0 0 0-1.24 3.15 44.39 44.39 0 0 0-1.62 6.69 55.25 55.25 0 0 0-.65 6.94c-.06 1.16 0 2.34 0 3.51l.16 3.53.4 8.64-6.68-5.32-4.29-3.46-2.14-1.75c-.7-.59-1.44-1.14-2.09-1.79l-4-3.83-2-1.91c-.64-.67-1.25-1.36-1.86-2.05l-3.67-4.15c-1.21-1.39-2.26-2.92-3.38-4.39a105.25 105.25 0 0 1-6.17-9.19 91.82 91.82 0 0 1-8.63-20.3c-1.93-7.01-3.11-14.36-2.45-21.58z" class="F"/><path d="M638.78 724.34A5.35 5.35 0 0 1 640 726a16.7 16.7 0 0 1 .84 1.94A33.87 33.87 0 0 1 642 732a58.47 58.47 0 0 1 1.08 8.32 94.26 94.26 0 0 1-.54 16.71 109.35 109.35 0 0 1-9 32.28A90.58 90.58 0 0 1 614.3 817a70.11 70.11 0 0 1-28.51 17 111.55 111.55 0 0 0 23.91-21.31A118.63 118.63 0 0 0 626.25 786a157.47 157.47 0 0 0 10.09-30 151.49 151.49 0 0 0 2.81-15.76l.63-8a33.51 33.51 0 0 0-.08-4 14.64 14.64 0 0 0-.26-2 5.74 5.74 0 0 0-.66-1.9z" class="H"/><path d="M262.51 621.57c22.24 43.9 7.22 72.38 35.18 124.3-7-29 2.43-55.68 2.43-55.68S310 744.78 325 780.12c7.28 23.46 69.85 61.4 103.55 81.17a86.33 86.33 0 0 1 2.32-43.58s11.89 49.36 35.91 63.71c13.43 7.58 30.15 11.89 35.13 11.89s34.53-11.58 50.92-54.5a56 56 0 0 1 7.9 30.68c22.18-12 53.39-25.68 72.45-47.65 26.34-34.69 26.34-95.84 26.34-95.84s16.48 22.85 10.41 63.3c61.76-68.3 54.34-143.14 71.42-175.57" class="B C D E"/><path d="M734.38 616.77a3.8 3.8 0 0 0 1.16 1.29 4 4 0 0 0 2.15.7 3.81 3.81 0 0 0 1.68-.34h0-.09l-.2.11-.48.24-1 .51-2 1q-2 1-4 2l-8.13 3.81-8.27 3.57-8.47 3.26-4.39 1.43a39.36 39.36 0 0 1-4.75 1.15l-1.18.16-1.12.13-2.23.23-4.49.4a85.55 85.55 0 0 1-18.09-.43c5.86-1.58 11.62-2.89 17.37-4.29l8.59-2a35.39 35.39 0 0 0 3.81-1.36c1.31-.52 2.63-1.14 4-1.72 2.65-1.19 5.29-2.47 7.93-3.77l7.93-3.93 7.94-4 4-2 2-1 1-.48.53-.25.3-.13.16-.08h.05a4.11 4.11 0 0 1 5.19 1.57l2.13 3.38-7.06 4.19z" class="F"/><path d="M296.49 572.61v-12.93a49.6 49.6 0 0 1 1.94-25.32 46 46 0 0 1 3.51-7.65C305.29 518 314.29 511 323.29 508c14-4 31-2 42 9 14 15 12 37 12.45 55.62m245.57.38c-2.34-26.62 1.66-63.62 36.13-67.17a45 45 0 0 1 8.12 0 43.68 43.68 0 0 1 22.44 8.58c18 15 14 39 13.95 58.63" stroke-linecap="round" class="B C D E"/><path d="M463.75 593.17c15.55 0 25.12 12.76 36.49 12.76s25.91-12.76 41.27-12.76 23.72 11.12 23.72 26.52c0 16.65-16.75 46-62.6 46s-65.4-27.74-65.4-45.45c0-16.35 10.97-27.07 26.52-27.07z" class="B C E H"/><path d="M477.85 596.6v65.5m49.14-65.5v65.5" class="D B C E"/><path d="M290.23 414.02h439.24v64.15H290.23z" class="G"/><use xlink:href="#D" fill="#a56941"/><path d="M325.14 464.92c.9-57.85 19.88-126.43 66.22-207.44h0q-4.07 1.88-8.06 3.88l-.59.29-3.65 1.88-1 .53q-5.64 3-11.13 6.23l-.9.53-3.46 2.1-.86.54q-5.37 3.35-10.56 6.93l-1.08.75-3.23 2.29-.65.47q-3.27 2.39-6.47 4.84l-.62.48-3 2.39-1.18.94-3 2.45h0c-2.11 1.75-4.18 3.55-6.24 5.37l-1.14 1-2.69 2.45-1.32 1.18q-4.27 4-8.37 8.17l-1.37 1.41-2.37 2.47-1.37 1.48Q305 320.77 303 323c-.46.51-.92 1-1.37 1.54l-2.11 2.45-1.52 1.81-2 2.44-1.61 2-3.15 4-1.62 2.11-1.79 2.4-1.59 2.18-1.68 2.33-2.8 4.05-1.48 2.22-1.65 2.5-1.48 2.31-1.69 2.71-1.28 2.07q-1.32 2.19-2.6 4.4l-1.23 2.16-1.61 2.87-1.19 2.19-1.89 3.59-1.21 2.34-1.9 3.84-1 2.09-1.54 3.29-.91 2q-1.11 2.47-2.17 5l-.65 1.57-1.56 3.82-.79 2-1.45 3.8-.61 1.65q-1 2.63-1.86 5.26l-.56 1.7q-.66 2-1.29 4l-.59 1.91q-.72 2.31-1.38 4.63l-.29 1q-.78 2.76-1.5 5.54l-.45 1.78-.55 2.24a358.43 358.43 0 0 0-4 19.63l-.32 2-.24 1.52q-.45 2.93-.82 5.88c-.06.43-.11.87-.16 1.3l-.55 4.79-.18 1.81-.45 5.06-.09 1q-.23 3-.38 6.05c0 .53-.05 1.07-.08 1.6q-.11 2.36-.18 4.71c0 .59 0 1.18-.05 1.77l-.07 6.17v.1l.08 6.62c0 .76.06 1.52.08 2.28l.17 4.41.16 2.66.25 4 .24 2.83.34 3.77c.09 1 .21 1.94.31 2.91l.42 3.64.39 2.95.5 3.55.47 3 .58 3.49.54 3 .66 3.44.61 3 .74 3.4.68 2.93.82 3.36.75 2.92.9 3.33c.26 1 .53 1.92.81 2.87l1 3.31.87 2.84 1.07 3.28.93 2.8 1.15 3.27 1 2.74 1.25 3.27 1 2.68 1.34 3.28 1.08 2.59 1.46 3.33 1.09 2.47c.52 1.16 1.07 2.3 1.61 3.44l1.08 2.3c.6 1.26 1.23 2.5 1.86 3.75l.95 1.9q2.88 5.61 6 11.07l1.09 1.84 2.11 3.58 1.33 2.14 2 3.19c.48.76 1 1.5 1.47 2.24l2 3c.51.76 1 1.52 1.56 2.28.66 1 1.32 1.92 2 2.88l1.65 2.3 2 2.77c.66.92 1.15 1.53 1.72 2.29l2.07 2.7 1.79 2.26 2.12 2.63 1.85 2.23 2.17 2.57 1.91 2.2 2.22 2.5a79.92 79.92 0 0 0 2 2.16l1.22 1.31c2.37 1.37-57.48-103.69-17.57-216.15 7.56-.49 19.79-.7 35.36-.86z" class="J"/><path d="M420.82 134.59A71.58 71.58 0 0 1 433 112.84l4.16-4.74 4.53-4.41c1.53-1.41 3.21-2.73 4.88-4l5.17-3.65c1.76-1.15 3.6-2.21 5.47-3.19l2.82-1.43a31 31 0 0 1 2.86-1.35l5.89-2.29 6-1.81a72 72 0 0 1 24.86-2 112.32 112.32 0 0 0-24 5c-1 .26-1.9.7-2.85 1l-2.85 1-5.54 2.45c-1.85.8-3.58 1.85-5.38 2.77s-3.44 2.09-5.17 3.12-3.33 2.28-5 3.41-3.15 2.52-4.76 3.75-3 2.68-4.53 4l-4.28 4.31a110.47 110.47 0 0 0-14.46 19.81zm99.29 114.58a367.15 367.15 0 0 0-42.48 4.93l-10.44 2.06c-3.44.64-6.9 1.61-10.35 2.41l-10.27 2.72-10.14 3.11A312.8 312.8 0 0 0 397 280.14a347.55 347.55 0 0 0-37.25 21A183.48 183.48 0 0 1 394.83 276a218.27 218.27 0 0 1 39.76-17.3l10.42-3.05c3.49-.97 7-1.82 10.54-2.59s7.1-1.41 10.66-2 7.15-1.08 10.74-1.52a189.39 189.39 0 0 1 43.16-.37z" class="H"/><path d="M529.83 233.83a70.16 70.16 0 0 1 15.44-1.92l7.67.13 7.68.52a138.69 138.69 0 0 1 15.35 2.2 95.37 95.37 0 0 1 15.08 4.24l-3.89 11.35-13.95-4.07-14.25-3.71-7.25-1.76-7.3-1.81a85.14 85.14 0 0 1-14.58-5.17z" class="F"/><use xlink:href="#D" class="B C D E"/><path d="M284.48 462.85l.53-1.94.62-1.78 1.51-3.42a48.48 48.48 0 0 1 3.85-6.42 37.51 37.51 0 0 1 4.88-5.75 17 17 0 0 1 7-4 31 31 0 0 1-.87 7.68l-.93 3.32-1 3.25q-1 3.23-2 6.39l-1 3.13-.56 1.53-.56 1.4zm426.2-3.27a35 35 0 0 1 6.23.06 60.73 60.73 0 0 1 6.24.86l3.12.64a25.74 25.74 0 0 1 3.11.86 18.53 18.53 0 0 1 6.24 3.58 18.74 18.74 0 0 1-6.24 3.59 25.68 25.68 0 0 1-3.11.85l-3.12.65q-3.12.58-6.24.86a35 35 0 0 1-6.23.05z" class="F"/><path d="M444.84 452.07a132.29 132.29 0 0 1 1.49-14.25c.72-4.7 1.6-9.37 2.61-14s2.15-9.25 3.44-13.83A132.09 132.09 0 0 1 457 396.4a131.77 131.77 0 0 1-1.5 14.25q-1.08 7.05-2.61 14-1.53 6.95-3.44 13.83a137 137 0 0 1-4.61 13.59zm223.16 0a134.88 134.88 0 0 1 1.49-14.25q1.09-7.05 2.61-14 1.52-6.95 3.39-13.82a132.09 132.09 0 0 1 4.57-13.58 131.76 131.76 0 0 1-1.49 14.25q-1.1 7.05-2.61 14a228.93 228.93 0 0 1-3.45 13.83 134.48 134.48 0 0 1-4.51 13.57z" class="H"/><path d="M427.29 501.13l-13-4.39-31.2-10.54-37.6-12.71-32.49-11-15.81-5.34-.22-.08a10.005 10.005 0 0 0-5.32 19.29l13 4.39 31.2 10.54 37.6 12.7 32.49 11 15.81 5.34.22.08a10.005 10.005 0 0 0 5.32-19.29zm269.89-47.23l-12.72 5.1-30.54 12.31-36.81 14.84L585.3 499q-7.74 3.12-15.47 6.24l-.22.08c-2.51 1-4.56 2.17-6 4.6a10.18 10.18 0 0 0-1 7.71 10.06 10.06 0 0 0 4.6 6c2.22 1.18 5.26 2 7.7 1l12.73-5.13 30.54-12.31L655 492.33l31.81-12.82 15.47-6.24.22-.09c2.51-1 4.56-2.17 6-4.59a10 10 0 0 0-3.59-13.69c-2.22-1.17-5.27-2-7.71-1z" class="F"/><g class="H"><circle cx="382.91" cy="594.66" r="33.84" opacity=".2"/><path d="M375.87 631l43.31-41.74a147.47 147.47 0 0 0-7.57-12.9l-45.87 44.21c1.9 1.33 7.98 9.51 10.13 10.43z" opacity=".4"/></g><circle cx="382.91" cy="594.66" r="33.84" class="B C D"/><g class="H"><path d="M378 580.47c1.22 3.83-3.5 6.78-7 7.37-3.54 0-5.9-2.36-7.08-5.31-.59-2.95 0-5.9 2.36-7.67 2.95-1.18 7.08-2.36 9.7.67a6.85 6.85 0 0 1 2.02 4.94zm6.32-2.26a2.29 2.29 0 0 1-4.49.19c0-1.77.59-2.36 2.27-2.42a2.22 2.22 0 0 1 2.22 2.22z"/><circle cx="615.2" cy="594.66" r="33.84" opacity=".2"/><path d="M610.12 628.11l38.54-38.54c-.21-1.37-5.91-8.1-6.29-9.44l-41.72 41.74c1.35.37 8.1 6.04 9.47 6.24z" opacity=".4"/></g><circle cx="615.2" cy="594.66" r="33.84" class="B C D"/><path d="M607.36 579.91c1 3.25-3 5.75-6 6.25-3 0-5-2-6-4.5-.5-2.5 0-5 2-6.5 2.5-1 6-2 8.23.57a5.85 5.85 0 0 1 1.77 4.18zm5.34-1.91a1.94 1.94 0 0 1-3.8.16c0-1.5.5-2 1.92-2a1.88 1.88 0 0 1 1.88 1.84z" class="H"/><path d="M416.74,594.66q83.68-30,164.63,0" class="B C D E"/><path d="M615.2 634.5a39.9 39.9 0 0 1-39.6-35.5c-50-17.65-101.46-17.64-153.1 0a39.81 39.81 0 0 1-50.92 33.84 38 38 0 0 0 54.51-29.91c49.22-16.86 98.28-16.88 145.93 0a38 38 0 0 0 54.51 30 40 40 0 0 1-11.33 1.57z" opacity=".15"/><defs ><path id="B" d="M233.25,500c0-147.32,119.43-266.75,266.75-266.75S766.75,352.68,766.75,500A266.22,266.22,0,0,1,668.1,707.12q-8.21,6.68-16.94,12.69C591,758,515,758,446.39,751.89c-6.66-1-13.3-2.26-19.89-3.71-26.33-5.8-51.82-14.75-75.37-27.8Q342.4,715,334.2,708.76a199.59,199.59,0,0,1-15.8-13.38q-7.14-6.63-13.79-13.78A265.86,265.86,0,0,1,233.25,500Z"/><path id="C" d="M670.06 788.32q3.3-3.32 6.5-6.71c45.16-54.71 48.7-112.39 57.87-148.37V619l-2.44.84 2.44-4.56c-.06-.1-3.49 3.38-3.55 3.28a33.65 33.65 0 0 1-5.08 3.44l-32.55 11.28a220.36 220.36 0 0 1-43.89 3.82c-63-.26-63.24-14.87-113.2-20l-96.49 1.58c-25.69 3.84-37.06 11.81-88 12.85-44.15.9-83.62-10-83.62-10v12.68c14 36.84 4.58 64.43 29 110.49 0-.65 0-1.31-.05-2-4.39-21.71 0-41.57 2.12-49.19l.36-2.92v-.07-.2.1c0 .14.11.45.22.9l.36-1.11s.89 4.91 2.54 12.74c3.93 15.48 11.16 43 19.45 70.08.92 2.43 1.87 4.81 2.84 7.11a16.81 16.81 0 0 0 .23.65c27.94 29.88 62.13 55.36 93.14 74.5l9.48 5.61a86.4 86.4 0 0 1 2.41-43.06l.21 1.08c.24-.77.4-1.19.4-1.19s11.43 47.45 34.52 62.83c.57.24 1.15.47 1.73.66l-.44.16.1.06 1.77 1a208.45 208.45 0 0 0 21.34 8.53c5.41 1.57 9.84 2.39 12 2.39 4.75 0 32-10.61 48.69-49.07 1.1-3.27 1.63-5.32 1.63-5.32l.28.69.32-.8a56 56 0 0 1 8 30.14 526 526 0 0 0 72.06-47.55v-.11l.8-1.94.06-.13.81-2h0l.84-2.08h0c14.48-35.83 23.58-89 23.58-89 .06-.18.28.09.6.74v-.85s16.27 22.41 10.61 62.24z"/><path id="D" d="M710 667.66q-4.71 5.82-9.71 11.37c-2.5 2.77 2.58-1.12 9.71-11.37zm15-316.55C694.5 296.7 641.5 259.24 580.22 242l-6.35-1.71c-22.7-6.28-46.62-7-71.32-7-26.69 0-52.46 2.74-76.77 10l-4.26 1.27c-86.36 29.06-157.74 102.18-176.46 185.24C213 556.34 262.89 634 307.17 681.6c4.37 4.7-57.93-101.85-17.42-216 7.73-.29 20.24-.51 36.19-.67l15.5-50.61 17.44 50.38 93.88-.12 12.32-52.36L479 464.6l195.28.77 13.2-52.17 15 52.33 8.21.05C760.78 572 728.5 641.13 710 667.66A265.62 265.62 0 0 0 769.3 500c0-86.42-44.3-148.89-44.3-148.89z"/></defs></svg>