<svg xmlns="http://www.w3.org/2000/svg" xmlns:xlink="http://www.w3.org/1999/xlink" viewBox="0 0 1000 990" xmlns:v="https://vecta.io/nano"><style><![CDATA[.B{stroke:#592d3d}.C{stroke-miterlimit:10}.D{fill:none}.E{stroke-width:12}.F{fill:#592d3d}.G{fill:#fff}.H{fill:#f3ab98}.I{fill:#e2e2e2}.J{fill:#fdd2b2}.K{stroke-linecap:square}]]></style><path d="M610,758.72c90.76,0,72,114.24,72.87,241.28H610Z" class="J"/><path d="M632.74 831.87L610 870l11.38 130h31.76c.77-180.27-20.4-168.13-20.4-168.13z" class="H"/><use xlink:href="#B" class="J"/><path d="M269.61 634.48l2.11 3.58 1.33 2.14 2 3.19 1.46 2.24 2 3 1.56 2.28 2 2.88 1.65 2.3 2 2.77 1.73 2.29 2.07 2.7 1.79 2.26 2.12 2.63 1.85 2.23 2.17 2.57 1.91 2.2 2.22 2.5 2 2.16 2.6 2.79 1.21 1.28 3.91 4 .26.27 3.91 3.81 1.58 1.5 2.86 2.66 1.16 1.06 3.14 2.78q4.9 4.27 10 8.19 8.19 6.24 16.93 11.62c23.55 13 49 22 75.37 27.8 6.59 1.45 13.23 2.7 19.89 3.71 42.1 3.75 87 5.18 129.28-3.08C508.45 729 185.59 612.74 388.8 257.48h0a249.02 249.02 0 0 0-8.06 3.88l-.59.29-3.65 1.88-1 .53a280.52 280.52 0 0 0-11.13 6.23l-.9.53-3.46 2.1-.87.54q-5.36 3.35-10.55 6.93l-1.08.75-3.23 2.29-.66.47q-3.27 2.39-6.46 4.84l-.62.48-3 2.39-1.17.94-3 2.45h0c-2.11 1.75-4.19 3.55-6.24 5.37l-1.14 1-2.69 2.45L318 305q-4.28 4-8.37 8.17l-1.38 1.41-2.36 2.47-1.37 1.48q-2.06 2.2-4.06 4.46c-.45.51-.91 1-1.36 1.54l-2.11 2.45-1.51 1.79-2 2.44-1.61 2-3.16 4-1.61 2.11-1.79 2.4-1.59 2.18-1.68 2.33q-1.42 2-2.8 4.05l-1.49 2.22-1.64 2.5-1.49 2.31-1.68 2.71-1.28 2.07-2.61 4.4-1.22 2.16-1.61 2.87-1.19 2.19-1.9 3.59-1.2 2.34-1.91 3.84-1 2.09-1.53 3.29-.91 2q-1.11 2.47-2.17 5l-.65 1.57-1.56 3.82-.79 2-1.45 3.8-.62 1.65q-.94 2.63-1.85 5.26l-.56 1.7q-.66 2-1.29 4l-.6 1.91-1.37 4.63-.29 1q-.78 2.76-1.5 5.54c-.16.59-.3 1.19-.45 1.78l-1 4.18-.42 1.75-1.24 5.71-.15.77q-.51 2.55-1 5.1l-.32 1.82-.74 4.5-.24 1.52-.83 5.88-.15 1.3-.55 4.79-.19 1.81-.45 5.06c0 .35-.06.69-.08 1q-.22 3-.39 6.05c0 .53 0 1.07-.07 1.6q-.1 2.36-.18 4.71v1.77l-.08 6.17v.1l.08 6.62c0 .76.06 1.52.08 2.28l.17 4.41c0 .89.11 1.77.16 2.66l.25 4 .24 2.83.34 3.77c.09 1 .21 1.94.31 2.91l.42 3.64.39 2.95.5 3.55.47 3 .57 3.49.55 3 .65 3.44.62 3 .74 3.4.68 2.93.82 3.36.74 2.91.91 3.34c.26 1 .53 1.92.81 2.87l1 3.31.88 2.84 1.06 3.28.94 2.8 1.15 3.27 1 2.74 1.24 3.27c.35.89.69 1.79 1 2.68l1.34 3.28 1.08 2.59 1.45 3.33 1.1 2.47 1.6 3.44 1.08 2.3 1.87 3.75.95 1.9q2.88 5.61 6 11.07l1.02 1.69z" class="H"/><use xlink:href="#B" class="B C D E"/><path d="M386.12,758.72c-90.77,0-72,114.24-72.87,241.28h72.87Z" class="J"/><path d="M367.23 831.87L390 870l-11.39 130h-31.73c-.81-180.27 20.35-168.13 20.35-168.13z" class="H"/><path d="M619.47,1070H380.53a13.28,13.28,0,0,1-13.27-13.28V772a13.28,13.28,0,0,1,13.27-13.28H613.76c13.09,0,19,7.66,19,19.88v278.08A13.28,13.28,0,0,1,619.47,1070Z" class="J"/><path d="M629.05 766.62a19.33 19.33 0 0 1-2.51-4 17.25 17.25 0 0 0-8.28-3.51 28.88 28.88 0 0 0-4.5-.34H380.53A13.28 13.28 0 0 0 367.26 772c29 10.42 83.29 16.24 132.74 16.24 63.06 0 104.38-9.35 129.05-21.62z" class="H"/><g class="B C D E"><path d="M610 758.72c90.76 0 72 114.24 72.87 241.28h-50.13M386.12 758.72c-90.77 0-72 114.24-72.87 241.28h50.07" class="K"/><path d="M380.53,758.82l233.23-.1"/></g><path d="M380.53,1070H497.15C388,1070,396.24,838.82,367.26,838.82v217.86A13.28,13.28,0,0,0,380.53,1070Z" class="H"/><path d="M361.26 860.85c-.19-3.67-.11-7.34.05-11s.47-7.35.86-11l.65-5.51c.25-1.84.49-3.67.85-5.51a44.18 44.18 0 0 1 3.59-11 44.18 44.18 0 0 1 3.59 11c.36 1.84.62 3.67.85 5.51l.65 5.51c.38 3.67.68 7.34.85 11s.25 7.34.06 11z" class="F"/><path d="M632.74 870v8 102.75 8.53 67.41a13.28 13.28 0 0 1-13.27 13.31H380.53a13.28 13.28 0 0 1-13.27-13.28v-58.2-137.67" class="B C D E"/><path d="M626.74 870c-.19-4.17-.1-8.35.06-12.53s.47-8.35.85-12.53l.65-6.27c.24-2.09.49-4.17.85-6.26a55.09 55.09 0 0 1 3.59-12.53 55.09 55.09 0 0 1 3.59 12.53c.36 2.09.62 4.18.85 6.26l.65 6.27c.38 4.18.69 8.35.85 12.53s.25 8.36.06 12.53zm-56.06-27.55C570.9 833 582.9 829 588.9 835a10.611 10.611 0 1 1-15.16 14.85 10.4 10.4 0 0 1-3.06-7.4zm-162.57-.3C407.9 834 416.9 830 422.9 833c8 3 8 14 0 19-4 2-8 0-11.75-2.48a10.39 10.39 0 0 1-3.04-7.37z" class="F"/><g class="H"><path d="M500 831.77a27.13 27.13 0 0 1 1.5 5.84 42.47 42.47 0 0 1 .49 5.84l.3 11.69.25 11.69.17 11.67.28 46.74v46.74l-.53 23.37c-.1 3.89-.29 7.79-.67 11.68a92.5 92.5 0 0 1-1.77 11.69 92.5 92.5 0 0 1-1.77-11.69c-.38-3.89-.57-7.79-.67-11.68l-.53-23.37v-46.74l.18-46.73.17-11.7.33-11.68.33-11.68a44.11 44.11 0 0 1 .5-5.84 27.13 27.13 0 0 1 1.44-5.84z"/><path d="M425.22 883a18.51 18.51 0 0 1 4.67-1.5 29.75 29.75 0 0 1 4.68-.5l9.35-.33 18.7-.41 37.38-.27h37.39l18.7.53 9.34.67a61.34 61.34 0 0 1 9.35 1.78 59.17 59.17 0 0 1-9.35 1.77l-9.34.67-18.7.52c-12.46.19-24.92 0-37.39 0s-24.93 0-37.4-.15c-6.23-.06-12.46-.26-18.68-.5l-9.35-.34a29.5 29.5 0 0 1-4.67-.5 18.45 18.45 0 0 1-4.68-1.44zm17.19 31.38a12.51 12.51 0 0 1 3.74-1.11 18.35 18.35 0 0 1 3.62-.15l7.17.21 14.34.17 28.76-.21c9.67-.29 19.26-.43 28.88-.39 4.81 0 9.62.13 14.42.24a70.37 70.37 0 0 1 7.23.47 38.17 38.17 0 0 1 7.27 1.53 36.56 36.56 0 0 1-7.16 2 61.08 61.08 0 0 1-7.21.86c-4.82.35-9.64.65-14.45.82-9.64.36-19.27.32-28.88.45-4.81 0-9.61.22-14.48.1l-14.52-.31c-4.83-.18-9.68-.58-14.5-1.08l-7.23-.9a16.82 16.82 0 0 1-3.57-.84 11.51 11.51 0 0 1-3.43-1.86zm-3.48 35.49a13.07 13.07 0 0 1 3.82-1.5 19.13 19.13 0 0 1 3.82-.49l7.63-.32 15.28-.41L500 947h30.54c5.09.09 10.18.3 15.27.53a72.73 72.73 0 0 1 7.63.66 41.2 41.2 0 0 1 7.66 1.81 41.25 41.25 0 0 1-7.63 1.77 70.34 70.34 0 0 1-7.64.67l-15.27.53c-10.18.2-20.37.06-30.55 0l-30.54-.25-15.28-.49-7.63-.37a19.33 19.33 0 0 1-3.82-.5 12.85 12.85 0 0 1-3.81-1.49zm108.92-101.89l-42.13-34.37 74.63-54.79h-160.7l74.63 54.79-42.13 34.37-37.63-56.5v78.48h174.26v-83.44l-40.93 61.46z"/></g><g class="G"><path d="M616.66 758.16l-42.73.1a119.49 119.49 0 0 1-1.43 13.48 63.7 63.7 0 0 1-1.74 6.34c-2.34 6.49-17.26 12-21.49 16.73a48.22 48.22 0 0 1-4.5 4.43c-25.17 18.2-65.17 19.2-89.48-.58a51.36 51.36 0 0 1-7.11-7.61c-4.23-5.56-16.4-11.59-18.1-18.94a60 60 0 0 1-1.08-6.59 63.55 63.55 0 0 1-.36-6.8l-45.21-.56a13.28 13.28 0 0 0-13.28 13.27v284.69a13.28 13.28 0 0 0 13.28 13.27h238.93a13.27 13.27 0 0 0 13.27-13.27V778c0-12.18-5.88-19.84-18.97-19.84z"/><path d="M612.84,758.16c63.54,0,88.52,43.39,78.9,272-18.74,6.7-55.91,4.59-55.91,4.59Z"/></g><path d="M451.06 855.4l48.45-24.09 48.58 24.09-37.06-43.02-43.89.83-16.08 42.19zm184.57-24.09s-22.79 84.54-19.31 234l33.21-31 3.58-137.58c-5.62-72.23-17.48-65.42-17.48-65.42z" class="I"/><path d="M389,758.16c-61.78,0-88.88,56.45-80.75,245.48,22.42,9.91,56.19,5.58,56.19,5.58Z" class="G"/><g class="I"><path d="M306.94 957.49q.26 20.46 1.21 43.48c15.27.73 43.69.88 57.11 0l4.18-42.81c-10.77-1.26-45.78-1.67-62.5-.67z"/><path d="M370.12 831.31l-.5 177.69-13.35.9c-2.97-149.05 13.85-178.59 13.85-178.59z"/></g><path d="M612.84 758.16c67.42 0 78.45 56.28 78.9 133.78v138.22s-50 5.53-55.91 4.59l-.1-142.11M389 758.16c-25.73 0-43.52 8.12-55.71 22.44-19.45 22.87-24.63 61.54-25 108.27v123.77c12.06 3.32 61.36-3.64 61.36-3.64l.49-118.6" class="B C D E K"/><path d="M372.6 1011.24c-1.83 2.61-73.77 1.92-74.67 0s-2.19-37.5 0-41c1.8-2.88 72.11-2.27 74.67 0s1.83 38.39 0 41z" class="B C E G"/><path d="M383.43 1069.39H500c-109.19 0-100.91-231.14-129.89-231.14v217.87a13.28 13.28 0 0 0 13.32 13.27z" class="I"/><path d="M364.15 860.29c-.19-3.67-.11-7.35.06-11s.47-7.34.85-11l.65-5.51c.24-1.84.49-3.67.85-5.5a44.05 44.05 0 0 1 3.59-11 44.05 44.05 0 0 1 3.59 11c.36 1.83.62 3.67.85 5.5l.65 5.51q.58 5.52.86 11c.16 3.67.24 7.35 0 11z" class="F"/><g class="B C E"><path d="M635.63 869.4v8 102.76 8.53 67.41a13.27 13.27 0 0 1-13.27 13.27H383.43a13.28 13.28 0 0 1-13.28-13.27V860.29" class="D"/><path d="M697.42,970.24c2.22,2.26,1.59,38.39,0,41s-64,1.92-64.77,0-1.9-37.5,0-41c.27-.5,2.28-.89,5.45-1.18" class="G K"/></g><path d="M678.92,968.3c3.8.3,15-1.18,15.42-.76" class="G"/><path d="M678.92 968.3a23.67 23.67 0 0 1 1.88-2.16 12.13 12.13 0 0 1 1.78-1.47 12.74 12.74 0 0 1 1.81-1l1.83-.79a24.1 24.1 0 0 1 3.79-1.18 15.85 15.85 0 0 1 2-.31h1.17.82c.12 0 .44 0 .71.07h.35l.49.11.25.06.2.06.57.21a6.45 6.45 0 0 1 2 1.37l4.2 4.29-8.65 8.48-4.12-4.37a5.73 5.73 0 0 0 1.91 1.32c.18.08.36.14.54.2h.17l.19.05a2.34 2.34 0 0 0 .38.09h.19 0 .22-.15-.75-1.82a26.27 26.27 0 0 1-3.92-.53l-2-.49a12.56 12.56 0 0 1-2-.72 10 10 0 0 1-2.08-1.32 8.19 8.19 0 0 1-1.96-1.97z" class="F"/><path d="M592.51 763.64l-74.67 54.81 42.14 34.38 59.42-89.24-26.89.05z" class="I"/><path d="M629.63 869.4c-.19-4.18-.1-8.36.06-12.53s.47-8.36.86-12.53l.64-6.27c.24-2.09.49-4.18.86-6.27a54.83 54.83 0 0 1 3.58-12.53 54.37 54.37 0 0 1 3.59 12.53 96.22 96.22 0 0 1 .85 6.27l.65 6.27c.39 4.17.69 8.35.85 12.53s.26 8.35.06 12.53z" class="F"/><path d="M383.43,758.26l233.23-.1" class="B C D E"/><path d="M529.39 835.55l-22.35-22.34-22.34 22.34 10.98 10.98-9.72 106.63 20.74 16.17 21.42-16.17-9.71-106.63 10.98-10.98z" class="I"/><path stroke-width="6" d="M500.04 813.21v256.18" class="B C D K"/><path fill="#89d86f" d="M500.04 813.21l22.35 15.34-22.35 22.35-22.34-22.35 22.34-15.34z"/><path d="M419.62 758.8s43.27 39.34 74.66 54.81C479 838.82 452.15 848 452.15 848l-59.43-89.23zm160.76 0S541 800 505.72 813.61c10 20.28 42.13 34.37 42.13 34.37l59.43-89.23z" class="B C E G"/><use xlink:href="#C" stroke="#fff" stroke-width="16"/><use xlink:href="#C" fill="#e535ab"/><path fill="#89d86f" d="M478.96 946.16l20.74 16.17 21.42-16.17-10-109.78h-22.16l-10 109.78z"/><path stroke-width="8" d="M477.7 828.55l10.98 10.98-9.72 106.63 20.74 16.17 21.42-16.17-9.71-106.63 10.98-10.98" class="B C D"/><path d="M638.1,969.06c7.51-.71,21.51-.89,34-.67" class="G"/><g class="F"><path d="M637.54 963.08a50.92 50.92 0 0 1 8.84-.47c2.9.07 5.78.3 8.66.65l4.3.61a43.36 43.36 0 0 1 4.29.85 27.53 27.53 0 0 1 8.5 3.67 30.13 30.13 0 0 1-8.52 3.5l-4.23.86-4.21.69-8.35 1-8.16.54-6 .1-1-11.13z"/><circle cx="515.77" cy="982.93" r="4.8"/><path d="M490.89 836.19c-.05-.06 0 0 0 0l.07.05a.88.88 0 0 1 .17.12l.38.29.78.65 1.7 1.39 2 1.42a27.37 27.37 0 0 1 2.71 2.33 5.61 5.61 0 0 1-3.13 2.43 9.41 9.41 0 0 1-3.7.27 11 11 0 0 1-3.63-1 9.72 9.72 0 0 1-1.65-1 8.85 8.85 0 0 1-.77-.63l-.37-.36-.2-.21-.25-.29z"/></g><path d="M271.4 576.82c-1-28.36 18-52.36 43.28-63.56a62.37 62.37 0 0 1 8.16-2.7 70 70 0 0 1 42.21 2.68 71.67 71.67 0 0 1 8.95 4.16c29.53 15.88 42.79 53.25 31.36 83.46a61.68 61.68 0 0 1-4.18 8.82 54.68 54.68 0 0 1-17.51 20.83 69.25 69.25 0 0 1-7.85 5c-27.38 13-64.38 9-86.45-11.4a69.35 69.35 0 0 1-6.11-7.47 64.89 64.89 0 0 1-5.57-9.5 55.78 55.78 0 0 1-5.69-21.75 75.67 75.67 0 0 1-.6-8.57z" class="H"/><path d="M269.77 558.47c-1-28.36 18-52.36 43.28-63.56a62.23 62.23 0 0 1 8.15-2.7 70 70 0 0 1 42.22 2.68 71.54 71.54 0 0 1 8.92 4.16c29.53 15.89 42.79 53.25 31.36 83.46a59.6 59.6 0 0 1-4.18 8.82 63.85 63.85 0 0 1-4.71 7.8 64.78 64.78 0 0 1-5.68 7 63.08 63.08 0 0 1-7.12 6.07 68.37 68.37 0 0 1-7.85 5c-27.38 13-64.38 9-86.44-11.4a67.24 67.24 0 0 1-6.11-7.47 65 65 0 0 1-5.58-9.5 55.59 55.59 0 0 1-5.71-21.83 71.3 71.3 0 0 1-.55-8.53z" class="B C E G"/><circle cx="338.51" cy="559.08" r="12.24" class="F"/><path stroke-linecap="round" stroke-width="16" d="M715.03 559.08H603.4" class="B C D"/><g class="F"><path d="M627,574.16a114.14,114.14,0,0,1,13.07-1.56c4.36-.3,8.72-.43,13.08-.44s8.71.14,13.07.43a114.34,114.34,0,0,1,13.08,1.57,112.18,112.18,0,0,1-13.08,1.58q-6.54.43-13.07.42t-13.08-.43A112,112,0,0,1,627,574.16Z"/><path d="M243.89 489.13c5.64 15.83 20.9 24.06 33.4 26.94 13.06-20.24 56.65-28.92 89.37-17.44 27.8 5-10.81-25.57-72.47-9-2.31.85-14.56 2.95-30.28-9.19-2.19-1.69 4.68 13.71 12.5 20-11.35-.23-13.21-.22-32.52-11.31z" fill-rule="evenodd"/></g><g class="B C E"><path d="M463.75 593.17c15.55 0 25.12 12.76 36.49 12.76s25.91-12.76 41.27-12.76 23.72 11.12 23.72 26.52c0 16.65-16.75 46-62.6 46s-65.4-27.74-65.4-45.45c0-16.35 10.97-27.07 26.52-27.07z" class="G"/><path d="M477.85 596.6v65.5m49.14-65.5v65.5" class="D"/></g><path d="M425.22 300.35a148.61 148.61 0 0 1 35.91-15A151.13 151.13 0 0 1 500 280a145.16 145.16 0 0 1 39 5.08 138.61 138.61 0 0 1 35.82 15.27 315.9 315.9 0 0 0-37.19-9.13 210.64 210.64 0 0 0-37.58-3.22 222 222 0 0 0-37.55 3.48 366.93 366.93 0 0 0-37.28 8.87zm0 27.95a148.61 148.61 0 0 1 35.91-15A151.56 151.56 0 0 1 500 308a145.15 145.15 0 0 1 39 5 138.61 138.61 0 0 1 35.82 15.27 317.89 317.89 0 0 0-37.19-9.13 210.64 210.64 0 0 0-37.54-3.23 222 222 0 0 0-37.55 3.48 369.62 369.62 0 0 0-37.32 8.91z" class="F"/><path d="M574.78 328.43a310.55 310.55 0 0 1-37.2 5.68q-18.73 1.8-37.58 1.89c-12.55 0-25.1-.47-37.6-1.64a271 271 0 0 1-37.19-5.91c12.59-.39 25-.34 37.49-.37L500 328l37.29-.13c12.44 0 24.91-.01 37.49.56zm0-27.96a330.88 330.88 0 0 1-37.24 5.22q-18.72 1.63-37.53 1.71c-12.53.05-25.06-.42-37.56-1.48a288 288 0 0 1-37.23-5.45c12.57-.59 25-.7 37.47-.84l37.31-.23h37.31c12.46.06 24.91.3 37.47 1.07z" class="H"/><use xlink:href="#D" fill="#d69ac7"/><use xlink:href="#D" class="B C D E"/><path d="M766.75 500a121.9 121.9 0 0 1 1.52 21.66 210.12 210.12 0 0 1-1.6 21.69q-.7 5.4-1.62 10.78c-.65 3.57-1.35 7.14-2.16 10.69a190.76 190.76 0 0 1-6 21l-7.59-2.54c2.11-6.73 4.13-13.49 5.92-20.32l1.32-5.13 1.22-5.16 1.17-5.17 1.07-5.2c1.41-6.94 2.5-13.94 3.53-21l3.22-21.3zm-35.9-141.54A199.08 199.08 0 0 1 742 378.52l2.42 5.2 2.3 5.25 2.15 5.32 2 5.36a210.27 210.27 0 0 1 6.64 21.88 127.56 127.56 0 0 1 3.37 22.58l-7.94-21.19c-2.65-7.01-5.32-13.95-8.36-20.76l-2.29-5.09-2.39-5-2.45-5-2.55-4.95c-3.43-6.59-7.09-13-10.87-19.43z" class="F"/><use xlink:href="#E" fill="#d69ac7"/><use xlink:href="#E" class="B C D E"/><path d="M233.25 500c1.22 7.16 2.18 14.24 3.24 21.28s2.12 14.05 3.53 21l1.07 5.2 1.17 5.17 1.22 5.16 1.32 5.13c1.79 6.83 3.8 13.59 5.92 20.32l-7.59 2.54a190.76 190.76 0 0 1-6-21c-.81-3.55-1.51-7.12-2.16-10.69s-1.15-7.18-1.62-10.78a210.12 210.12 0 0 1-1.6-21.69 121.9 121.9 0 0 1 1.5-21.64zM276 362.65c-3.78 6.39-7.44 12.84-10.87 19.43l-2.58 4.92-2.45 5-2.39 5-2.29 5.09c-3 6.81-5.74 13.76-8.36 20.76l-7.94 21.19a127.56 127.56 0 0 1 3.37-22.58 210.27 210.27 0 0 1 6.64-21.88l2-5.36 2.17-5.22 2.3-5.25 2.42-5.2a199.08 199.08 0 0 1 11.13-20.06zm-77.71 166.2l-1.6-15.59-.79-8-.11-4.13a28.85 28.85 0 0 1 .3-4.29 30.11 30.11 0 0 1 4.45 7.27 45.76 45.76 0 0 1 1.51 3.88l1.29 4 1.1 4 .89 4.09.65 4.15a36.91 36.91 0 0 1 .31 4.34zm595.36-1.48a36.62 36.62 0 0 1 .88-6.66l.82-3.2 1-3.15a39.45 39.45 0 0 1 2.68-6.07 17.68 17.68 0 0 1 4.45-5.25 33.5 33.5 0 0 1 .11 6.68l-.31 3.1-.28 3.08-.63 6.1-.72 5.93zm-538.59-7.75l13-4.4 31.2-10.54 37.6-12.7 32.49-11 15.8-5.34.23-.07a10.6 10.6 0 0 0 6-4.6 10 10 0 0 0-11.29-14.68l-13 4.39-31.2 10.54-37.6 12.71-32.49 11-15.8 5.34-.23.08a10.6 10.6 0 0 0-6 4.6 10 10 0 0 0 11.29 14.68zM617.56 475l12.73 5.13 30.54 12.31 36.81 14.84 31.81 12.83 15.47 6.24.22.08c2.25.91 5.71.16 7.71-1a10 10 0 0 0 3.58-13.69l-1.56-2a10 10 0 0 0-4.41-2.57L737.73 502l-30.54-12.32-36.81-14.84L638.57 462l-15.47-6.24-.22-.09c-2.25-.91-5.71-.16-7.71 1a10 10 0 0 0-3.58 13.68l1.56 2a10.07 10.07 0 0 0 4.41 2.58z" class="F"/><g transform="scale(0)" transform-origin="center center"><path d="M765.63 495.43l.8-8.24C759.75 345.82 643 233.25 500 233.25c-147.32 0-266.75 119.43-266.75 266.75a267.02 267.02 0 0 0 .89 21.63c12.11-39.32 161.32-77.95 298.44-133.08 99.17 63.69 233.05 106.88 233.05 106.88z" opacity=".15"/><use xlink:href="#F" fill="#85c5e5"/><path d="M610.06 159.09c-36.6-4-184.31-1.44-322.45 25.65A481 481 0 0 0 235 197.59c-4.25 1.37-8.49 2.76-12.62 4.33s-8.24 3.18-12.18 5a112.44 112.44 0 0 0-11.34 5.93c-3.54 2.16-10.85 8.81-13.51 11.39l-7.3-15.56a69.81 69.81 0 0 1 12.33-9.59 116.58 116.58 0 0 1 13-6.93 217.66 217.66 0 0 1 26.74-10.11 460.64 460.64 0 0 1 54.55-12.9c18.3-3.27 36.69-5.71 55.1-7.7s35.8-7.94 54.26-8.88c100.56-3.96 198.16 2.05 216.03 6.52zM188.17 320.14l10.2-4.07 10.18-3.87c6.79-2.57 13.62-5 20.45-7.36q20.52-7.09 41.26-13.47l20.78-6.22 10.42-3 10.44-2.93 20.94-5.59 21-5.25C382 261.7 484.59 232.18 513.37 230c-7 1.8-168.2 54.82-176.74 57.39L316 293.56q-20.57 6.22-41 12.91l-20.38 6.76-20.3 7-10.1 3.61q-5.07 1.77-10.08 3.64l-10 3.71-9.9 3.78zm523.53-49.66c-39.92 36.15-102.55 67-169.48 94.19l16.51 15.78h0s100.48-39.96 152.97-109.97zm-497.25 186.7a24.45 24.45 0 0 1 .66-5.43 27 27 0 0 1 1.75-4.9 36.8 36.8 0 0 1 5.26-8 72.69 72.69 0 0 1 13-11.7 206 206 0 0 1 28.63-16.72c19.57-9.69 39.67-17.6 59.8-25.27s40.4-14.82 60.64-22L445 341.87c40.42-14.25 79.8-31.3 119.21-47.95 9.86-4.14 93.82-54.66 102.72-60.67-8.32 6.8-67.53 50.51-99.82 67.22-39.1 18-78.43 35.84-118.64 50.95l-60.43 22.25-60.19 22.46-29.66 12c-9.8 4.15-19.51 8.46-28.95 13.15A195.93 195.93 0 0 0 242.3 437a64.46 64.46 0 0 0-10.93 9.68c-3 3.49-7.94 11.25-7.92 14.53z" fill="#67b7d6"/><use xlink:href="#F" class="B C D E"/><path d="M534.47 361.33l48.12-20.36 6-2.61 5.95-2.67 6-2.66 5.91-2.76 5.92-2.73 5.88-2.81 11.69-5.74q23.34-11.6 45.56-25.15a427.09 427.09 0 0 0 43-29.7l-4.34 5-4.49 4.84c-3.12 3.11-6.22 6.29-9.55 9.17-1.64 1.49-3.31 2.92-5 4.39s-3.41 2.8-5.12 4.21-3.45 2.76-5.2 4.11l-5.32 4A448.92 448.92 0 0 1 634.62 328c-3.84 2.18-7.74 4.23-11.63 6.29l-11.74 6.08-5.9 3-6 2.87-11.93 5.64q-24 11.06-48.52 20.65zm234.61 69.76l-4-.72-3.94-.82-7.79-1.86q-7.74-2-15.34-4.43a315.52 315.52 0 0 1-29.83-11.2A306.66 306.66 0 0 1 679.61 398a208.59 208.59 0 0 1-26.43-17.56l7.19 3.35 7.12 3.39 14.28 6.55q14.25 6.56 28.91 12l7.33 2.71 7.39 2.56c4.94 1.65 9.9 3.22 14.89 4.67l15 4.13 3.77.91c1.26.32 2.52.62 3.78.89 2.5.57 5.08 1.14 7.49 1.59zM615.36 160c-36.49-4.61-73.12-6.62-109.74-7.18s-73.25.43-109.73 3.15c-18.24 1.33-36.45 3.08-54.58 5.35s-36.18 5-54.06 8.36a484.87 484.87 0 0 0-52.83 12.84 211.12 211.12 0 0 0-25 9.44 113.77 113.77 0 0 0-11.58 6.04 56.05 56.05 0 0 0-9.85 7.45L179.5 197a67.76 67.76 0 0 1 12-9.28 115.9 115.9 0 0 1 12.81-6.8 226.14 226.14 0 0 1 26.49-10A457.87 457.87 0 0 1 285.08 158c36.5-6.53 73.31-10.19 110.17-12.17a1068.52 1068.52 0 0 1 110.62-.17l27.59 1.94c9.19.78 18.35 1.78 27.49 2.93a542.75 542.75 0 0 1 54.41 9.47zM210.05 449.36a24.5 24.5 0 0 1 .64-5.37 26.93 26.93 0 0 1 1.71-4.87 36.36 36.36 0 0 1 5.18-8 71.43 71.43 0 0 1 12.89-11.68 202.41 202.41 0 0 1 28.39-16.69c19.41-9.65 39.35-17.52 59.32-25.14s40.08-14.74 60.17-21.86l60.25-21.15c40.11-14.17 80-28.92 119.07-45.49q14.67-6.18 29.14-12.83 14.47-6.65 28.69-13.79 14.22-7.17 28-15.08 13.78-7.91 27.08-16.87c-8.25 6.75-16.94 13-25.81 18.91s-18 11.55-27.24 16.89-18.63 10.37-28.13 15.26-19.15 9.51-28.82 14c-38.79 18-78.6 33.46-118.5 48.49l-59.95 22.12-59.72 22.33L293 400.49c-9.71 4.14-19.35 8.41-28.71 13.08a191.39 191.39 0 0 0-26.63 15.63 63.16 63.16 0 0 0-10.78 9.64c-3 3.47-4.85 7.2-4.83 10.48zm-25.57-138.11c13.52-5.55 27.09-10.39 40.74-15.25s27.38-9.26 41.18-13.53c27.6-8.52 55.41-16.36 83.45-23.23S406 246 434.45 240.93l10.64-1.93 5.33-1 5.34-.85 21.39-3.15c7.13-1.1 14.3-1.92 21.46-2.74l21.5-2.31q-10.54 2.44-21.09 4.73l-21.08 4.63-42 9.66q-42 9.66-83.48 21.17l-20.73 5.79-20.66 6.07L270 293.81l-20.42 6.74-20.35 6.94c-13.48 4.75-27 9.69-40.19 14.83z" class="F"/></g><g class="G"><circle cx="382.91" cy="594.66" r="33.84" opacity=".2"/><path d="M375.87 631l43.31-41.74a147.47 147.47 0 0 0-7.57-12.9l-45.87 44.21c1.9 1.33 7.98 9.51 10.13 10.43z" opacity=".4"/></g><circle cx="382.91" cy="594.66" r="33.84" class="B D E"/><g class="G"><path d="M378 580.47c1.22 3.83-3.5 6.78-7 7.37-3.54 0-5.9-2.36-7.08-5.31-.59-2.95 0-5.9 2.36-7.67 2.95-1.18 7.08-2.36 9.7.67a6.85 6.85 0 0 1 2.02 4.94zm6.32-2.26a2.29 2.29 0 0 1-4.49.19c0-1.77.59-2.36 2.27-2.42a2.22 2.22 0 0 1 2.22 2.22z"/><circle cx="615.2" cy="594.66" r="33.84" opacity=".2"/><path d="M610.12 628.11l38.54-38.54c-.21-1.37-5.91-8.1-6.29-9.44l-41.72 41.74c1.35.37 8.1 6.04 9.47 6.24z" opacity=".4"/></g><circle cx="615.2" cy="594.66" r="33.84" class="B D E"/><path d="M607.36 579.91c1 3.25-3 5.75-6 6.25-3 0-5-2-6-4.5-.5-2.5 0-5 2-6.5 2.5-1 6-2 8.23.57a5.85 5.85 0 0 1 1.77 4.18zm5.34-1.91a1.94 1.94 0 0 1-3.8.16c0-1.5.5-2 1.92-2a1.88 1.88 0 0 1 1.88 1.84z" class="G"/><path d="M416.74,594.66q83.68-30,164.63,0" class="B C D E"/><path d="M615.2 634.5a39.9 39.9 0 0 1-39.6-35.5c-50-17.65-101.46-17.64-153.1 0a39.81 39.81 0 0 1-50.92 33.84 38 38 0 0 0 54.51-29.91c49.22-16.86 98.28-16.88 145.93 0a38 38 0 0 0 54.51 30 40 40 0 0 1-11.33 1.57z" opacity=".15"/><defs ><path id="B" d="M233.25,500c0-147.32,119.43-266.75,266.75-266.75S766.75,352.68,766.75,500A266.22,266.22,0,0,1,668.1,707.12q-8.21,6.68-16.94,12.69C591,758,515,758,446.39,751.89c-6.66-1-13.3-2.26-19.89-3.71-26.33-5.8-51.82-14.75-75.37-27.8Q342.4,715,334.2,708.76a199.59,199.59,0,0,1-15.8-13.38q-7.14-6.63-13.79-13.78A265.86,265.86,0,0,1,233.25,500Z"/><path id="C" d="M551.55 969.73a11.33 11.33 0 0 0-3-1.2v-30.61a11.25 11.25 0 0 0 3.06-1.22 11.49 11.49 0 0 0-1.987-20.845 11.49 11.49 0 0 0-12.093 3.005L511 903.57a11.48 11.48 0 0 0-15.756-13.733 11.48 11.48 0 0 0-6.724 10.453 11.68 11.68 0 0 0 .47 3.26l-26.5 15.3a11.65 11.65 0 0 0-2.59-2.05 11.49 11.49 0 0 0-17.459 9.91 11.49 11.49 0 0 0 5.979 9.99 11.25 11.25 0 0 0 3.06 1.22v30.6a11.71 11.71 0 0 0-3 1.21 11.49 11.49 0 0 0-.161 20.075 11.49 11.49 0 0 0 11.641-.175 11.65 11.65 0 0 0 2.57-2L489 1002.9a11.25 11.25 0 0 0-.47 3.25 11.5 11.5 0 0 0 17.25 9.959 11.5 11.5 0 0 0 5.75-9.959 11.68 11.68 0 0 0-.58-3.62l26.33-15.2a11.24 11.24 0 0 0 2.84 2.3c5.478 2.994 12.344 1.067 15.463-4.341s1.351-12.316-3.983-15.559zm-86.2 7.27a11.36 11.36 0 0 0-1.21-3 11.59 11.59 0 0 0-2-2.56l34.68-60.06a11.67 11.67 0 0 0 3.2.45 11.37 11.37 0 0 0 3.21-.46l34.67 60.06a11.45 11.45 0 0 0-3.23 5.6zm69.45-53.36a11.46 11.46 0 0 0 8.26 14.28v30.65l-.44.11-34.68-60.07.3-.3zm-43.06-15.34l.33.32-34.68 60.07-.45-.12v-30.68a11.45 11.45 0 0 0 8.25-14.29zm16.75 90.14a11.5 11.5 0 0 0-16.76-.23l-26.51-15.31.12-.44h69.32c.06.25.13.51.21.75z"/><path id="D" d="M871.11 500c-94.26-5.93-88.36-172.82-144.1-140.14h0l.42.69c-1.08 8.7-11.09 100.12 26.09 224.1l1.21-3.77c2 5.4 17 39.1 75.81 23.16-40.58-34.22-31.47-75.27-31.47-75.27s44.55 1.32 72.04-28.77z"/><path id="E" d="M128.89 500c94.26-5.93 88.36-172.82 144.1-140.14h0l-.42.69c1.08 8.7 11.09 100.12-26.09 224.1l-1.21-3.77c-2 5.4-17 39.1-75.81 23.16 40.58-34.22 31.47-75.27 31.47-75.27s-44.55 1.32-72.04-28.77z"/><path id="F" d="M747.94 163.66h0c-63.29-88.9-481.94-69.83-543.78-7.97-66.94 66.94 29.18 351 29.18 351 0-41.1 160.33-82.31 303.37-139.83 99.17 63.69 228.92 108.54 228.92 108.54s27.96-266.08-17.69-311.74z"/></defs></svg>