<svg xmlns="http://www.w3.org/2000/svg" xmlns:xlink="http://www.w3.org/1999/xlink" viewBox="0 0 1000 990" xmlns:v="https://vecta.io/nano"><style><![CDATA[.B{fill:#592d3d}.C{stroke:#592d3d}.D{stroke-miterlimit:10}.E{stroke-width:12}.F{fill:none}.G{fill:#b56241}.H{fill:#cc734c}.I{fill:#fedc58}.J{fill:#d67070}.K{fill:#edbf2e}]]></style><path d="M610,758.72c90.76,0,72,114.24,72.87,241.28H610Z" class="H"/><path d="M632.74 831.87L610 870l11.38 130h31.76c.77-180.27-20.4-168.13-20.4-168.13z" class="G"/><use xlink:href="#B" class="H"/><path d="M269.61 634.48l2.11 3.58 1.33 2.14 2 3.19 1.46 2.24 2 3 1.56 2.28 2 2.88 1.65 2.3 2 2.77 1.73 2.29 2.07 2.7 1.79 2.26 2.12 2.63 1.85 2.23 2.17 2.57 1.91 2.2 2.22 2.5 2 2.16 2.6 2.79 1.21 1.28 3.91 4 .26.27 3.91 3.81 1.58 1.5 2.86 2.66 1.16 1.06 3.14 2.78q4.9 4.27 10 8.19 8.19 6.24 16.93 11.62c23.55 13 49 22 75.37 27.8 6.59 1.45 13.23 2.7 19.89 3.71 42.1 3.75 87 5.18 129.28-3.08C508.45 729 185.59 612.74 388.8 257.48h0a249.02 249.02 0 0 0-8.06 3.88l-.59.29-3.65 1.88-1 .53a280.52 280.52 0 0 0-11.13 6.23l-.9.53-3.46 2.1-.87.54q-5.36 3.35-10.55 6.93l-1.08.75-3.23 2.29-.66.47q-3.27 2.39-6.46 4.84l-.62.48-3 2.39-1.17.94-3 2.45h0c-2.11 1.75-4.19 3.55-6.24 5.37l-1.14 1-2.69 2.45L318 305q-4.28 4-8.37 8.17l-1.38 1.41-2.36 2.47-1.37 1.48q-2.06 2.2-4.06 4.46c-.45.51-.91 1-1.36 1.54l-2.11 2.45-1.51 1.79-2 2.44-1.61 2-3.16 4-1.61 2.11-1.79 2.4-1.59 2.18-1.68 2.33q-1.42 2-2.8 4.05l-1.49 2.22-1.64 2.5-1.49 2.31-1.68 2.71-1.28 2.07-2.61 4.4-1.22 2.16-1.61 2.87-1.19 2.19-1.9 3.59-1.2 2.34-1.91 3.84-1 2.09-1.53 3.29-.91 2q-1.11 2.47-2.17 5l-.65 1.57-1.56 3.82-.79 2-1.45 3.8-.62 1.65q-.94 2.63-1.85 5.26l-.56 1.7q-.66 2-1.29 4l-.6 1.91-1.37 4.63-.29 1q-.78 2.76-1.5 5.54c-.16.59-.3 1.19-.45 1.78l-1 4.18-.42 1.75-1.24 5.71-.15.77q-.51 2.55-1 5.1l-.32 1.82-.74 4.5-.24 1.52-.83 5.88-.15 1.3-.55 4.79-.19 1.81-.45 5.06c0 .35-.06.69-.08 1q-.22 3-.39 6.05c0 .53 0 1.07-.07 1.6q-.1 2.36-.18 4.71v1.77l-.08 6.17v.1l.08 6.62c0 .76.06 1.52.08 2.28l.17 4.41c0 .89.11 1.77.16 2.66l.25 4 .24 2.83.34 3.77c.09 1 .21 1.94.31 2.91l.42 3.64.39 2.95.5 3.55.47 3 .57 3.49.55 3 .65 3.44.62 3 .74 3.4.68 2.93.82 3.36.74 2.91.91 3.34c.26 1 .53 1.92.81 2.87l1 3.31.88 2.84 1.06 3.28.94 2.8 1.15 3.27 1 2.74 1.24 3.27c.35.89.69 1.79 1 2.68l1.34 3.28 1.08 2.59 1.45 3.33 1.1 2.47 1.6 3.44 1.08 2.3 1.87 3.75.95 1.9q2.88 5.61 6 11.07l1.02 1.69z" class="G"/><use xlink:href="#B" class="C D E F"/><path d="M386.12,758.72c-90.77,0-72,114.24-72.87,241.28h72.87Z" class="H"/><path d="M367.23 831.87L390 870l-11.39 130h-31.73c-.81-180.27 20.35-168.13 20.35-168.13z" class="G"/><path d="M619.47,1070H380.53a13.28,13.28,0,0,1-13.27-13.28V772a13.28,13.28,0,0,1,13.27-13.28H613.76c13.09,0,19,7.66,19,19.88v278.08A13.28,13.28,0,0,1,619.47,1070Z" class="H"/><path d="M629.05 766.62a19.33 19.33 0 0 1-2.51-4 17.25 17.25 0 0 0-8.28-3.51 28.88 28.88 0 0 0-4.5-.34H380.53A13.28 13.28 0 0 0 367.26 772c29 10.42 83.29 16.24 132.74 16.24 63.06 0 104.38-9.35 129.05-21.62z" class="G"/><g class="C D E F"><path d="M610 758.72c90.76 0 72 114.24 72.87 241.28h-50.13M386.12 758.72c-90.77 0-72 114.24-72.87 241.28h50.07" stroke-linecap="square"/><path d="M380.53,758.82l233.23-.1"/></g><path d="M380.53,1070H497.15C388,1070,396.24,838.82,367.26,838.82v217.86A13.28,13.28,0,0,0,380.53,1070Z" class="G"/><path d="M361.26 860.85c-.19-3.67-.11-7.34.05-11s.47-7.35.86-11l.65-5.51c.25-1.84.49-3.67.85-5.51a44.18 44.18 0 0 1 3.59-11 44.18 44.18 0 0 1 3.59 11c.36 1.84.62 3.67.85 5.51l.65 5.51c.38 3.67.68 7.34.85 11s.25 7.34.06 11z" class="B"/><path d="M632.74 870v8 102.75 8.53 67.41a13.28 13.28 0 0 1-13.27 13.31H380.53a13.28 13.28 0 0 1-13.27-13.28v-58.2-137.67" class="C D E F"/><path d="M626.74 870c-.19-4.17-.1-8.35.06-12.53s.47-8.35.85-12.53l.65-6.27c.24-2.09.49-4.17.85-6.26a55.09 55.09 0 0 1 3.59-12.53 55.09 55.09 0 0 1 3.59 12.53c.36 2.09.62 4.18.85 6.26l.65 6.27c.38 4.18.69 8.35.85 12.53s.25 8.36.06 12.53zm-56.06-27.55C570.9 833 582.9 829 588.9 835a10.611 10.611 0 1 1-15.16 14.85 10.4 10.4 0 0 1-3.06-7.4zm-162.57-.3C407.9 834 416.9 830 422.9 833c8 3 8 14 0 19-4 2-8 0-11.75-2.48a10.39 10.39 0 0 1-3.04-7.37z" class="B"/><g class="G"><path d="M500 831.77a27.13 27.13 0 0 1 1.5 5.84 42.47 42.47 0 0 1 .49 5.84l.3 11.69.25 11.69.17 11.67.28 46.74v46.74l-.53 23.37c-.1 3.89-.29 7.79-.67 11.68a92.5 92.5 0 0 1-1.77 11.69 92.5 92.5 0 0 1-1.77-11.69c-.38-3.89-.57-7.79-.67-11.68l-.53-23.37v-46.74l.18-46.73.17-11.7.33-11.68.33-11.68a44.11 44.11 0 0 1 .5-5.84 27.13 27.13 0 0 1 1.44-5.84z"/><path d="M425.22 883a18.51 18.51 0 0 1 4.67-1.5 29.75 29.75 0 0 1 4.68-.5l9.35-.33 18.7-.41 37.38-.27h37.39l18.7.53 9.34.67a61.34 61.34 0 0 1 9.35 1.78 59.17 59.17 0 0 1-9.35 1.77l-9.34.67-18.7.52c-12.46.19-24.92 0-37.39 0s-24.93 0-37.4-.15c-6.23-.06-12.46-.26-18.68-.5l-9.35-.34a29.5 29.5 0 0 1-4.67-.5 18.45 18.45 0 0 1-4.68-1.44zm17.19 31.38a12.51 12.51 0 0 1 3.74-1.11 18.35 18.35 0 0 1 3.62-.15l7.17.21 14.34.17 28.76-.21c9.67-.29 19.26-.43 28.88-.39 4.81 0 9.62.13 14.42.24a70.37 70.37 0 0 1 7.23.47 38.17 38.17 0 0 1 7.27 1.53 36.56 36.56 0 0 1-7.16 2 61.08 61.08 0 0 1-7.21.86c-4.82.35-9.64.65-14.45.82-9.64.36-19.27.32-28.88.45-4.81 0-9.61.22-14.48.1l-14.52-.31c-4.83-.18-9.68-.58-14.5-1.08l-7.23-.9a16.82 16.82 0 0 1-3.57-.84 11.51 11.51 0 0 1-3.43-1.86zm-3.48 35.49a13.07 13.07 0 0 1 3.82-1.5 19.13 19.13 0 0 1 3.82-.49l7.63-.32 15.28-.41L500 947h30.54c5.09.09 10.18.3 15.27.53a72.73 72.73 0 0 1 7.63.66 41.2 41.2 0 0 1 7.66 1.81 41.25 41.25 0 0 1-7.63 1.77 70.34 70.34 0 0 1-7.64.67l-15.27.53c-10.18.2-20.37.06-30.55 0l-30.54-.25-15.28-.49-7.63-.37a19.33 19.33 0 0 1-3.82-.5 12.85 12.85 0 0 1-3.81-1.49z"/></g><path d="M568.44 849.8c-21.18 6.89-42 17.48-62.85 19.67-26.75 2.82-54.1-13.37-82.3-21.08-2.15-2.58-18.35-14.44-33.47-13.94-11.88.4-15.09 4.3-18.4 8.19l-4.16 213.48a13.27 13.27 0 0 0 13.27 13.27h238.94a13.27 13.27 0 0 0 13.27-13.27l-2.38-215.36c-4.43 0-7.1-9.4-20.41-5.09-16.29 5.33-40.24 12.61-41.51 14.13z" class="J"/><path d="M632.74 831.31l-22.79 38.09 11.39 130.03h11.6V893.78l-.2-62.47zm-252.21 238.08h116.62c-109.2 0-100.91-231.14-129.89-231.14v217.87a13.27 13.27 0 0 0 13.27 13.27z" fill="#c46565"/><path d="M361.26 860.4a63.71 63.71 0 0 1-.1-8.29q.19-4.15.71-8.31l.57-4.16.78-4.16a27.84 27.84 0 0 1 3.44-8.35 27.54 27.54 0 0 1 3.73 8.22c.39 1.38.68 2.76.93 4.13l.72 4.14 1 8.27a62 62 0 0 1 .21 8.29z" class="B"/><path d="M632.74 869.4v8 102.76 8.53 67.41a13.27 13.27 0 0 1-13.27 13.27H380.53a13.27 13.27 0 0 1-13.27-13.27V998q0-3.76 0-7.65V860.29" class="C D E F"/><path d="M626.76 869.38a65.79 65.79 0 0 1 .65-8.53q.57-4.25 1.46-8.47l.94-4.22 1.15-4.21a29.21 29.21 0 0 1 4.18-8.28 28.9 28.9 0 0 1 3 8.78c.26 1.45.42 2.89.55 4.33l.35 4.31.25 8.59a67.65 67.65 0 0 1-.54 8.54zm-68.85 19.98c4.41-.78 8.76-1.39 13.1-2l13-1.93 12.91-2.1 13.07-2.2a62.58 62.58 0 0 1-12.33 5.26 87 87 0 0 1-13 3 94.61 94.61 0 0 1-13.33 1.11 65.72 65.72 0 0 1-13.42-1.14z" class="B"/><path d="M329.09 794.17c56.12 35.58 168.48 75.53 168.48 75.53l-.16 14S397 879.36 316.32 844.9c0-30.52 12.77-50.73 12.77-50.73z" class="C D E J"/><path d="M648.66 870.5s17.7-1.85 30.9-9l-.6-8.11-30.85 10.68z" class="G"/><path d="M671.55 794.43C619 831.8 503 869.7 503 869.7l.17 14s100.41-4.3 181.08-38.76c.04-22.27-12.7-50.51-12.7-50.51z" class="C D E J"/><path d="M320.63 822.65c.28.24.83.61 1.27.92l1.45.95 3.08 1.77 6.43 3.28 6.65 3 3.34 1.58 3.31 1.76a40.85 40.85 0 0 1-7.42-1.08q-3.63-.9-7.17-2.15a65 65 0 0 1-7-2.89l-3.36-1.84-1.64-1.06a15.93 15.93 0 0 1-1.67-1.31z" class="B"/><g class="I"><use xlink:href="#C"/><use xlink:href="#C"/><path d="M670.06 788.32q3.3-3.32 6.5-6.71c45.16-54.71 48.7-112.39 57.87-148.37V619l-2.44.84 2.44-4.56c-.06-.1-3.49 3.38-3.55 3.28a33.65 33.65 0 0 1-5.08 3.44l-32.55 11.28a220.36 220.36 0 0 1-43.89 3.82c-63-.26-78.3-19.69-113.2-20s-76.95-1.23-96.49 1.58-37.06 11.81-88 12.85c-44.15.9-83.62-10-83.62-10v12.68c14 36.84 4.58 64.43 29 110.49 0-.65 0-1.31-.05-2-4.39-21.71 0-41.57 2.12-49.19l.36-2.92v-.07-.2.1c0 .14.11.45.22.9l.36-1.11s.89 4.91 2.54 12.74c3.93 15.48 11.16 43 19.45 70.08.92 2.43 1.87 4.81 2.84 7.11a16.81 16.81 0 0 0 .23.65c27.94 29.88 62.13 55.36 93.14 74.5l9.48 5.61a86.4 86.4 0 0 1 2.41-43.06l.21 1.08c.24-.77.4-1.19.4-1.19s11.43 47.45 34.52 62.83c.57.24 1.15.47 1.73.66l-.44.16.1.06 1.77 1a208.45 208.45 0 0 0 21.34 8.53c5.41 1.57 9.84 2.39 12 2.39 4.75 0 32-10.61 48.69-49.07 1.1-3.27 1.63-5.32 1.63-5.32l.28.69.32-.8a56 56 0 0 1 8 30.14 526 526 0 0 0 72.06-47.55v-.11l.8-1.94.06-.13.81-2h0l.84-2.08h0c14.48-35.83 23.58-89 23.58-89 .06-.18.28.09.6.74v-.85s16.27 22.41 10.61 62.24z"/></g><g class="K"><path d="M343.5 706.91a23.12 23.12 0 0 0 13.79 5.8C343 701.34 337.78 690.32 336 685.36a271.66 271.66 0 0 1-10-54.55 329.37 329.37 0 0 1-57.87-9.33v12.68c14 36.84 4.58 64.43 29 110.49 0-.65 0-1.31-.05-2-4.39-21.71 0-41.57 2.12-49.19l.36-2.92v-.07-.2.1c0 .14.11.45.22.9l.36-1.11s.89 4.91 2.54 12.74c3.93 15.48 11.16 43 19.45 70.08.92 2.43 1.87 4.81 2.84 7.11a16.81 16.81 0 0 0 .23.65c27.94 29.88 62.13 55.36 93.14 74.5l9.48 5.61a86.4 86.4 0 0 1 2.41-43.06l.21 1.08c.24-.77.4-1.19.4-1.19s11.43 47.45 34.52 62.83c.57.24 1.15.47 1.73.66l-.44.16.1.06 1.77 1a208.45 208.45 0 0 0 21.34 8.53c5.41 1.57 9.84 2.39 12 2.39 3.53 0 19.51-5.88 34.33-24.72C466.94 846.06 380.78 800 343.5 706.91z"/><path d="M433.87,816.78s9.49,9,29.29,4.09c-1.47,3.55-5.93,5.4-5.93,5.4s6.17,8.13,19.06,7.75c0,0-7.73,4.8-15.53,1.65A169.67,169.67,0,0,0,442.41,834l-13.51-9.38Z"/></g><path d="M351.7 631.52q-2.64.48-5.28.84l-2.65.35-2.66.24-5.32.38-5.33.14c-3.56.07-7.11-.07-10.67-.2s-7.1-.37-10.64-.71l-10.61-1.1c-3.54-.4-7.05-1-10.56-1.56a196.89 196.89 0 0 1-21-4.57l-3.85-1.08 2.1-7.57 3.88.94c6.61 1.61 13.47 3.13 20.27 4.49s13.68 2.64 20.57 3.72c3.44.59 6.89 1 10.35 1.56a146.69 146.69 0 0 0 10.39 1.31c6.98.95 13.95 1.66 21.01 2.82z" class="B"/><path d="M669.31 789.07c10.26-10.26 9.29-9.63 17.79-20.94-1.5-34.48-30-53.71-30-53.71l1.9 11.66c.84.16 7.91 18.47 7.56 46.08zm-93.95 70.8c-5.72-24.9-22.42-29.15-22.42-29.15l3.21 19.45a96.48 96.48 0 0 1 3.9 19.14c5-2.72 10.16-5.66 15.45-8.78z" class="K"/><path d="M340.09 735.62a90.52 90.52 0 0 0 6.59 20.14A121.79 121.79 0 0 0 357 773.89l3.09 4.18 1.56 2.07 1.66 2 3.35 4 3.56 3.78 1.77 1.89 1.9 1.78 3.77 3.58c2.58 2.32 5.33 4.45 7.94 6.75l-6.28 3.32-.06-4c.05-1.32.07-2.64.2-4s.23-2.65.46-4c.11-.66.18-1.32.32-2l.43-2a43.84 43.84 0 0 1 2.52-7.67A35 35 0 0 1 385 780c.34-.6.73-1.18 1.13-1.77.21-.29.4-.57.64-.87s.42-.54.78-.95l4.46-5.06.56 6.55a39.9 39.9 0 0 0 .53 3.61 49.87 49.87 0 0 0 .84 3.68 48 48 0 0 0 2.51 7.14 36.29 36.29 0 0 0 3.9 6.55 29 29 0 0 0 5.62 5.42 23.79 23.79 0 0 1-7-4.07 31.32 31.32 0 0 1-5.54-6.17 43.85 43.85 0 0 1-4-7.32c-.54-1.28-1-2.58-1.46-3.91a34 34 0 0 1-1.11-4.16l5 1.49c0 .08-.22.35-.34.55s-.26.46-.39.69c-.25.48-.5 1-.73 1.48a33.23 33.23 0 0 0-1.24 3.15 44.39 44.39 0 0 0-1.62 6.69 55.25 55.25 0 0 0-.65 6.94c-.06 1.16 0 2.34 0 3.51l.16 3.53.4 8.64-6.68-5.32-4.29-3.46-2.14-1.75c-.7-.59-1.44-1.14-2.09-1.79l-4-3.83-2-1.91c-.64-.67-1.25-1.36-1.86-2.05l-3.67-4.15c-1.21-1.39-2.26-2.92-3.38-4.39a105.25 105.25 0 0 1-6.17-9.19 91.82 91.82 0 0 1-8.63-20.3c-1.93-7.01-3.11-14.36-2.45-21.58z" class="B"/><path d="M638.78 724.34A5.35 5.35 0 0 1 640 726a16.7 16.7 0 0 1 .84 1.94A33.87 33.87 0 0 1 642 732a58.47 58.47 0 0 1 1.08 8.32 94.26 94.26 0 0 1-.54 16.71 109.35 109.35 0 0 1-9 32.28A90.58 90.58 0 0 1 614.3 817a70.11 70.11 0 0 1-28.51 17 111.55 111.55 0 0 0 23.91-21.31A118.63 118.63 0 0 0 626.25 786a157.47 157.47 0 0 0 10.09-30 151.49 151.49 0 0 0 2.81-15.76l.63-8a33.51 33.51 0 0 0-.08-4 14.64 14.64 0 0 0-.26-2 5.74 5.74 0 0 0-.66-1.9z" fill="#fff"/><path d="M262.51 621.57c22.24 43.9 7.22 72.38 35.18 124.3-7-29 2.43-55.68 2.43-55.68S310 744.78 325 780.12c7.28 23.46 69.85 61.4 103.55 81.17a86.33 86.33 0 0 1 2.32-43.58s11.89 49.36 35.91 63.71c13.43 7.58 30.15 11.89 35.13 11.89s34.53-11.58 50.92-54.5a56 56 0 0 1 7.9 30.68c22.18-12 53.39-25.68 72.45-47.65 26.34-34.69 26.34-95.84 26.34-95.84s16.48 22.85 10.41 63.3c61.76-68.3 54.34-143.14 71.42-175.57" class="C D E F"/><path d="M734.38 616.77a3.8 3.8 0 0 0 1.16 1.29 4 4 0 0 0 2.15.7 3.81 3.81 0 0 0 1.68-.34h0-.09l-.2.11-.48.24-1 .51-2 1q-2 1-4 2l-8.13 3.81-8.27 3.57-8.47 3.26-4.39 1.43a39.36 39.36 0 0 1-4.75 1.15l-1.18.16-1.12.13-2.23.23-4.49.4a85.55 85.55 0 0 1-18.09-.43c5.86-1.58 11.62-2.89 17.37-4.29l8.59-2a35.39 35.39 0 0 0 3.81-1.36c1.31-.52 2.63-1.14 4-1.72 2.65-1.19 5.29-2.47 7.93-3.77l7.93-3.93 7.94-4 4-2 2-1 1-.48.53-.25.3-.13.16-.08h.05a4.11 4.11 0 0 1 5.19 1.57l2.13 3.38-7.06 4.19z" class="B"/><path d="M271.4 568.53c-1-28.36 18-52.36 43.28-63.56a62.37 62.37 0 0 1 8.16-2.7 70 70 0 0 1 42.21 2.73 71.67 71.67 0 0 1 8.93 4.16c29.53 15.89 42.79 53.25 31.36 83.46a61.68 61.68 0 0 1-4.18 8.82 54.68 54.68 0 0 1-17.51 20.83 69.25 69.25 0 0 1-7.85 5c-27.38 13-64.38 9-86.45-11.4a68.39 68.39 0 0 1-6.11-7.47 64.89 64.89 0 0 1-5.57-9.5 55.78 55.78 0 0 1-5.67-21.8 75.67 75.67 0 0 1-.6-8.57z" class="G"/><use xlink:href="#D" fill="#fff"/><circle cx="338.51" cy="541.79" r="12.24" class="B"/><g class="C D"><path d="M399.52 583a59.6 59.6 0 0 0 4.18-8.82 62.5 62.5 0 0 0 2.57-8.64c-68.32-7.75-127 20.81-127 20.81l1.1 1.75 1.25 1.84a68.28 68.28 0 0 0 6.11 7.48c22.06 20.36 59.06 24.36 86.44 11.39a68.37 68.37 0 0 0 7.85-5 63.08 63.08 0 0 0 7.12-6.07 64.78 64.78 0 0 0 5.68-7 63.85 63.85 0 0 0 4.7-7.74z" stroke-width="6" class="H"/><use xlink:href="#D" class="E F"/></g><path d="M583.89 560.47c.43-15.13 6.67-30.09 15.1-41.33a72.82 72.82 0 0 1 7.12-8.53 69.73 69.73 0 0 1 90.17-8.95 73.27 73.27 0 0 1 6.53 5.13c27 21.45 30.12 63.14 15.32 93.23a62.31 62.31 0 0 1-4.78 6.86 72.09 72.09 0 0 1-7.58 8.13c-20.27 17.83-51.81 22.13-77.41 12.42a71.34 71.34 0 0 1-10.55-5c-17.9-10.78-30.37-31.09-33.43-52.23a62.93 62.93 0 0 1-.49-9.73z" class="H"/><path d="M589.38 549c.42-14.15 6.42-28.15 14.52-38.66a70.56 70.56 0 0 1 6.86-8 68.55 68.55 0 0 1 86.77-8.34 69.81 69.81 0 0 1 6.28 4.79c26 20.07 29 59.07 14.74 87.22a56.5 56.5 0 0 1-4.6 6.42 68.91 68.91 0 0 1-7.29 7.6c-19.51 16.68-49.86 20.71-74.49 11.62A68.79 68.79 0 0 1 622 606.9c-17.22-10.08-29.22-29.08-32.17-48.85a56.34 56.34 0 0 1-.45-9.05z" fill="#fff" class="C D E"/><g class="B"><circle cx="659.21" cy="550.79" r="12.24"/><path d="M718.86 618.11c-10.23 5-20.32 9.55-31.34 12.69a97.34 97.34 0 0 1-16.46 3.3 141.1 141.1 0 0 1-17.69.3 144.2 144.2 0 0 1-20.37-1.92c-1.93-.31-4.13.51-4.62 2.62-.41 1.81.55 4.28 2.62 4.62a164.26 164.26 0 0 0 19.66 2.1c3.19.13 6.37.06 9.56.16a78.25 78.25 0 0 0 9.06-.21c12-1 23.62-4.28 34.76-8.76 6.32-2.55 12.52-5.4 18.63-8.42a3.77 3.77 0 0 0 1.34-5.13 3.83 3.83 0 0 0-5.13-1.35zm-353.55 9.31c-11.37 2.16-22.4 3.8-34.06 3.83a95.68 95.68 0 0 1-17-1.36 171.78 171.78 0 0 1-35.56-11.64 3.85 3.85 0 0 0-5.13 1.35c-.95 1.62-.5 4.27 1.34 5.13a164.42 164.42 0 0 0 17.87 7.1c2.91 1 5.87 1.7 8.78 2.6a91.22 91.22 0 0 0 8.91 2.35c11.95 2.42 24.22 2.37 36.31 1 6.88-.76 13.71-1.88 20.51-3.17 2-.37 3.12-2.77 2.62-4.61a3.83 3.83 0 0 0-4.62-2.62z"/><path d="M243.89 484.13c5.64 15.83 20.9 24.06 33.4 26.94 13.06-20.24 56.65-28.92 89.37-17.44 27.8 5-10.81-25.57-72.47-9-2.31.85-14.56 2.95-30.28-9.19-2.19-1.69 4.68 13.71 12.5 20-11.35-.23-13.21-.22-32.52-11.31zm477.32 11.3c7.82-6.25 14.69-21.65 12.5-20-15.72 12.14-28 10-30.28 9.19-61.66-16.6-100.28 14-72.48 9 32.73-11.48 76.32-2.8 89.38 17.44 12.5-2.88 27.76-11.11 33.4-26.94-19.31 11.1-21.17 11.09-32.52 11.31z" fill-rule="evenodd"/><path d="M443.14,621.86c0-18.9,113.72-16.06,113.72,0a56.86,56.86,0,0,1-113.72,0Z"/></g><path d="M443.14,621.86c0-18.9,113.72-16.06,113.72,0a56.86,56.86,0,0,1-113.72,0Z" stroke-width="6" class="C D F"/><use xlink:href="#E" fill="#f28195"/><use xlink:href="#E" stroke-width="8" class="C D F"/><path d="M479.31 626.6l.91-.21.76-.14 1.46-.18a21.42 21.42 0 0 1 2.89-.1 25 25 0 0 1 5.79.81 21.39 21.39 0 0 1 10.34 6.11 20.07 20.07 0 0 1 5.08 10.11 17.19 17.19 0 0 1-1.37 10.35l-5.32-7.76a27.26 27.26 0 0 0-2.46-3 14.09 14.09 0 0 0-2.69-2.16 15.31 15.31 0 0 0-6.11-2.08 25.67 25.67 0 0 0-3.43-.22h-1.76l-.85.06h-.4-.22z" class="B"/><use xlink:href="#F" class="I"/><path d="M326.66 439.38c5.38-52.22 25-112.5 64.7-181.9h0q-4.07 1.88-8.06 3.88l-.59.29-3.65 1.88-1 .53q-5.64 3-11.13 6.23l-.9.53-3.46 2.1-.86.54q-5.37 3.35-10.56 6.93l-1.08.75-3.23 2.29-.65.47q-3.27 2.39-6.47 4.84l-.62.48-3 2.39-1.18.94-3 2.45h0c-2.11 1.75-4.18 3.55-6.24 5.37l-1.14 1-2.69 2.45-1.32 1.18q-4.27 4-8.37 8.17l-1.37 1.41-2.37 2.47-1.37 1.48Q305 320.77 303 323c-.46.51-.92 1-1.37 1.54l-2.11 2.46-1.51 1.78-2 2.44-1.61 2-3.15 4-1.62 2.11-1.79 2.4-1.59 2.18-1.68 2.33-2.8 4.05-1.48 2.22-1.65 2.5-1.48 2.31-1.69 2.71-1.28 2.07q-1.32 2.19-2.6 4.4l-1.23 2.16-1.61 2.87-1.19 2.19-1.89 3.59-1.21 2.34-1.9 3.84-1 2.09-1.54 3.29-.91 2q-1.11 2.47-2.17 5l-.65 1.57-1.56 3.82-.79 2-1.45 3.8-.61 1.65q-1 2.63-1.86 5.26l-.56 1.7q-.66 2-1.29 4l-.59 1.91q-.72 2.31-1.38 4.63l-.29 1q-.78 2.76-1.5 5.54l-.45 1.78-.55 2.24a356.84 356.84 0 0 0-4 19.64l-.32 1.95-.24 1.51q-.45 2.94-.82 5.89c-.06.43-.11.87-.16 1.3l-.55 4.79-.18 1.81-.45 5.06-.09 1q-.23 3-.38 6.05c0 .53-.05 1.07-.08 1.6q-.11 2.36-.18 4.71c0 .59 0 1.18-.05 1.77l-.07 6.17v.1q0 3.31.08 6.62c0 .76.06 1.52.08 2.28l.17 4.41.16 2.66.25 4 .24 2.83.34 3.77c.09 1 .21 1.94.31 2.91l.42 3.64.39 2.95.5 3.55.47 3 .58 3.49.54 3 .66 3.44.61 3 .74 3.4.68 2.93.82 3.36.75 2.91.9 3.34.81 2.87 1 3.31.87 2.84 1.07 3.28.93 2.8 1.15 3.27 1 2.74 1.25 3.27 1 2.68 1.34 3.28 1.08 2.59 1.46 3.33 1.09 2.47c.52 1.16 1.07 2.3 1.61 3.44l1.08 2.3c.6 1.26 1.23 2.5 1.86 3.75l.95 1.9q2.88 5.61 6 11.07l1.09 1.84 2.11 3.58 1.33 2.14 2 3.19c.48.76 1 1.5 1.47 2.24l2 3c.51.76 1 1.52 1.56 2.28.66 1 1.32 1.92 2 2.88l1.65 2.3 2 2.77c.66.92 1.15 1.53 1.72 2.29l2.07 2.7 1.79 2.26 2.12 2.63 1.85 2.23 2.17 2.57 1.91 2.2 2.22 2.5a79.92 79.92 0 0 0 2 2.16l1.15 1.25c2.9 1.92-68.91-139.3-2.51-241.08l21.88-1.35zm331.28-60.45s-2.1 20.81-50.63 28.22c23.11 1.6 47.74-.46 71.38-9.51 3.22 3.61-20.75-18.71-20.75-18.71z" class="K"/><path d="M304.74,441s-11,1.14-30.77-1.89" class="I"/><path d="M305.35 447l-1.19.15-1.07.1-2.08.08c-1.37 0-2.73 0-4.08-.16a61 61 0 0 1-8-1.22l-3.9-1a31.69 31.69 0 0 1-3.83-1.25 22.55 22.55 0 0 1-7.25-4.59 23.84 23.84 0 0 1 4.11-1.63 31.51 31.51 0 0 1 3.95-.91c2.59-.42 5.12-.55 7.64-.79l7.45-.53 3.63-.17h1.78.86.73z" class="B"/><path d="M677,396.19s-10.71-14.3-40.38-31" class="I"/><path d="M672.14 399.78l-1.77-1.91-2-2.12-4.27-4.25c-2.92-2.82-5.95-5.62-9-8.4s-6.3-5.44-9.43-8.32c-1.56-1.44-3.13-2.91-4.63-4.52a48 48 0 0 1-4.39-5.1 43.5 43.5 0 0 1 6.65 1.34 60 60 0 0 1 6.24 2.24c2 .89 4 1.83 5.91 2.91s3.84 2.13 5.72 3.29a96.15 96.15 0 0 1 10.83 7.68c1.71 1.45 3.43 2.91 5 4.53.82.79 1.61 1.63 2.39 2.5.39.45.78.87 1.16 1.35s.72.89 1.22 1.59z" class="B"/><use xlink:href="#F" class="C D E F"/><path d="M520.11 249.17a367.15 367.15 0 0 0-42.48 4.93l-10.44 2.06c-3.44.64-6.9 1.61-10.35 2.41l-10.27 2.72-10.14 3.11A312.8 312.8 0 0 0 397 280.14a347.55 347.55 0 0 0-37.25 21A183.48 183.48 0 0 1 394.83 276a218.27 218.27 0 0 1 39.76-17.3l10.42-3.05c3.49-.97 7-1.82 10.54-2.59s7.1-1.41 10.66-2 7.15-1.08 10.74-1.52a189.39 189.39 0 0 1 43.16-.37z" fill="#fff"/><g class="B"><path d="M529.83 233.83a70.16 70.16 0 0 1 15.44-1.92l7.67.13 7.68.52a138.69 138.69 0 0 1 15.35 2.2 95.37 95.37 0 0 1 15.08 4.24l-3.9 11.35-13.94-4.07-14.25-3.71-7.25-1.76-7.3-1.81a85.14 85.14 0 0 1-14.58-5.17zm-117.38 7.66a96.65 96.65 0 0 1 13.65-4.15 138.88 138.88 0 0 1 14-2.45l7-.71 7-.34a57.35 57.35 0 0 1 14.27 1.58 77.5 77.5 0 0 1-13.13 5.5l-6.59 2-6.55 1.93-12.94 4-12.79 4z"/><circle cx="514.26" cy="233.25" r="5.84"/><circle cx="497.99" cy="233.25" r="4.13"/><path d="M407.29 474.84H286.65c-5.56 0-11.12-.08-16.68 0h-.24c-5.23 0-10.24 4.6-10 10a10.17 10.17 0 0 0 10 10h120.64 16.68.24c5.23 0 10.24-4.6 10-10a10.18 10.18 0 0 0-10-10zm319.03 0H605.68c-5.56 0-11.12-.08-16.68 0h-.24c-5.23 0-10.24 4.6-10 10a10.17 10.17 0 0 0 10 10H709.4h16.68.24c5.23 0 10.24-4.6 10-10a10.18 10.18 0 0 0-10-10z"/></g><g transform-origin="center center"><path d="M765.63 495.43l.8-8.24C759.75 345.82 643 233.25 500 233.25c-147.32 0-266.75 119.43-266.75 266.75a267.02 267.02 0 0 0 .89 21.63c12.11-39.32 161.32-77.95 298.44-133.08 99.17 63.69 233.05 106.88 233.05 106.88z" opacity=".15"/><use xlink:href="#G" fill="#633749"/><path d="M610.06 159.09c-36.6-4-184.31-1.44-322.45 25.65A481 481 0 0 0 235 197.59c-4.25 1.37-8.49 2.76-12.62 4.33s-8.24 3.18-12.18 5a112.44 112.44 0 0 0-11.34 5.93c-3.54 2.16-10.85 8.81-13.51 11.39l-7.3-15.56a69.81 69.81 0 0 1 12.33-9.59 116.58 116.58 0 0 1 13-6.93 217.66 217.66 0 0 1 26.74-10.11 460.64 460.64 0 0 1 54.55-12.9c18.3-3.27 36.69-5.71 55.1-7.7s35.8-7.94 54.26-8.88c100.56-3.96 198.16 2.05 216.03 6.52zM188.17 320.14l10.2-4.07 10.18-3.87c6.79-2.57 13.62-5 20.45-7.36q20.52-7.09 41.26-13.47l20.78-6.22 10.42-3 10.44-2.93 20.94-5.59 21-5.25C382 261.7 484.59 232.18 513.37 230c-7 1.8-168.2 54.82-176.74 57.39L316 293.56q-20.57 6.22-41 12.91l-20.38 6.76-20.3 7-10.1 3.61q-5.07 1.77-10.08 3.64l-10 3.71-9.9 3.78zm523.53-49.66c-39.92 36.15-102.55 67-169.48 94.19l16.51 15.78h0s100.48-39.96 152.97-109.97zm-497.25 186.7a24.45 24.45 0 0 1 .66-5.43 27 27 0 0 1 1.75-4.9 36.8 36.8 0 0 1 5.26-8 72.69 72.69 0 0 1 13-11.7 206 206 0 0 1 28.63-16.72c19.57-9.69 39.67-17.6 59.8-25.27s40.4-14.82 60.64-22L445 341.87c40.42-14.25 79.8-31.3 119.21-47.95 9.86-4.14 93.82-54.66 102.72-60.67-8.32 6.8-67.53 50.51-99.82 67.22-39.1 18-78.43 35.84-118.64 50.95l-60.43 22.25-60.19 22.46-29.66 12c-9.8 4.15-19.51 8.46-28.95 13.15A195.93 195.93 0 0 0 242.3 437a64.46 64.46 0 0 0-10.93 9.68c-3 3.49-7.94 11.25-7.92 14.53z" fill="#5e3244"/><use xlink:href="#G" class="C D E F"/><path d="M534.47 361.33l48.12-20.36 6-2.61 5.95-2.67 6-2.66 5.91-2.76 5.92-2.73 5.88-2.81 11.69-5.74q23.34-11.6 45.56-25.15a427.09 427.09 0 0 0 43-29.7l-4.34 5-4.49 4.84c-3.12 3.11-6.22 6.29-9.55 9.17-1.64 1.49-3.31 2.92-5 4.39s-3.41 2.8-5.12 4.21-3.45 2.76-5.2 4.11l-5.32 4A448.92 448.92 0 0 1 634.62 328c-3.84 2.18-7.74 4.23-11.63 6.29l-11.74 6.08-5.9 3-6 2.87-11.93 5.64q-24 11.06-48.52 20.65zm234.61 69.76l-4-.72-3.94-.82-7.79-1.86q-7.74-2-15.34-4.43a315.52 315.52 0 0 1-29.83-11.2A306.66 306.66 0 0 1 679.61 398a208.59 208.59 0 0 1-26.43-17.56l7.19 3.35 7.12 3.39 14.28 6.55q14.25 6.56 28.91 12l7.33 2.71 7.39 2.56c4.94 1.65 9.9 3.22 14.89 4.67l15 4.13 3.77.91c1.26.32 2.52.62 3.78.89 2.5.57 5.08 1.14 7.49 1.59zM615.36 160c-36.49-4.61-73.12-6.62-109.74-7.18s-73.25.43-109.73 3.15c-18.24 1.33-36.45 3.08-54.58 5.35s-36.18 5-54.06 8.36a484.87 484.87 0 0 0-52.83 12.84 211.12 211.12 0 0 0-25 9.44 113.77 113.77 0 0 0-11.58 6.04 56.05 56.05 0 0 0-9.85 7.45L179.5 197a67.76 67.76 0 0 1 12-9.28 115.9 115.9 0 0 1 12.81-6.8 226.14 226.14 0 0 1 26.49-10A457.87 457.87 0 0 1 285.08 158c36.5-6.53 73.31-10.19 110.17-12.17a1068.52 1068.52 0 0 1 110.62-.17l27.59 1.94c9.19.78 18.35 1.78 27.49 2.93a542.75 542.75 0 0 1 54.41 9.47zM210.05 449.36a24.5 24.5 0 0 1 .64-5.37 26.93 26.93 0 0 1 1.71-4.87 36.36 36.36 0 0 1 5.18-8 71.43 71.43 0 0 1 12.89-11.68 202.41 202.41 0 0 1 28.39-16.69c19.41-9.65 39.35-17.52 59.32-25.14s40.08-14.74 60.17-21.86l60.25-21.15c40.11-14.17 80-28.92 119.07-45.49q14.67-6.18 29.14-12.83 14.47-6.65 28.69-13.79 14.22-7.17 28-15.08 13.78-7.91 27.08-16.87c-8.25 6.75-16.94 13-25.81 18.91s-18 11.55-27.24 16.89-18.63 10.37-28.13 15.26-19.15 9.51-28.82 14c-38.79 18-78.6 33.46-118.5 48.49l-59.95 22.12-59.72 22.33L293 400.49c-9.71 4.14-19.35 8.41-28.71 13.08a191.39 191.39 0 0 0-26.63 15.63 63.16 63.16 0 0 0-10.78 9.64c-3 3.47-4.85 7.2-4.83 10.48zm-25.57-138.11c13.52-5.55 27.09-10.39 40.74-15.25s27.38-9.26 41.18-13.53c27.6-8.52 55.41-16.36 83.45-23.23S406 246 434.45 240.93l10.64-1.93 5.33-1 5.34-.85 21.39-3.15c7.13-1.1 14.3-1.92 21.46-2.74l21.5-2.31q-10.54 2.44-21.09 4.73l-21.08 4.63-42 9.66q-42 9.66-83.48 21.17l-20.73 5.79-20.66 6.07L270 293.81l-20.42 6.74-20.35 6.94c-13.48 4.75-27 9.69-40.19 14.83z" class="B"/></g><defs ><path id="B" d="M233.25,500c0-147.32,119.43-266.75,266.75-266.75S766.75,352.68,766.75,500A266.22,266.22,0,0,1,668.1,707.12q-8.21,6.68-16.94,12.69C591,758,515,758,446.39,751.89c-6.66-1-13.3-2.26-19.89-3.71-26.33-5.8-51.82-14.75-75.37-27.8Q342.4,715,334.2,708.76a199.59,199.59,0,0,1-15.8-13.38q-7.14-6.63-13.79-13.78A265.86,265.86,0,0,1,233.25,500Z"/><path id="C" d="M670.06 788.32q3.3-3.32 6.5-6.71c45.16-54.71 48.7-112.39 57.87-148.37V619l-2.44.84 2.44-4.56c-.06-.1-3.49 3.38-3.55 3.28a33.65 33.65 0 0 1-5.08 3.44l-32.55 11.28a220.36 220.36 0 0 1-43.89 3.82c-63-.26-63.24-14.87-113.2-20l-96.49 1.58c-25.69 3.84-37.06 11.81-88 12.85-44.15.9-83.62-10-83.62-10v12.68c14 36.84 4.58 64.43 29 110.49 0-.65 0-1.31-.05-2-4.39-21.71 0-41.57 2.12-49.19l.36-2.92v-.07-.2.1c0 .14.11.45.22.9l.36-1.11s.89 4.91 2.54 12.74c3.93 15.48 11.16 43 19.45 70.08.92 2.43 1.87 4.81 2.84 7.11a16.81 16.81 0 0 0 .23.65c27.94 29.88 62.13 55.36 93.14 74.5l9.48 5.61a86.4 86.4 0 0 1 2.41-43.06l.21 1.08c.24-.77.4-1.19.4-1.19s11.43 47.45 34.52 62.83c.57.24 1.15.47 1.73.66l-.44.16.1.06 1.77 1a208.45 208.45 0 0 0 21.34 8.53c5.41 1.57 9.84 2.39 12 2.39 4.75 0 32-10.61 48.69-49.07 1.1-3.27 1.63-5.32 1.63-5.32l.28.69.32-.8a56 56 0 0 1 8 30.14 526 526 0 0 0 72.06-47.55v-.11l.8-1.94.06-.13.81-2h0l.84-2.08h0c14.48-35.83 23.58-89 23.58-89 .06-.18.28.09.6.74v-.85s16.27 22.41 10.61 62.24z"/><path id="D" d="M269.77 550.18c-1-28.36 18-52.36 43.28-63.56a62.23 62.23 0 0 1 8.15-2.7 70 70 0 0 1 42.22 2.68 71.54 71.54 0 0 1 8.92 4.16c29.53 15.89 42.79 53.26 31.36 83.46a59.6 59.6 0 0 1-4.18 8.82 63.85 63.85 0 0 1-4.71 7.8 64.78 64.78 0 0 1-5.68 7 63.08 63.08 0 0 1-7.12 6.07 68.37 68.37 0 0 1-7.85 5c-27.38 13-64.38 9-86.44-11.39a68.28 68.28 0 0 1-6.11-7.48 65 65 0 0 1-5.58-9.5 55.59 55.59 0 0 1-5.71-21.73 71.3 71.3 0 0 1-.55-8.63z"/><path id="E" d="M532.49,646.6c0-8.06-14.55-14.6-32.49-14.6s-32.49,6.54-32.49,14.6h0v44.34c0,14.41,14.55,26.08,32.49,26.08s32.49-11.67,32.49-26.08V646.61Z"/><path id="F" d="M421.52,244.56C335.16,273.62,263.78,346.74,245.06,429.8,213,556.34,262.89,634,307.17,681.6c4.37,4.7-69.46-138.26-2.43-241,61.1-2.32,152.42-14.38,195.78-62.86C496.18,398.87,484,415,486,418.18c2.88,4.51,38.19-5.53,47.84-23.54l.83-3.61c34.72,12.58,91.76,26.59,144,6.61C801.81,535.94,691.29,689,700.3,679a265.78,265.78,0,0,0,69-179c0-86.42-44.28-148.89-44.28-148.89C694.5,296.7,641.5,259.24,580.22,242"/><path id="G" d="M747.94 163.66h0c-63.29-88.9-481.94-69.83-543.78-7.97-66.94 66.94 29.18 351 29.18 351 0-41.1 160.33-82.31 303.37-139.83 99.17 63.69 228.92 108.54 228.92 108.54s27.96-266.08-17.69-311.74z"/></defs></svg>