<svg xmlns="http://www.w3.org/2000/svg" xmlns:xlink="http://www.w3.org/1999/xlink" viewBox="0 0 1000 990" xmlns:v="https://vecta.io/nano"><style><![CDATA[.B{stroke:#592d3d}.C{fill:none}.D{stroke-miterlimit:10}.E{fill:#592d3d}.F{stroke-width:12}.G{fill:#fff}.H{fill:#b56241}.I{stroke-width:8}.J{fill:#e2e2e2}.K{fill:#cc734c}.L{stroke-linecap:square}.M{fill:#89d86f}]]></style><path d="M225.35 498c183.42 77.95 371.14 79.06 555.94 0 17.53-7.5 17.43-139.87 0-133.81-180.47 62.83-371.33 63.5-555.94 0-21.96-7.59-19.82 125.34 0 133.81z" transform-origin="center center" class="B D E F"/><path d="M610,758.72c90.76,0,72,114.24,72.87,241.28H610Z" class="K"/><path d="M632.74 831.87L610 870l11.38 130h31.76c.77-180.27-20.4-168.13-20.4-168.13z" class="H"/><use xlink:href="#B" class="K"/><path d="M269.61 634.48l2.11 3.58 1.33 2.14 2 3.19 1.46 2.24 2 3 1.56 2.28 2 2.88 1.65 2.3 2 2.77 1.73 2.29 2.07 2.7 1.79 2.26 2.12 2.63 1.85 2.23 2.17 2.57 1.91 2.2 2.22 2.5 2 2.16 2.6 2.79 1.21 1.28 3.91 4 .26.27 3.91 3.81 1.58 1.5 2.86 2.66 1.16 1.06 3.14 2.78q4.9 4.27 10 8.19 8.19 6.24 16.93 11.62c23.55 13 49 22 75.37 27.8 6.59 1.45 13.23 2.7 19.89 3.71 42.1 3.75 87 5.18 129.28-3.08C508.45 729 185.59 612.74 388.8 257.48h0a249.02 249.02 0 0 0-8.06 3.88l-.59.29-3.65 1.88-1 .53a280.52 280.52 0 0 0-11.13 6.23l-.9.53-3.46 2.1-.87.54q-5.36 3.35-10.55 6.93l-1.08.75-3.23 2.29-.66.47q-3.27 2.39-6.46 4.84l-.62.48-3 2.39-1.17.94-3 2.45h0c-2.11 1.75-4.19 3.55-6.24 5.37l-1.14 1-2.69 2.45L318 305q-4.28 4-8.37 8.17l-1.38 1.41-2.36 2.47-1.37 1.48q-2.06 2.2-4.06 4.46c-.45.51-.91 1-1.36 1.54l-2.11 2.45-1.51 1.79-2 2.44-1.61 2-3.16 4-1.61 2.11-1.79 2.4-1.59 2.18-1.68 2.33q-1.42 2-2.8 4.05l-1.49 2.22-1.64 2.5-1.49 2.31-1.68 2.71-1.28 2.07-2.61 4.4-1.22 2.16-1.61 2.87-1.19 2.19-1.9 3.59-1.2 2.34-1.91 3.84-1 2.09-1.53 3.29-.91 2q-1.11 2.47-2.17 5l-.65 1.57-1.56 3.82-.79 2-1.45 3.8-.62 1.65q-.94 2.63-1.85 5.26l-.56 1.7q-.66 2-1.29 4l-.6 1.91-1.37 4.63-.29 1q-.78 2.76-1.5 5.54c-.16.59-.3 1.19-.45 1.78l-1 4.18-.42 1.75-1.24 5.71-.15.77q-.51 2.55-1 5.1l-.32 1.82-.74 4.5-.24 1.52-.83 5.88-.15 1.3-.55 4.79-.19 1.81-.45 5.06c0 .35-.06.69-.08 1q-.22 3-.39 6.05c0 .53 0 1.07-.07 1.6q-.1 2.36-.18 4.71v1.77l-.08 6.17v.1l.08 6.62c0 .76.06 1.52.08 2.28l.17 4.41c0 .89.11 1.77.16 2.66l.25 4 .24 2.83.34 3.77c.09 1 .21 1.94.31 2.91l.42 3.64.39 2.95.5 3.55.47 3 .57 3.49.55 3 .65 3.44.62 3 .74 3.4.68 2.93.82 3.36.74 2.91.91 3.34c.26 1 .53 1.92.81 2.87l1 3.31.88 2.84 1.06 3.28.94 2.8 1.15 3.27 1 2.74 1.24 3.27c.35.89.69 1.79 1 2.68l1.34 3.28 1.08 2.59 1.45 3.33 1.1 2.47 1.6 3.44 1.08 2.3 1.87 3.75.95 1.9q2.88 5.61 6 11.07l1.02 1.69z" class="H"/><use xlink:href="#B" class="B C D F"/><path d="M386.12,758.72c-90.77,0-72,114.24-72.87,241.28h72.87Z" class="K"/><path d="M367.23 831.87L390 870l-11.39 130h-31.73c-.81-180.27 20.35-168.13 20.35-168.13z" class="H"/><path d="M619.47,1070H380.53a13.28,13.28,0,0,1-13.27-13.28V772a13.28,13.28,0,0,1,13.27-13.28H613.76c13.09,0,19,7.66,19,19.88v278.08A13.28,13.28,0,0,1,619.47,1070Z" class="K"/><path d="M629.05 766.62a19.33 19.33 0 0 1-2.51-4 17.25 17.25 0 0 0-8.28-3.51 28.88 28.88 0 0 0-4.5-.34H380.53A13.28 13.28 0 0 0 367.26 772c29 10.42 83.29 16.24 132.74 16.24 63.06 0 104.38-9.35 129.05-21.62z" class="H"/><g class="B C D F"><path d="M610 758.72c90.76 0 72 114.24 72.87 241.28h-50.13M386.12 758.72c-90.77 0-72 114.24-72.87 241.28h50.07" class="L"/><path d="M380.53,758.82l233.23-.1"/></g><path d="M380.53,1070H497.15C388,1070,396.24,838.82,367.26,838.82v217.86A13.28,13.28,0,0,0,380.53,1070Z" class="H"/><path d="M361.26 860.85c-.19-3.67-.11-7.34.05-11s.47-7.35.86-11l.65-5.51c.25-1.84.49-3.67.85-5.51a44.18 44.18 0 0 1 3.59-11 44.18 44.18 0 0 1 3.59 11c.36 1.84.62 3.67.85 5.51l.65 5.51c.38 3.67.68 7.34.85 11s.25 7.34.06 11z" class="E"/><path d="M632.74 870v8 102.75 8.53 67.41a13.28 13.28 0 0 1-13.27 13.31H380.53a13.28 13.28 0 0 1-13.27-13.28v-58.2-137.67" class="B C D F"/><path d="M626.74 870c-.19-4.17-.1-8.35.06-12.53s.47-8.35.85-12.53l.65-6.27c.24-2.09.49-4.17.85-6.26a55.09 55.09 0 0 1 3.59-12.53 55.09 55.09 0 0 1 3.59 12.53c.36 2.09.62 4.18.85 6.26l.65 6.27c.38 4.18.69 8.35.85 12.53s.25 8.36.06 12.53zm-56.06-27.55C570.9 833 582.9 829 588.9 835a10.611 10.611 0 1 1-15.16 14.85 10.4 10.4 0 0 1-3.06-7.4zm-162.57-.3C407.9 834 416.9 830 422.9 833c8 3 8 14 0 19-4 2-8 0-11.75-2.48a10.39 10.39 0 0 1-3.04-7.37z" class="E"/><g class="H"><path d="M500 831.77a27.13 27.13 0 0 1 1.5 5.84 42.47 42.47 0 0 1 .49 5.84l.3 11.69.25 11.69.17 11.67.28 46.74v46.74l-.53 23.37c-.1 3.89-.29 7.79-.67 11.68a92.5 92.5 0 0 1-1.77 11.69 92.5 92.5 0 0 1-1.77-11.69c-.38-3.89-.57-7.79-.67-11.68l-.53-23.37v-46.74l.18-46.73.17-11.7.33-11.68.33-11.68a44.11 44.11 0 0 1 .5-5.84 27.13 27.13 0 0 1 1.44-5.84z"/><path d="M425.22 883a18.51 18.51 0 0 1 4.67-1.5 29.75 29.75 0 0 1 4.68-.5l9.35-.33 18.7-.41 37.38-.27h37.39l18.7.53 9.34.67a61.34 61.34 0 0 1 9.35 1.78 59.17 59.17 0 0 1-9.35 1.77l-9.34.67-18.7.52c-12.46.19-24.92 0-37.39 0s-24.93 0-37.4-.15c-6.23-.06-12.46-.26-18.68-.5l-9.35-.34a29.5 29.5 0 0 1-4.67-.5 18.45 18.45 0 0 1-4.68-1.44zm17.19 31.38a12.51 12.51 0 0 1 3.74-1.11 18.35 18.35 0 0 1 3.62-.15l7.17.21 14.34.17 28.76-.21c9.67-.29 19.26-.43 28.88-.39 4.81 0 9.62.13 14.42.24a70.37 70.37 0 0 1 7.23.47 38.17 38.17 0 0 1 7.27 1.53 36.56 36.56 0 0 1-7.16 2 61.08 61.08 0 0 1-7.21.86c-4.82.35-9.64.65-14.45.82-9.64.36-19.27.32-28.88.45-4.81 0-9.61.22-14.48.1l-14.52-.31c-4.83-.18-9.68-.58-14.5-1.08l-7.23-.9a16.82 16.82 0 0 1-3.57-.84 11.51 11.51 0 0 1-3.43-1.86zm-3.48 35.49a13.07 13.07 0 0 1 3.82-1.5 19.13 19.13 0 0 1 3.82-.49l7.63-.32 15.28-.41L500 947h30.54c5.09.09 10.18.3 15.27.53a72.73 72.73 0 0 1 7.63.66 41.2 41.2 0 0 1 7.66 1.81 41.25 41.25 0 0 1-7.63 1.77 70.34 70.34 0 0 1-7.64.67l-15.27.53c-10.18.2-20.37.06-30.55 0l-30.54-.25-15.28-.49-7.63-.37a19.33 19.33 0 0 1-3.82-.5 12.85 12.85 0 0 1-3.81-1.49zm108.92-101.89l-42.13-34.37 74.63-54.79h-160.7l74.63 54.79-42.13 34.37-37.63-56.5v78.48h174.26v-83.44l-40.93 61.46z"/></g><g class="G"><path d="M616.66 758.16l-42.73.1a119.49 119.49 0 0 1-1.43 13.48 63.7 63.7 0 0 1-1.74 6.34c-2.34 6.49-17.26 12-21.49 16.73a48.22 48.22 0 0 1-4.5 4.43c-25.17 18.2-65.17 19.2-89.48-.58a51.36 51.36 0 0 1-7.11-7.61c-4.23-5.56-16.4-11.59-18.1-18.94a60 60 0 0 1-1.08-6.59 63.55 63.55 0 0 1-.36-6.8l-45.21-.56a13.28 13.28 0 0 0-13.28 13.27v284.69a13.28 13.28 0 0 0 13.28 13.27h238.93a13.27 13.27 0 0 0 13.27-13.27V778c0-12.18-5.88-19.84-18.97-19.84z"/><path d="M612.84,758.16c63.54,0,88.52,43.39,78.9,272-18.74,6.7-55.91,4.59-55.91,4.59Z"/></g><path d="M451.06 855.4l48.45-24.09 48.58 24.09-37.06-43.02-43.89.83-16.08 42.19zm184.57-24.09s-22.79 84.54-19.31 234l33.21-31 3.58-137.58c-5.62-72.23-17.48-65.42-17.48-65.42z" class="J"/><path d="M389,758.16c-61.78,0-88.88,56.45-80.75,245.48,22.42,9.91,56.19,5.58,56.19,5.58Z" class="G"/><g class="J"><path d="M306.94 957.49q.26 20.46 1.21 43.48c15.27.73 43.69.88 57.11 0l4.18-42.81c-10.77-1.26-45.78-1.67-62.5-.67z"/><path d="M370.12 831.31l-.5 177.69-13.35.9c-2.97-149.05 13.85-178.59 13.85-178.59z"/></g><g class="B D F"><path d="M612.84 758.16c67.42 0 78.45 56.28 78.9 133.78v138.22s-50 5.53-55.91 4.59l-.1-142.11M389 758.16c-25.73 0-43.52 8.12-55.71 22.44-19.45 22.87-24.63 61.54-25 108.27v123.77c12.06 3.32 61.36-3.64 61.36-3.64l.49-118.6" class="C L"/><path d="M372.6 1011.24c-1.83 2.61-73.77 1.92-74.67 0s-2.19-37.5 0-41c1.8-2.88 72.11-2.27 74.67 0s1.83 38.39 0 41z" class="G"/></g><path d="M383.43 1069.39H500c-109.19 0-100.91-231.14-129.89-231.14v217.87a13.28 13.28 0 0 0 13.32 13.27z" class="J"/><path d="M364.15 860.29c-.19-3.67-.11-7.35.06-11s.47-7.34.85-11l.65-5.51c.24-1.84.49-3.67.85-5.5a44.05 44.05 0 0 1 3.59-11 44.05 44.05 0 0 1 3.59 11c.36 1.83.62 3.67.85 5.5l.65 5.51q.58 5.52.86 11c.16 3.67.24 7.35 0 11z" class="E"/><g class="B D F"><path d="M635.63 869.4v8 102.76 8.53 67.41a13.27 13.27 0 0 1-13.27 13.27H383.43a13.28 13.28 0 0 1-13.28-13.27V860.29" class="C"/><path d="M697.42,970.24c2.22,2.26,1.59,38.39,0,41s-64,1.92-64.77,0-1.9-37.5,0-41c.27-.5,2.28-.89,5.45-1.18" class="G L"/></g><path d="M678.92,968.3c3.8.3,15-1.18,15.42-.76" class="G"/><path d="M678.92 968.3a23.67 23.67 0 0 1 1.88-2.16 12.13 12.13 0 0 1 1.78-1.47 12.74 12.74 0 0 1 1.81-1l1.83-.79a24.1 24.1 0 0 1 3.79-1.18 15.85 15.85 0 0 1 2-.31h1.17.82c.12 0 .44 0 .71.07h.35l.49.11.25.06.2.06.57.21a6.45 6.45 0 0 1 2 1.37l4.2 4.29-8.65 8.48-4.12-4.37a5.73 5.73 0 0 0 1.91 1.32c.18.08.36.14.54.2h.17l.19.05a2.34 2.34 0 0 0 .38.09h.19 0 .22-.15-.75-1.82a26.27 26.27 0 0 1-3.92-.53l-2-.49a12.56 12.56 0 0 1-2-.72 10 10 0 0 1-2.08-1.32 8.19 8.19 0 0 1-1.96-1.97z" class="E"/><path d="M592.51 763.64l-74.67 54.81 42.14 34.38 59.42-89.24-26.89.05z" class="J"/><path d="M629.63 869.4c-.19-4.18-.1-8.36.06-12.53s.47-8.36.86-12.53l.64-6.27c.24-2.09.49-4.18.86-6.27a54.83 54.83 0 0 1 3.58-12.53 54.37 54.37 0 0 1 3.59 12.53 96.22 96.22 0 0 1 .85 6.27l.65 6.27c.39 4.17.69 8.35.85 12.53s.26 8.35.06 12.53z" class="E"/><path d="M383.43,758.26l233.23-.1" class="B C D F"/><path d="M529.39 835.55l-22.35-22.34-22.34 22.34 10.98 10.98-9.72 106.63 20.74 16.17 21.42-16.17-9.71-106.63 10.98-10.98z" class="J"/><path stroke-width="6" d="M500.04 813.21v256.18" class="B C D L"/><path fill="#633749" d="M500.04 813.21l22.35 15.34-22.35 22.35-22.34-22.35 22.34-15.34z"/><path d="M419.62 758.8s43.27 39.34 74.66 54.81C479 838.82 452.15 848 452.15 848l-59.43-89.23zm160.76 0S541 800 505.72 813.61c10 20.28 42.13 34.37 42.13 34.37l59.43-89.23z" class="B D F G"/><path fill="#633749" d="M478.96 946.16l20.74 16.17 21.42-16.17-10-109.78h-22.16l-10 109.78z"/><path d="M477.7 828.55l10.98 10.98-9.72 106.63 20.74 16.17 21.42-16.17-9.71-106.63 10.98-10.98" class="B C D I"/><path d="M638.1,969.06c7.51-.71,21.51-.89,34-.67" class="G"/><g class="E"><path d="M637.54 963.08a50.92 50.92 0 0 1 8.84-.47c2.9.07 5.78.3 8.66.65l4.3.61a43.36 43.36 0 0 1 4.29.85 27.53 27.53 0 0 1 8.5 3.67 30.13 30.13 0 0 1-8.52 3.5l-4.23.86-4.21.69-8.35 1-8.16.54-6 .1-1-11.13z"/><circle cx="515.77" cy="982.93" r="4.8"/><path d="M490.89 836.19c-.05-.06 0 0 0 0l.07.05a.88.88 0 0 1 .17.12l.38.29.78.65 1.7 1.39 2 1.42a27.37 27.37 0 0 1 2.71 2.33 5.61 5.61 0 0 1-3.13 2.43 9.41 9.41 0 0 1-3.7.27 11 11 0 0 1-3.63-1 9.72 9.72 0 0 1-1.65-1 8.85 8.85 0 0 1-.77-.63l-.37-.36-.2-.21-.25-.29z"/></g><path d="M271.4 576.82c-1-28.36 18-52.36 43.28-63.56a62.37 62.37 0 0 1 8.16-2.7 70 70 0 0 1 42.21 2.68 71.67 71.67 0 0 1 8.95 4.16c29.53 15.88 42.79 53.25 31.36 83.46a61.68 61.68 0 0 1-4.18 8.82 54.68 54.68 0 0 1-17.51 20.83 69.25 69.25 0 0 1-7.85 5c-27.38 13-64.38 9-86.45-11.4a69.35 69.35 0 0 1-6.11-7.47 64.89 64.89 0 0 1-5.57-9.5 55.78 55.78 0 0 1-5.69-21.75 75.67 75.67 0 0 1-.6-8.57z" class="H"/><path d="M269.77 558.47c-1-28.36 18-52.36 43.28-63.56a62.23 62.23 0 0 1 8.15-2.7 70 70 0 0 1 42.22 2.68 71.54 71.54 0 0 1 8.92 4.16c29.53 15.89 42.79 53.25 31.36 83.46a59.6 59.6 0 0 1-4.18 8.82 63.85 63.85 0 0 1-4.71 7.8 64.78 64.78 0 0 1-5.68 7 63.08 63.08 0 0 1-7.12 6.07 68.37 68.37 0 0 1-7.85 5c-27.38 13-64.38 9-86.44-11.4a67.24 67.24 0 0 1-6.11-7.47 65 65 0 0 1-5.58-9.5 55.59 55.59 0 0 1-5.71-21.83 71.3 71.3 0 0 1-.55-8.53z" class="B D F G"/><circle cx="338.51" cy="559.08" r="12.24" class="E"/><path stroke-linecap="round" stroke-width="16" d="M715.03 559.08H603.4" class="B C D"/><g class="E"><path d="M627,574.16a114.14,114.14,0,0,1,13.07-1.56c4.36-.3,8.72-.43,13.08-.44s8.71.14,13.07.43a114.34,114.34,0,0,1,13.08,1.57,112.18,112.18,0,0,1-13.08,1.58q-6.54.43-13.07.42t-13.08-.43A112,112,0,0,1,627,574.16Z"/><path d="M243.89 489.13c5.64 15.83 20.9 24.06 33.4 26.94 13.06-20.24 56.65-28.92 89.37-17.44 27.8 5-10.81-25.57-72.47-9-2.31.85-14.56 2.95-30.28-9.19-2.19-1.69 4.68 13.71 12.5 20-11.35-.23-13.21-.22-32.52-11.31z" fill-rule="evenodd"/><circle cx="499.7" cy="642.93" r="53.95"/></g><path d="M491.21 663.39c-14.07-3.37-27.62 1-33.45 9.87a48.46 48.46 0 0 0 52.82 20.14 49.33 49.33 0 0 0 6-2c1.35-12.01-9.5-24.22-25.37-28.01z" fill="#f28195"/><path d="M478.65 652h.8.65l1.25.06a17.92 17.92 0 0 1 2.44.35 21 21 0 0 1 4.74 1.53 18.15 18.15 0 0 1 7.78 6.65 17.17 17.17 0 0 1 2.77 9.28 14.75 14.75 0 0 1-2.69 8.47l-3.31-7.29a24 24 0 0 0-1.62-2.87 12.38 12.38 0 0 0-1.95-2.21 13 13 0 0 0-4.82-2.66 24.72 24.72 0 0 0-2.85-.69l-1.47-.22-.73-.07h-.33-.19z" class="E"/><circle cx="499.7" cy="642.93" r="53.95" class="B C I"/><path d="M558.73,399.34c-12.86,24-60,37.44-63.83,31.42-4.29-6.73,37.85-55.32,13.9-106.14" class="H"/><use xlink:href="#C" fill="#a56941"/><path d="M726.85 348.62c-5.4.24-10.66.11-16-.14s-10.59-.67-15.87-1.26c-2.64-.29-5.28-.6-7.91-1s-5.27-.72-7.89-1.23a76.91 76.91 0 0 1-15.58-4.54 91.87 91.87 0 0 1 16-2.62c2.63-.22 5.26-.37 7.89-.48l7.88-.34 15.72-.45c5.23-.11 10.48-.12 15.62 0zM236.6 430v.39l-.12.53-.28 1.11-.66 2.29-1.54 4.75-1.77 5a20.6 20.6 0 0 1-1.38 2.6 17.91 17.91 0 0 1-2.07 2.77 13.14 13.14 0 0 1-3.72-5.47 16.11 16.11 0 0 1-.76-2.9c-.21-1-.31-2-.43-2.95a30 30 0 0 1 0-6 24.44 24.44 0 0 1 .48-3l.41-1.51a7.84 7.84 0 0 1 .27-.77l.36-.9z" class="E"/><path d="M260.74 460.82v-.06c17-.56 38.63-1.9 62.14-4.84 2.63-55.92 22-121.58 65.92-198.44h0l-6.8-3.25a282.15 282.15 0 0 0-150.84 173.08c-13.86 11.92-26.86 20.34-27 25.69-.27 9.92 39.31 9.36 56.58 7.82z" fill="#8d5638"/><use xlink:href="#C" class="B C D F"/><path d="M505.93 244.31a367.42 367.42 0 0 0-42.48 4.94l-10.44 2.05c-3.49.64-6.9 1.61-10.35 2.41l-10.26 2.72-10.15 3.12a314.12 314.12 0 0 0-39.43 15.73 348.31 348.31 0 0 0-37.25 21 183.85 183.85 0 0 1 35.08-25.14 219.23 219.23 0 0 1 39.76-17.29l10.42-3.05c3.48-.96 7-1.82 10.55-2.6s7.1-1.4 10.66-2 7.15-1.07 10.73-1.52a190 190 0 0 1 43.16-.37z" class="G"/><path d="M427.29 501.13l-13-4.39-31.2-10.54-37.6-12.71-32.49-11-15.81-5.34-.22-.08a10.005 10.005 0 0 0-5.32 19.29l13 4.39 31.2 10.54 37.6 12.7 32.49 11 15.81 5.34.22.08a10.005 10.005 0 0 0 5.32-19.29zm269.89-47.23l-12.72 5.1-30.54 12.31-36.81 14.84L585.3 499q-7.74 3.12-15.47 6.24l-.22.08c-2.51 1-4.56 2.17-6 4.6a10.18 10.18 0 0 0-1 7.71 10.06 10.06 0 0 0 4.6 6c2.22 1.18 5.26 2 7.7 1l12.73-5.13 30.54-12.31L655 492.33l31.81-12.82 15.47-6.24.22-.09c2.51-1 4.56-2.17 6-4.59a10 10 0 0 0-3.59-13.69c-2.22-1.17-5.27-2-7.71-1z" class="E"/><g transform-origin="center center"><circle cx="491.44" cy="157.14" r="47.48" class="M"/><path d="M491.44 204.62a47.47 47.47 0 0 0 46.46-57.31c-30.78-4.77-62.7-2-93.77 6-.1 1.26-.17 2.53-.17 3.82a47.48 47.48 0 0 0 47.48 47.49z" fill="#7dc462"/><circle cx="491.44" cy="157.14" r="47.48" class="B C F"/><use xlink:href="#D" class="M"/><g fill="#7dc462"><path d="M246.8 365.63a254.67 254.67 0 0 0-6.54 57.5h83C321.7 342.47 301 275.11 406 193c-75.32 28.59-143.95 91.38-159.2 172.63z"/><path d="M258.18,321.12a109.41,109.41,0,0,0-8.57,33.51q-1.52,5.44-2.81,11a254.67,254.67,0,0,0-6.54,57.5H440.31a827.17,827.17,0,0,1,127.59,0H763.81a254.67,254.67,0,0,0-6.54-57.5q-1.29-5.55-2.81-11c-3.46-11.37-6.15-23.44-9.86-35C582.71,259.73,419,261,258.18,321.12Z"/></g><use xlink:href="#D" class="B C D F"/><use xlink:href="#E" class="M"/><path d="M751.33 443.71a43.58 43.58 0 0 1 1.35 9.9c.09 3.27-.11 6.52-.26 9.78l-.36 4.87-.52 4.85-1.59 9.61-7.87-1.41 1.64-9.45 1-4.71 1-4.7 2.22-9.4a53.94 53.94 0 0 1 3.39-9.34zm-1.42-101.24a175.32 175.32 0 0 1 3.63 19l1.09 9.59.66 9.63c.26 6.42.37 12.84.06 19.25a114.35 114.35 0 0 1-2.45 19.11c-1-6.39-1.67-12.7-2.32-19l-2.05-18.78-1.3-9.32-1.52-9.27c-1.07-6.17-2.3-12.29-3.59-18.41z" class="E"/><path d="M668.78 322c7.56 42.87 6.71 89.49 0 138.73m-70.59-153.12c5.15 42.9 4.57 89.55 0 138.83" class="B C D I"/><path d="M533.85 356.47a172.75 172.75 0 0 1 2.37 20.68c.4 6.9.52 13.8.65 20.71v10.36l-.12 10.35c-.15 6.9-.4 13.8-.87 20.69l-8-.4.94-20.59 1.21-20.57 1.35-20.6c.53-6.87 1.31-13.74 2.47-20.63zm2.08-56.59a58.54 58.54 0 0 1 .28 6.35l-.08 3.18-.13 3.19-.68 6.38a22.42 22.42 0 0 1-2.08 6.41 23.29 23.29 0 0 1-2.7-6.21c-.57-2.08-.93-4.16-1.31-6.25l-.49-3.12-.39-3.13a55 55 0 0 1-.35-6.29z" class="E"/><path d="M467.76 299.65v139m-64.38-132.47c-2.06 43-1.83 89.73 0 139.11" class="B C D I"/><path d="M333.37 391.65a161.31 161.31 0 0 1 2.71 16.78l1.65 16.75 1.51 16.73 1.25 16.74-8 .64c-.58-5.61-.93-11.24-1.18-16.87l-.28-8.46-.1-8.46c0-5.64.05-11.29.35-16.93a117.52 117.52 0 0 1 2.09-16.92zm7.11-71.47c-.25 3.65-.64 7.28-1.05 10.91l-.66 5.45-.72 5.45-1.6 10.93a67.39 67.39 0 0 1-2.8 10.92 55.71 55.71 0 0 1-2-11.14c-.3-3.72-.32-7.42-.38-11.14V336l.2-5.56c.2-3.71.49-7.41 1-11.09z" class="E"/><path d="M264.86,340.45c-6.86,43-6.09,89.85,0,139.3" class="B C D I"/><path d="M753.07,434.58a3.75,3.75,0,1,0-3.75-3.75,3.8,3.8,0,0,0,3.75,3.75Z" class="E"/><g class="C D"><path d="M758.28 341.38c10 42.84 8.85 89.43 0 138.64M681 320c7.56 42.87 6.71 89.49 0 138.74m-70.62-153.29c5.15 42.9 4.57 89.55 0 138.83m-66.32-146.46c2.74 42.92 2.44 89.61 0 138.92M479.8 297.16v139m-64.46-132.63c-2.06 43-1.83 89.73 0 139.11M348.41 317c-4.46 43-4 89.79 0 139.21m-71.67-118.57c-6.86 43-6.09 89.85 0 139.3" stroke="#7dc462" class="I"/><use xlink:href="#E" class="B F"/></g><path d="M426.76 283.72a328.8 328.8 0 0 1 38.61-5.72l9.74-.78 9.75-.56 9.77-.3 9.77-.13c13 0 26.05.63 39 1.84a324.4 324.4 0 0 1 38.6 5.8l-38.88-1.13-38.75-.52h-9.68l-9.69.11-9.68.14-9.7.2-38.86 1.05z" class="E"/><path d="M347.31 233.83a183.71 183.71 0 0 1 22.38-15.33c7.78-4.62 15.81-8.84 24-12.66 2-1 4.13-1.86 6.2-2.78s4.13-1.86 6.24-2.67c4.22-1.65 8.4-3.38 12.7-4.8a217 217 0 0 1 26.06-7.5c-2.07.91-4.16 1.78-6.25 2.63s-4.19 1.64-6.25 2.56l-12.43 5.22-3.09 1.33c-1 .43-2.08.85-3.1 1.32l-6.15 2.73c-2.06.88-4.09 1.83-6.14 2.75l-6.1 2.83-6.1 2.83-6.05 3-12.05 6c-7.99 4.02-15.95 8.19-23.87 12.54z" class="G"/></g><g class="G"><circle cx="382.91" cy="594.66" r="33.84" opacity=".2"/><path d="M375.87 631l43.31-41.74a147.47 147.47 0 0 0-7.57-12.9l-45.87 44.21c1.9 1.33 7.98 9.51 10.13 10.43z" opacity=".4"/></g><circle cx="382.91" cy="594.66" r="33.84" class="B C F"/><g class="G"><path d="M378 580.47c1.22 3.83-3.5 6.78-7 7.37-3.54 0-5.9-2.36-7.08-5.31-.59-2.95 0-5.9 2.36-7.67 2.95-1.18 7.08-2.36 9.7.67a6.85 6.85 0 0 1 2.02 4.94zm6.32-2.26a2.29 2.29 0 0 1-4.49.19c0-1.77.59-2.36 2.27-2.42a2.22 2.22 0 0 1 2.22 2.22z"/><circle cx="615.2" cy="594.66" r="33.84" opacity=".2"/><path d="M610.12 628.11l38.54-38.54c-.21-1.37-5.91-8.1-6.29-9.44l-41.72 41.74c1.35.37 8.1 6.04 9.47 6.24z" opacity=".4"/></g><circle cx="615.2" cy="594.66" r="33.84" class="B C F"/><path d="M607.36 579.91c1 3.25-3 5.75-6 6.25-3 0-5-2-6-4.5-.5-2.5 0-5 2-6.5 2.5-1 6-2 8.23.57a5.85 5.85 0 0 1 1.77 4.18zm5.34-1.91a1.94 1.94 0 0 1-3.8.16c0-1.5.5-2 1.92-2a1.88 1.88 0 0 1 1.88 1.84z" class="G"/><path d="M416.74,594.66q83.68-30,164.63,0" class="B C D F"/><path d="M615.2 634.5a39.9 39.9 0 0 1-39.6-35.5c-50-17.65-101.46-17.64-153.1 0a39.81 39.81 0 0 1-50.92 33.84 38 38 0 0 0 54.51-29.91c49.22-16.86 98.28-16.88 145.93 0a38 38 0 0 0 54.51 30 40 40 0 0 1-11.33 1.57z" opacity=".15"/><defs ><path id="B" d="M233.25,500c0-147.32,119.43-266.75,266.75-266.75S766.75,352.68,766.75,500A266.22,266.22,0,0,1,668.1,707.12q-8.21,6.68-16.94,12.69C591,758,515,758,446.39,751.89c-6.66-1-13.3-2.26-19.89-3.71-26.33-5.8-51.82-14.75-75.37-27.8Q342.4,715,334.2,708.76a199.59,199.59,0,0,1-15.8-13.38q-7.14-6.63-13.79-13.78A265.86,265.86,0,0,1,233.25,500Z"/><path id="C" d="M784 342.85c-5.1-5.1-31.06 1.83-57.19-.23a281 281 0 0 0-221.18-114.34c-2.44-20.48-.75-37.68-2.61-40.1-2.49-3.22-15.49 12.68-18.87 31-11.91-15-32.14-23-32.72-18.8-.38 2.68 7.44 14.09 14.81 29.9-111.6 13.47-203.08 92.26-235.08 197-13.86 11.92-26.86 20.34-27 25.69-.27 9.92 39.31 9.36 56.58 7.82v-.06c60.65-2 179-13.78 236.42-72.89-5.52 19.09-15.69 33.16-13.73 36.16 3 4.67 38.32-5.19 50.07-23.24 48 19.59 139.49 43.16 219-16.16l-.22-.43c14.49-12.11 38.07-34.92 31.72-41.32z"/><path id="D" d="M240.26,423.13a254.67,254.67,0,0,1,6.54-57.5q1.29-5.55,2.81-11c2.9-32.3,20-58.94,42.86-82.73,4.76-3.81,5.71-12.37,10.47-17.13,16.18-14.27,30.45-28.55,48.53-40,74.22-47.58,172.23-73.27,251.21-29.5,16.17,8.56,34.25,13.32,47.57,24.74,25.7,21.88,43.77,47.58,69.47,68.51,22.83,19,26.64,49.48,34.74,76.07q1.53,5.44,2.81,11a254.67,254.67,0,0,1,6.54,57.5Z"/><path id="E" d="M225.35 356.43c183.42-78 371.14-79.06 555.94 0 17.53 7.5 17.43 139.87 0 133.81-180.47-62.83-371.33-63.5-555.94 0-21.96 7.55-19.82-125.38 0-133.81z"/></defs></svg>